<svg xmlns="http://www.w3.org/2000/svg" viewBox="0 0 282.06 163.05"><defs><style>.cls-1,.cls-6,.cls-9{font-size:9px;}.cls-1{font-family:ArialMT, Arial;}.cls-2,.cls-3,.cls-4,.cls-5,.cls-8{fill:none;stroke-linecap:round;stroke-linejoin:round;}.cls-2{stroke:gray;stroke-width:0.75px;}.cls-3{stroke:#231f20;}.cls-3,.cls-4{stroke-width:1.5px;}.cls-4,.cls-8{stroke:#fe8d3c;}.cls-5{stroke:#000;}.cls-6{fill:#231f20;}.cls-6,.cls-9{font-family:ArialNarrow, Arial Narrow;}.cls-7,.cls-9{letter-spacing:-0.02em;}.cls-8{stroke-width:0.38px;}.cls-9{fill:#fe8d3c;}</style></defs><title>allhumannatural</title><g id="text"><text class="cls-1" transform="translate(39.47 13.98)">All Human and Natural Influences</text></g><g id="Layer_4" data-name="Layer 4"><path class="cls-2" d="M57.05,495.48v3.4m34-3.4v3.4m33.95-3.4v3.4m34-3.4v3.4m34-3.4v3.4m34-3.4v3.4m33.95-3.4v3.4m34-3.4v3.4" transform="translate(-22.4 -348.58)"/><text class="cls-1" transform="translate(24.36 160.13)">1880</text><text class="cls-1" transform="translate(58.32 160.13)">1900</text><text class="cls-1" transform="translate(92.27 160.13)">1920</text><text class="cls-1" transform="translate(126.22 160.13)">1940</text><text class="cls-1" transform="translate(160.18 160.13)">1960</text><text class="cls-1" transform="translate(194.13 160.13)">1980</text><text class="cls-1" transform="translate(228.09 160.13)">2000</text><text class="cls-1" transform="translate(262.04 160.13)">2020</text>
<polyline class="cls-2" points="34.66 146.32 272.33 146.32 272.33 2.62 34.66 2.62 34.66 146.32"/>
<g>
  <polyline class="cls-3" points="34.66 97.09 36.35 90.25 38.05 90.64 39.75 97.22 41.45 105.03 43.15 106.97 44.84 107.35 46.54 109.61 48.24 96.51 49.94 91.22 51.63 111.61 53.33 101.28 55.03 103.67 56.73 107.55 58.42 107.03 60.12 100.38 61.82 91.93 63.52 91.99 65.22 104.38 66.91 97.03 68.61 89.99 70.31 94.7 72.01 105.61 73.7 112.71 75.4 120.71 77.1 105.03 78.8 100.19 80.49 113.22 82.19 116.26 83.89 119.29 85.59 116.07 87.28 115.68 88.98 110 90.68 109.55 92.38 94.51 94.08 91.8 95.77 107.81 97.47 116.26 99.17 104.13 100.87 102.96 102.56 102.12 104.26 95.86 105.96 103.29 107.66 101.22 109.36 102.06 111.05 98.44 112.75 89.41 114.45 97.99 116.15 97.03 117.84 109.03 119.54 93.41 121.24 89.99 122.94 95.03 124.63 105.16 126.33 92.57 128.03 98.25 129.73 94.57 131.43 85.08 133.12 84.76 134.82 84.44 136.52 73.47 138.22 68.24 139.91 78.11 141.61 76.76 143.31 66.43 145.01 75.66 146.71 87.86 148.4 85.28 150.1 90.51 151.8 90.77 153.5 96.44 155.19 87.28 156.89 81.53 158.59 76.76 160.29 93.54 161.98 93.47 163.68 98.12 165.38 78.63 167.08 76.05 168.78 80.05 170.47 83.6 172.17 77.66 173.87 78.37 175.57 76.76 177.26 97.61 178.96 90.77 180.66 86.44 182.36 83.92 184.05 87.6 185.75 76.76 187.45 80.25 189.15 88.96 190.84 81.79 192.54 70.31 194.24 88.64 195.94 83.28 197.64 90.06 199.33 68.82 201.03 77.02 202.73 69.92 204.43 61.59 206.12 56.81 207.82 72.18 209.52 58.1 211.22 70.05 212.91 73.28 214.61 68.5 216.31 56.62 218.01 51.26 219.71 59.78 221.4 48.16 223.1 50.36 224.8 65.53 226.5 64.37 228.19 58.43 229.89 47.78 231.59 56.3 233.29 46.04 234.99 34.22 236.68 51.72 238.38 51.46 240.08 40.81 241.78 34.42 243.47 35.32 245.17 40.68 246.87 30.87 248.57 35 250.26 33.19 251.96 42.81 253.66 33.32 255.36 28.48 257.06 37.77 258.75 35 260.45 32.8 262.15 25.9 263.85 15.77 265.54 6.21 267.24 13.44"/>
  <path class="cls-4" d="M57.05,448.47l1.7-3.91,1.7,1.86,1.7,4.3L63.85,476l1.69-3.2,1.7-4.58,1.7-4.64,1.7-5,1.69-1.32,1.7-.42,1.7,4,1.7.09,1.69-11.27,1.7-4.49,1.7-2.43,1.7,4.16,1.7,1,1.69-2.93,1.7-.41,1.7.13,1.7-2.88,1.69,3.08L96.1,459l1.7-2.32L99.5,453l1.69-8.19,1.7,1.27,1.7-.29,1.7-3.67,1.7,1.09,1.69-4.3,1.7,6,1.7,6.84,1.7-4.08,1.69-3.33,1.7-2,1.7-3.82,1.7,1.47,1.7-1.72,1.69.62,1.7,2.53,1.7-2.6,1.7-3.64,1.69,1.18,1.7.69,1.7,2.42,1.7-3.67,1.69.06,1.7,2,1.7-2.23,1.7-.14,1.7.12,1.69.84,1.7-4.29,1.7,3.13,1.7-1.31,1.69-2.45,1.7-1.81,1.7.25,1.7-.82,1.69-4.68,1.7,2,1.7,1.83,1.7,2.61h1.7l1.69,2.25,1.7-1.64,1.7-1.39,1.7,1.49,1.69-.23,1.7,2.91,1.7,1.48L181,434l1.69,1.35,1.7-4.44,1.7,1.21,1.7-2.25,1.7-3.48,1.69.84,1.7,3.57,1.7-5.05,1.7-.27L198,430.7l1.7,14.29,1.7-1.05,1.7-4.91,1.69-3.72,1.7-3.52,1.7.81,1.7-3.83,1.7-2.76,1.69-3.21,1.7-1.53,1.7-.19,1.7,3.95,1.69-4,1.7-4.48,1.7-.47,1.7-2.56,1.7-2,1.69-4.46,1.7,9.57,1.7,11.88,1.7-7.16,1.69-5.66L237,414l1.7-5.23,1.7-1.82,1.69-2.17,1.7-4.29,1.7,3.52,1.7,22.1,1.7-5.53,1.69-7.35,1.7-9.88,1.7-1.49,1.7-2.57,1.69-7.21,1.7-2.94,1.7-3.11,1.7-.92,1.69-1.11,1.7-1,1.7-2.68,1.7,1.48m0,.41,1.7-1.48,1.69-1.08,1.7-.27,1.7,1.32,1.7-6.36,1.69-1.76,1.7,1.93,1.7-.55,1.7-.39,1.69-3,1.7-.46,1.7-2.48" transform="translate(-22.4 -348.58)"/>
  <path class="cls-8" d="M255.85,409.05l-5.44-5.43m-4.49-4.49-4.22-4.23m14.6,12.21-5.49-5.51m-5.08-5.08-3.21-3.2m14.24,11.84-5.6-5.6m-5.63-5.63-2.33-2.32m14,11.61-5.71-5.71m6.44,4-6.09-6.09m7,4.56-6.61-6.61m7.47,5.07-6.4-6.4m7.24,4.85-6.11-6.12m7.46,5.06-6.51-6.5m8,5.59L256,387.59m8.86,6.45-8.4-8.4m9.72,7.32-9.26-9.26m10.19,7.79-9.74-9.73m12.51,10.09-11.64-11.63m13.11,10.7L259.11,378.7M272.86,390,260,377.14m16.16,13.77-15.3-15.3m15.8,13.4-14.24-14.25m14.75,12.36-13.29-13.3m13.8,11.4-12.31-12.31m13.33,10.93-12.19-12.19m15.44,13.05L267.4,370.18m16.39,14-13.46-13.46m14.75,12.35L271.8,369.78m14.14,11.74L273.52,369.1m14,11.54-11.19-11.18m12.39,10-11.88-11.89M289.64,378l-12.35-12.35m12.35,9.95-11.78-11.79m11.78,9.39L279,362.61m10.61,8.2-7.15-7.15m7.15,4.75-5.22-5.22m5.22,2.82-4.29-4.28m4.29,1.88-3.42-3.42m3.42,1L288,359.57m1.63-.76-.66-.66" transform="translate(-22.4 -348.58)"/>
  <path class="cls-8" d="M64,486.12l-.21-.21m1-1.36-1.21-1.21m2-.38-2.19-2.19m2.83.44-3-3M67,479.45l-3.83-3.83m4.48,2.08L63,473.05m5.29,2.89-5.47-5.47m6.12,3.71-6.28-6.28m6.88,4.49-7.06-7.06m7.67,5.26-5.81-5.81m-.53-.53-1.5-1.5M57.46,458l-.51-.51m13.83,11.42-5.66-5.66m-1.53-1.53-2-2m-3.37-3.38-1.14-1.13m15.09,12.68-6.28-6.27m-2.45-2.46-6.34-6.34m20.44,18-3.42-3.42m-.12-.11-7.46-7.47m-3.27-3.27-6.19-6.18m20.77,18.36L67.16,458.05M63.07,454l-6.22-6.22m21.28,18.88L67.8,456.29m-4.91-4.91L57,445.45m21.5,19.09-10-10m-5.73-5.73-5.67-5.67m21.71,19.31-9.68-9.68m-6.53-6.53-5.5-5.5m22,19.63-9.4-9.4m-7.31-7.31-5.52-5.52m22.83,20.43-9.39-9.39m-8.09-8.09-4.5-4.51m22.64,20.25-9.13-9.13M61.07,437.55l-2.65-2.64m22.66,20.26-4.77-4.77m-1-1-2.66-2.66m24.13,21.72-.91-.9m-9.73-9.74L83.28,455m-1.21-1.2-4.46-4.47m20.19,17.8-2.24-2.25M87,456.31l-9.11-9.11m20.64,18.25-3.33-3.34m-7-7-10-10M99.32,463.8l-4.42-4.41M90.5,455l-12-12m21.26,18.86-5.23-5.23m-2.85-2.85L78.87,440.94m21.36,19L93,452.69m-.39-.39L79.23,438.91m21.41,19L79.89,437.17m21.16,18.76-20.5-20.51m23.31,20.91L81.4,433.87m23.68,21.29-8-8m-1.34-1.33-9.35-9.36m-3.68-3.67-.36-.37m31.11,28.71-.89-.88m-6.77-6.78L98,445.72m-2.58-2.59L87.31,435m26.9,24.49-2.39-2.39m-3.73-3.73-9.29-9.28m-3.67-3.68-6.25-6.25m26.05,23.65-4-4m-2.19-2.19-9.24-9.23m-4.73-4.74L91.12,434m24.62,22.21L110,450.48m-.56-.56-9.5-9.5M94.47,435,92,432.48m24.57,22.17-16.22-16.22m17.34,14.93-16.93-16.92m17.83,15.42-17.41-17.41m18.14,15.75-14.82-14.82m17.27,14.87-16.46-16.46M123,449l-9.25-9.25m-1.36-1.37-6.28-6.27m21.2,18.79-12.85-12.85m-2.87-2.86L108.31,432m19.92,17.52-13-13m-4.54-4.53L109,430.25m20,17.63-13-13m-6.29-6.29,0,0m20.11,17.71L116.94,433.4m18.44,16-17.33-17.33m18.09,15.69-17.31-17.31M137,446.28l-17.45-17.45m21.21,18.81L122.16,429m19.66,17.26L123.54,428m20.39,18-16.35-16.35m19.52,17.12-18.61-18.61M147.78,445l-18.52-18.52m21.45,19-.86-.85m-1.38-1.39L130,424.88m22,19.63-16.44-16.43m17.44,15-16.68-16.68m17.7,15.29-16.27-16.27m17.43,15-14.13-14.13m16.37,14-15.1-15.1M159,439.44l-14.23-14.23m14.87,12.46-12.31-12.3m18.46,16.05-.19-.19m-5.32-5.31L148,423.65M169.78,443l-18.64-18.64m-2.2-2.19-.26-.26M171,441.86l-18.62-18.62m19.94,17.54-19-19m26.37,24L176,442m-.09-.09-21.4-21.4m26.44,24.05-25.15-25.16m27.45,25.06L158,419.24m25.87,23.47L159.19,418m26.91,24.52-26.27-26.28m40.89,38.48-1.28-1.28m-12.3-12.3-20.6-20.59m-2.39-2.4-3.68-3.67m41.24,38.84-2.6-2.6m-11-11L170.16,421.8m32.17,29.77L198.78,448m-9.92-9.93-17.43-17.43m31.51,29.11-4.48-4.48m-5.2-5.2-1.78-1.79m-1-.95-16.1-16.1m29.25,26.85-5.53-5.54m-4.27-4.27-13.75-13.75m24.3,21.91-7-7m-2.95-3-11.72-11.71m22.44,20-21.77-21.78M206,443.21l-21.9-21.9M208.16,443l-8.45-8.46m-.06-.05-13.22-13.23m22.47,20.07-7.71-7.71m-1.86-1.86L187.47,419.9m22.17,19.77-7.73-7.74M199,429l-10.68-10.67m22.17,19.77-8-8m-3.83-3.84-9.57-9.56m22.3,19.9-8.26-8.26m-4.8-4.8-4.9-4.91m18.8,16.41-8.35-8.35M198,420.86l-4-4m19,16.63-8.42-8.42m-7.62-7.61-2.17-2.17m19.39,17-8.83-8.82m13.34,10.94-1.57-1.57M216,431.58l-9.74-9.73m13.28,10.88-11.1-11.11M220.21,431,209.14,420m11.72,9.33-11-11m22.24,19.84-.37-.37m-10.23-10.23-10.73-10.72m21.79,19.37L231.35,435M223,426.64l-11.33-11.33M233,434.26,231,432.17m-6.77-6.77-11.66-11.66m21,18.57-2.95-2.95m-5.41-5.4-11.73-11.73M234,430.44l-3.9-3.9m-3.88-3.88-11.58-11.57m19.91,17.51-5-5m-2.47-2.48L219,413m16.11,13.72-6-6m-1.29-1.3-8.07-8.06m27.5,25.09,0,0m-11.07-11.06-7.55-7.55m-.11-.12-8-8m27.38,25-.81-.81M237.17,424l-16.09-16.09m27.28,24.88-1.57-1.57m-9-9-5.49-5.49m-.64-.64-9.88-9.88m27.18,24.78-2.33-2.33m-8.25-8.25-5.62-5.61m-1.5-1.51-7.69-7.69M249.37,429l-3-3m-7.25-7.25-6-6m-2.36-2.36-6.33-6.33M249.82,427l-3.63-3.63m-5.89-5.89-6.65-6.65m-3.23-3.23-4.92-4.93m24.77,22.38L246,420.8m-4.63-4.63L234.2,409M230,404.77l-3.37-3.37m24.1,21.7-4.9-4.9m-3.48-3.49-7.55-7.55m-5.32-5.31-2.09-2.09m23.7,21.29-5.46-5.45M243,413l-7.68-7.68m-6.38-6.39L228,398m23.39,21-4-4m-.28-.29-2.88-2.88m-.58-.58-7.16-7.16M251.75,417,248,413.18m-1.06-1.05-9.57-9.57m14.75,12.35-3.56-3.56m-1.81-1.82-8.79-8.79m14.94,12.54-3.81-3.82m-2.54-2.53-8-8m15.58,13.18-4.6-4.59m-3.18-3.19-6.82-6.82m15.56,13.16-5.1-5.11m-3.84-3.83-5.49-5.48" transform="translate(-22.4 -348.58)"/>
</g>
<line class="cls-5" x1="34.66" y1="103.31" x2="272.33" y2="103.31"/><text class="cls-6" transform="translate(226.68 10.67)">Obser<tspan class="cls-7" x="20.1" y="0">ve</tspan><tspan x="27.45" y="0">d</tspan></text><text class="cls-9" transform="translate(239.14 58.53)">All Drivers</text><text class="cls-1" transform="translate(0 7.72)">(c)</text><g id="Layer_5" data-name="Layer 5"><line class="cls-2" x1="34.35" y1="103.29" x2="30.96" y2="103.29"/><line class="cls-2" x1="34.35" y1="146.32" x2="30.96" y2="146.32"/><line class="cls-2" x1="34.35" y1="124.81" x2="30.96" y2="124.81"/><line class="cls-2" x1="34.35" y1="81.77" x2="30.96" y2="81.77"/><line class="cls-2" x1="34.35" y1="60.26" x2="30.96" y2="60.26"/><line class="cls-2" x1="34.35" y1="38.74" x2="30.96" y2="38.74"/><line class="cls-2" x1="34.35" y1="17.23" x2="30.96" y2="17.23"/><text class="cls-1" transform="translate(9.69 148.74)">−1.0</text><text class="cls-1" transform="translate(9.69 128.12)">−0.5</text><text class="cls-1" transform="translate(14.95 83.99)">0.5</text><text class="cls-1" transform="translate(14.95 105.33)">0.0</text><text class="cls-1" transform="translate(14.95 62.37)">1.0</text><text class="cls-1" transform="translate(14.95 40.87)">1.5</text><text class="cls-1" transform="translate(14.95 19.12)">2.0</text></g></g></svg>
