<svg xmlns="http://www.w3.org/2000/svg" viewBox="0 0 278.76 165.84">
  <defs><style>.cls-1,.cls-16,.cls-3,.cls-4,.cls-5,.cls-6,.cls-7,.cls-8,.cls-9{fill:none;stroke-linecap:round;stroke-linejoin:round;}.cls-1{stroke:gray;}.cls-1,.cls-4,.cls-5,.cls-6,.cls-7{stroke-width:0.75px;}.cls-10,.cls-11,.cls-12,.cls-13,.cls-14,.cls-15,.cls-2{font-size:9px;}.cls-2{font-family:ArialMT, Arial;}.cls-3{stroke:#231f20;}.cls-3,.cls-8{stroke-width:1.5px;}.cls-4{stroke:#8c510a;}.cls-5{stroke:#542788;}.cls-6{stroke:#4d9221;}.cls-7{stroke:#feb24c;}.cls-8{stroke:#e31a1c;}.cls-9{stroke:#000;}.cls-10{fill:#231f20;}.cls-10,.cls-11,.cls-12,.cls-13,.cls-14,.cls-15{font-family:ArialNarrow, Arial Narrow;}.cls-11{fill:#8c510a;}.cls-12{fill:#542788;letter-spacing:-0.03em;}.cls-13{fill:#4d9221;}.cls-14{fill:#feb24c;}.cls-15{fill:#e31a1c;}.cls-16{stroke:#fc0000;stroke-width:0.38px;}</style></defs>
  <title>allhuman</title>
  <g id="Layer_4" data-name="Layer 4">
    <g>
      <path class="cls-1" d="M53.75,319.38v3.4m34-3.4v3.4m34-3.4v3.4m34-3.4v3.4m34-3.4v3.4m34-3.4v3.4m34-3.4v3.4m34-3.4v3.4" transform="translate(-22.4 -169.69)"/><text class="cls-2" transform="translate(21.06 162.92)">1880</text><text class="cls-2" transform="translate(55.02 162.92)">1900</text><text class="cls-2" transform="translate(88.97 162.92)">1920</text><text class="cls-2" transform="translate(122.92 162.92)">1940</text><text class="cls-2" transform="translate(156.87 162.92)">1960</text><text class="cls-2" transform="translate(190.83 162.92)">1980</text><text class="cls-2" transform="translate(224.79 162.92)">2000</text><text class="cls-2" transform="translate(258.74 162.92)">2020</text>
    </g>
    <g>
      <polyline class="cls-1" points="31.35 149.12 269.03 149.12 269.03 5.41 31.35 5.41 31.35 149.12"/>
      <polyline class="cls-3" points="31.35 99.88 33.05 93.04 34.75 93.43 36.44 100.01 38.14 107.82 39.84 109.76 41.54 110.14 43.23 112.4 44.93 99.3 46.63 94.01 48.33 114.4 50.03 104.08 51.72 106.47 53.42 110.34 55.12 109.82 56.82 103.17 58.52 94.72 60.21 94.78 61.91 107.17 63.61 99.82 65.31 92.78 67 97.49 68.7 108.4 70.4 115.5 72.1 123.5 73.79 107.82 75.49 102.98 77.19 116.02 78.89 119.05 80.58 122.08 82.28 118.86 83.98 118.47 85.68 112.79 87.38 112.34 89.07 97.3 90.77 94.59 92.47 110.6 94.17 119.05 95.86 106.92 97.56 105.75 99.26 104.92 100.96 98.66 102.66 106.08 104.35 104.01 106.05 104.85 107.75 101.24 109.45 92.2 111.14 100.78 112.84 99.82 114.54 111.82 116.24 96.2 117.93 92.78 119.63 97.82 121.33 107.95 123.03 95.36 124.72 101.04 126.42 97.36 128.12 87.88 129.82 87.56 131.52 87.23 133.21 76.26 134.91 71.03 136.61 80.91 138.31 79.55 140 69.22 141.7 78.45 143.4 90.65 145.1 88.07 146.79 93.3 148.49 93.56 150.19 99.24 151.89 90.07 153.59 84.33 155.28 79.55 156.98 96.33 158.68 96.27 160.38 100.92 162.07 81.42 163.77 78.84 165.47 82.84 167.17 86.39 168.87 80.45 170.56 81.17 172.26 79.55 173.96 100.4 175.66 93.56 177.35 89.23 179.05 86.72 180.75 90.39 182.45 79.55 184.15 83.04 185.84 91.75 187.54 84.58 189.24 73.1 190.94 91.43 192.63 86.07 194.33 92.85 196.03 71.61 197.73 79.81 199.42 72.71 201.12 64.38 202.82 59.6 204.52 74.97 206.22 60.9 207.91 72.84 209.61 76.07 211.31 71.29 213.01 59.41 214.7 54.05 216.4 62.58 218.1 50.96 219.8 53.15 221.49 68.32 223.19 67.16 224.89 61.22 226.59 50.57 228.28 59.09 229.98 48.83 231.68 37.02 233.38 54.51 235.08 54.25 236.77 43.6 238.47 37.21 240.17 38.12 241.87 43.47 243.56 33.66 245.26 37.79 246.96 35.98 248.66 45.6 250.35 36.12 252.05 31.27 253.75 40.57 255.45 37.79 257.15 35.6 258.84 28.69 260.54 18.56 262.24 9 263.94 16.23"/>
      <polyline class="cls-4" points="31.35 109.49 33.05 104.48 34.75 105.03 36.44 102.81 38.14 108.69 39.84 107.77 41.54 104.96 43.23 107.7 44.93 110.45 46.63 108.53 48.33 104.81 50.03 104.38 51.72 108.04 53.42 103.68 55.12 105.32 56.82 106.99 58.52 105.95 60.21 105.91 61.91 107.03 63.61 103.42 65.31 105.38 67 107.02 68.7 105.27 70.4 103.92 72.1 106.89 73.79 104.82 75.49 105.62 77.19 107.2 78.89 107.56 80.58 104.94 82.28 105 83.98 104.35 85.68 103.78 87.38 104.61 89.07 103.62 90.77 103.19 92.47 106.53 94.17 104.03 95.86 106.98 97.56 106.67 99.26 98.77 100.96 108.61 102.66 105.05 104.35 105.79 106.05 103.87 107.75 105.55 109.45 107.98 111.14 106.88 112.84 108.35 114.54 105.59 116.24 109.08 117.93 107.37 119.63 110.87 121.33 109.52 123.03 107.2 124.72 109.89 126.42 110.74 128.12 111.15 129.82 108.44 131.52 108.6 133.21 109.09 134.91 110.75 136.61 109.49 138.31 109.22 140 111.18 141.7 110.78 143.4 110.69 145.1 109.25 146.79 112.56 148.49 113.59 150.19 113.3 151.89 114.28 153.59 113.76 155.28 114.51 156.98 117.97 158.68 115.86 160.38 117.47 162.07 117.51 163.77 118.32 165.47 118.43 167.17 118.42 168.87 117.98 170.56 117.21 172.26 117.96 173.96 119.46 175.66 120.25 177.35 120.03 179.05 120.89 180.75 120.54 182.45 119.23 184.15 120.86 185.84 120.35 187.54 121.25 189.24 123.36 190.94 121.1 192.63 124.08 194.33 127.07 196.03 123.95 197.73 123.29 199.42 130.13 201.12 131.51 202.82 134.46 204.52 129.37 206.22 129.56 207.91 134.32 209.61 131.31 211.31 133.4 213.01 133.83 214.7 134.74 216.4 134.48 218.1 131.39 219.8 134.13 221.49 132.79 223.19 135.96 224.89 137.19 226.59 134.03 228.28 136.48 229.98 135.69 231.68 136.45 233.38 134.62 235.08 135.78 236.77 140.01 238.47 135.83 240.17 134.99 241.87 135.97 243.56 137.56"/>
      <polyline class="cls-5" points="31.35 107.53 33.05 108.59 34.75 111.64 36.44 107.98 38.14 108.93 39.84 109.9 41.54 107.55 43.23 104.32 44.93 107.1 46.63 110.56 48.33 111.76 50.03 108.02 51.72 106.14 53.42 108.01 55.12 105.25 56.82 103.96 58.52 105 60.21 106.5 61.91 108.4 63.61 105.1 65.31 105.16 67 107.48 68.7 100.68 70.4 106.45 72.1 102.56 73.79 99.49 75.49 103.07 77.19 99.98 78.89 103.86 80.58 105.14 82.28 102.96 83.98 102.44 85.68 100.44 87.38 97.05 89.07 101.25 90.77 99.8 92.47 102.5 94.17 102.53 95.86 99.86 97.56 97.46 99.26 101.27 100.96 99.28 102.66 98.51 104.35 97.02 106.05 98.46 107.75 96.41 109.45 93.93 111.14 95.8 112.84 96.62 114.54 88.52 116.24 94.66 117.93 94.81 119.63 90.31 121.33 88.02 123.03 91.05 124.72 92.29 126.42 88.97 128.12 89.88 129.82 87.99 131.52 90.36 133.21 90.94 134.91 87.44 136.61 87.02 138.31 85.37 140 86.42 141.7 88.28 143.4 84.5 145.1 79.91 146.79 85.03 148.49 83.87 150.19 86.88 151.89 88.46 153.59 83.77 155.28 85.98 156.98 82.24 158.68 86.53 160.38 86.06 162.07 80.15 163.77 81.56 165.47 83.15 167.17 77.38 168.87 78.92 170.56 76.12 172.26 76.13 173.96 74.34 175.66 78.51 177.35 77.73 179.05 74.84 180.75 71.21 182.45 67.5 184.15 67.2 185.84 62.35 187.54 60.43 189.24 62.28 190.94 61.46 192.63 62.47 194.33 59.07 196.03 58.8 197.73 58.64 199.42 54.01 201.12 56.97 202.82 53.83 204.52 52.12 206.22 51.63 207.91 51.64 209.61 48.03 211.31 47.08 213.01 47.51 214.7 41.06 216.4 43.51 218.1 40.78 219.8 42.09 221.49 38.07 223.19 35.88 224.89 33.41 226.59 33.83 228.28 35.38 229.98 32.78 231.68 32.17 233.38 32.97 235.08 29.79 236.77 26.49 238.47 23.21 240.17 23.18 241.87 21.6 243.56 18.77"/>
      <polyline class="cls-6" points="31.35 105 33.05 109.09 34.75 106.5 36.44 104.98 38.14 106.33 39.84 102.53 41.54 103.4 43.23 103.25 44.93 103.5 46.63 103.58 48.33 107.81 50.03 107.16 51.72 105.89 53.42 104.52 55.12 107.1 56.82 106.58 58.52 107.08 60.21 108.12 61.91 110.89 63.61 110.34 65.31 107.64 67 109.91 68.7 108.14 70.4 106.34 72.1 107.1 73.79 106.04 75.49 104.42 77.19 102.63 78.89 103.87 80.58 103.83 82.28 105.5 83.98 108.66 85.68 106.42 87.38 105.79 89.07 104.44 90.77 107.22 92.47 104.52 94.17 100.8 95.86 101.5 97.56 105.23 99.26 102.42 100.96 107.75 102.66 107.39 104.35 105.19 106.05 105.05 107.75 107.06 109.45 103.65 111.14 112.37 112.84 105.64 114.54 104.45 116.24 109.53 117.93 106.75 119.63 107.04 121.33 103.8 123.03 103.73 124.72 108.39 126.42 106.89 128.12 110.74 129.82 106.18 131.52 103.21 133.21 105.21 134.91 107.31 136.61 110.11 138.31 106.73 140 108.89 141.7 109.14 143.4 108.49 145.1 106.37 146.79 109.6 148.49 110.57 150.19 110.04 151.89 109.56 153.59 107 155.28 110.11 156.98 109.31 158.68 110.16 160.38 113.75 162.07 109.93 163.77 110.16 165.47 107.72 167.17 109.3 168.87 109.72 170.56 111.27 172.26 111.4 173.96 110.54 175.66 115.04 177.35 114.58 179.05 113.14 180.75 112.04 182.45 112.11 184.15 113.34 185.84 114.72 187.54 113.7 189.24 115.28 190.94 115.85 192.63 109.88 194.33 109.14 196.03 114.35 197.73 111.5 199.42 110.54 201.12 113.92 202.82 111.34 204.52 112.52 206.22 116.52 207.91 118.87 209.61 116.7 211.31 113.86 213.01 116.36 214.7 111.43 216.4 110.94 218.1 112.81 219.8 113.22 221.49 110.23 223.19 112.61 224.89 113.63 226.59 113.6 228.28 112.42 229.98 114.11 231.68 115.77 233.38 116.88 235.08 114.64 236.77 115.36 238.47 112.4 240.17 113.63 241.87 115.6 243.56 113.89"/>
      <polyline class="cls-7" points="31.35 107.95 33.05 108.31 34.75 109.03 36.44 108.06 38.14 108.29 39.84 106.96 41.54 107.57 43.23 108.52 44.93 106.26 46.63 106.19 48.33 108.31 50.03 107.72 51.72 106.39 53.42 105.69 55.12 103.26 56.82 104.87 58.52 105.95 60.21 106.78 61.91 105.03 63.61 107.32 65.31 108.25 67 107.32 68.7 105.37 70.4 104.93 72.1 104.03 73.79 103.19 75.49 103.02 77.19 102.43 78.89 102.89 80.58 103.38 82.28 105.78 83.98 104.07 85.68 102.99 87.38 104.43 89.07 105.01 90.77 103.14 92.47 100.35 94.17 101.19 95.86 101.53 97.56 106.79 99.26 107.32 100.96 102.74 102.66 105.9 104.35 100.36 106.05 104.42 107.75 103.74 109.45 104.76 111.14 103.16 112.84 103.21 114.54 107.16 116.24 104.7 117.93 103.88 119.63 103.2 121.33 103.12 123.03 101.69 124.72 103.51 126.42 104.64 128.12 101.63 129.82 100.01 131.52 103.55 133.21 104.77 134.91 101.48 136.61 102.47 138.31 100.37 140 98.69 141.7 98.51 143.4 100.09 145.1 99.35 146.79 101.97 148.49 98.28 150.19 100.5 151.89 102.47 153.59 102.91 155.28 99.9 156.98 103.08 158.68 102.87 160.38 100.39 162.07 97.57 163.77 98.11 165.47 99.76 167.17 100.37 168.87 98.36 170.56 99.04 172.26 102.13 173.96 101.34 175.66 99.44 177.35 100.13 179.05 99.16 180.75 96.77 182.45 98.84 184.15 101.28 185.84 98.8 187.54 99.05 189.24 98.11 190.94 100.57 192.63 101.69 194.33 99.69 196.03 98.99 197.73 102.47 199.42 99.95 201.12 95.1 202.82 97.94 204.52 94.25 206.22 95.08 207.91 97.5 209.61 96.62 211.31 98.57 213.01 98.1 214.7 95.34 216.4 98.78 218.1 98.76 219.8 96.93 221.49 94.56 223.19 95.53 224.89 94.28 226.59 94.75 228.28 92.9 229.98 98.71 231.68 97.87 233.38 96.43 235.08 99.76 236.77 98.82 238.47 96.71 240.17 99.96 241.87 100.21 243.56 97.3"/>
      <polyline class="cls-8" points="31.35 108.68 33.05 105.02 34.75 111.57 36.44 109.21 38.14 103.84 39.84 103.86 41.54 101.34 43.23 102.17 44.93 106.48 46.63 106.48 48.33 102.64 50.03 105.03 51.72 104.8 53.42 103.3 55.12 104.08 56.82 108.33 58.52 107.55 60.21 111.94 61.91 109.06 63.61 106.91 65.31 105.67 67 106.12 68.7 106 70.4 104.08 72.1 107.24 73.79 108.81 75.49 111.32 77.19 104.81 78.89 105.07 80.58 102.66 82.28 105.01 83.98 102.15 85.68 107.25 87.38 106.01 89.07 102.85 90.77 104.9 92.47 103.84 94.17 107.1 95.86 104.12 97.56 100.92 99.26 102.2 100.96 102.15 102.66 101.18 104.35 99.12 106.05 101.17 107.75 96.45 109.45 96.6 111.14 99.72 112.84 98.32 114.54 96.9 116.24 99.74 117.93 98.03 119.63 97.42 121.33 98.38 123.03 98.18 124.72 97.36 126.42 96.82 128.12 94.84 129.82 97.58 131.52 98.99 133.21 96.25 134.91 92.06 136.61 96.04 138.31 100.88 140 97.98 141.7 96.42 143.4 90.92 145.1 90.91 146.79 94.14 148.49 97.28 150.19 94.27 151.89 94.25 153.59 94.67 155.28 95.78 156.98 95.4 158.68 97.58 160.38 99.5 162.07 98.6 163.77 96.47 165.47 94.73 167.17 93.74 168.87 90.38 170.56 94.25 172.26 91.9 173.96 91.47 175.66 88.91 177.35 93.05 179.05 92.93 180.75 88.98 182.45 83.92 184.15 85.31 185.84 82.48 187.54 82.83 189.24 84.31 190.94 82.35 192.63 82.52 194.33 81.62 196.03 79.07 197.73 80.87 199.42 78.26 201.12 72.93 202.82 75.78 204.52 77.49 206.22 69.54 207.91 69.66 209.61 68.58 211.31 70.45 213.01 68.02 214.7 63.71 216.4 65.88 218.1 62.87 219.8 62.63 221.49 63.08 223.19 62.89 224.89 63.55 226.59 60.09 228.28 58.91 229.98 58.17 231.68 55.1 233.38 54.01 235.08 55.78 236.77 55.7 238.47 53.04 240.17 49.85 241.87 49.1 243.56 46.46"/>
      <path class="cls-16" d="M53.8,288.7l-.23-.23m4.42,2-1.55-1.56m-1.88-1.88-.84-.84M58.93,289,55.6,285.7m-.28-.29-1.57-1.56m5.76,3.36-5.86-5.86m6.44,4-6.44-6.45m7.4,5-7.48-7.48m9.16,6.76-9.08-9.09m14.84,12.45-1.91-1.91M63.7,281.8,53.65,271.74M69.6,285.3,53.75,269.45m16.59,14.18-13-13m-.3-.3-3-3m20,17.58-15.71-15.7m-2.14-2.14-1.37-1.38M83,291.46l-.94-.94m-2.3-2.31-1-1m-3.39-3.4L59.12,267.61M83.85,290,59.69,265.79m25.14,22.73L60.27,264m25.61,23.22-24-24.06m25.4,23L63,261.93m26.68,24.28L69.1,265.59m-3-3-1.78-1.78m27.23,24.83-21.69-21.7m28.44,26-5.12-5.12m-.5-.5L72.59,264.28m-.61-.61-1.41-1.41m28.2,25.8-24.3-24.31m24.8,22.41-16-16m-1.71-1.71-1.3-1.29m-2-2-2.49-2.48m24.84,22.44L84.14,268.62M102,284.12,85.16,267.25m19.8,17.4L86.29,266m22.94,20.55-2.15-2.16m-1.22-1.22L87.68,265m22.61,20.21L90.43,265.32m20.7,18.28L97.94,270.42m-.49-.49-5.56-5.56m24.88,22.48L116,286m-1.71-1.71L98.43,268.51m19.21,16.81L98.93,266.61m19.57,17.17L99.43,264.7m19.9,17.51-18-18m20.46,18.07-19.47-19.47M123.88,282l-15.59-15.59m-.39-.4-2.65-2.64M125.31,281l-15.63-15.63m-3-3-.56-.55m20.25,17.85-15.84-15.84m18.42,16-15.73-15.72m-.66-.66-1.19-1.2m18.21,15.82-12.55-12.56m-1.93-1.93-.39-.39m18.93,16.53-.37-.37m-2.77-2.76L117.92,264M135,278.65l-16.21-16.22m17.52,15.12L119.6,260.87m20.2,17.81-17.23-17.25m18.75,16.35-16.95-16.94m20,17.57-18.69-18.69m20.57,18.18-17.7-17.7m-1.63-1.63-.16-.17m21.2,18.81-18.77-18.77m20.23,17.82-19.59-19.59m24.38,22L150.58,275m-.08-.07-16.42-16.43m-1.71-1.7-1-1m23.75,21.34L135.4,257.46m25.54,23.14-.57-.57m-4.44-4.44L139,258.65m-1.41-1.41-.88-.87m25.12,22.71-2.75-2.75m-2.45-2.45-16.43-16.43m22.65,20.24-5.53-5.52m0,0-15.43-15.43m22.21,19.8L145,257.49m19.63,17.23L146.75,256.8m18.48,16.08-16.71-16.7m22.82,20.42-1.91-1.91m-3.64-3.64-16-16m22.46,20.05-17.72-17.72m19.42,17-18.51-18.5m22.4,20-16.58-16.59M160,258l-3.81-3.81m27.39,25-21.43-21.44m-3.58-3.58-1.69-1.69m28.07,25.67-21.68-21.68M186,276.82l-21.69-21.7m22.86,20.47-22.3-22.3m23.61,21.21-23-23m24.37,22-18.16-18.17m-3.05-3-2-2M193,274.27l-.17-.17m-2.27-2.27-18.1-18.1M194,272.88,174.8,253.64m20.59,18.19-17-16.95m18.4,16-12.78-12.79m17.35,15-2.87-2.87m-.74-.74-12.54-12.54m16.91,14.51-15.83-15.83m16.55,14.15-15.37-15.36m16,13.61-14.6-14.59m15.2,12.79L190,252.08m14.69,12.29L193.35,253m-1.1-1.09-1.41-1.41m16.32,13.92-12.8-12.81m13.7,11.3L196,250.83m15.8,13.4-11.92-11.92m-.21-.21-2.53-2.53M212.91,263,201.67,251.7M215,262.63,202.39,250m14.18,11.79-13.46-13.47m14.49,12.09-13.88-13.88m16.57,14.17-16-16m16.92,14.52-14.69-14.69M222,257.67l-14.6-14.59m15.18,12.77-14-14M223.2,254l-11-11.05m15.16,12.76-14-14.05m14.47,12.07-12.23-12.23m12.65,10.25-11.22-11.21m11.64,9.24L217.9,239.12m12.8,10.4-10.1-10.1m13.28,10.89L221.54,238m13.33,10.93-12.64-12.64m13.49,11.08-12.91-12.9m13.58,11.18L227,236.25m-2.7-2.7-.94-.94m15.55,13.14-1.47-1.46m-.4-.4-9.62-9.62m12.35,9.95-11.93-11.93m13,10.63-12.61-12.61m15.16,12.76-14.21-14.22m16.67,14.27-14.74-14.74m16.63,14.23L234.2,229m14.39,12-13.4-13.41m14.5,12.1-13.76-13.76m15.26,12.86-14.58-14.58m16,13.62-13.42-13.42m14.27,11.87-13.4-13.41m14.44,12.05-12.94-13m16.28,13.89L244.29,222.3m15.28,12.88-12.41-12.42m13.35,11-12.46-12.45m13.33,10.93-12.54-12.54m13.38,11-12.07-12.07m13.38,11-11.81-11.81m13.07,10.67L252.9,216.5m12.83,10.43-12-12m12.21,9.8-11-11m11,8.58L258.59,215m7.37,5-6.09-6.09m6.09,3.69-5.15-5.16m5.15,2.76-4.31-4.32m4.31,1.92-3.48-3.48m3.48,1.08-1.9-1.9m1.9-.5-.87-.88" transform="translate(-22.4 -169.69)"/>
    </g>
    <line class="cls-9" x1="31.35" y1="106.1" x2="269.03" y2="106.1"/><text class="cls-10" transform="translate(226.38 13.46)">Observed</text><text class="cls-11" transform="translate(237.9 146.16)">Aerosols</text><text class="cls-12" transform="translate(174.45 26.73)">Greenhouse Gases</text><text class="cls-13" transform="translate(228.47 125.12)">Land Cover</text><text class="cls-14" transform="translate(245.96 99.43)">Ozone</text><text class="cls-15" transform="translate(232.87 77.05)">All Human<tspan x="0" y="10.8">Drivers</tspan></text><text class="cls-2" transform="translate(36.81 17.38)">All Human Influences</text><text class="cls-2" transform="translate(0 7.72)">(b)</text><g id="Layer_5" data-name="Layer 5"><line class="cls-1" x1="31.35" y1="106.09" x2="27.96" y2="106.09"/><line class="cls-1" x1="31.35" y1="149.12" x2="27.96" y2="149.12"/><line class="cls-1" x1="31.35" y1="127.6" x2="27.96" y2="127.6"/><line class="cls-1" x1="31.35" y1="84.57" x2="27.96" y2="84.57"/><line class="cls-1" x1="31.35" y1="63.05" x2="27.96" y2="63.05"/><line class="cls-1" x1="31.35" y1="41.54" x2="27.96" y2="41.54"/><line class="cls-1" x1="31.35" y1="20.03" x2="27.96" y2="20.03"/><text class="cls-2" transform="translate(6.69 151.54)">−1.0</text><text class="cls-2" transform="translate(6.69 130.91)">−0.5</text><text class="cls-2" transform="translate(11.95 86.79)">0.5</text><text class="cls-2" transform="translate(11.95 108.12)">0.0</text><text class="cls-2" transform="translate(11.95 65.16)">1.0</text><text class="cls-2" transform="translate(11.95 43.66)">1.5</text><text class="cls-2" transform="translate(11.95 21.91)">2.0</text></g></g></svg>
