<svg xmlns="http://www.w3.org/2000/svg" viewBox="0 0 279.42 162.9">
  <defs><style>
    .cls-1,.cls-14,.cls-3,.cls-4,.cls-5,.cls-6,.cls-7,.cls-8{fill:none;stroke-linecap:round;stroke-linejoin:round;}.cls-1{stroke:gray;}.cls-1,.cls-4,.cls-5,.cls-6{stroke-width:0.75px;}.cls-10,.cls-11,.cls-13,.cls-2,.cls-9{font-size:9px;}.cls-2{font-family:ArialMT, Arial;}.cls-3,.cls-8{stroke:#000;}.cls-3,.cls-7{stroke-width:1.5px;}.cls-4{stroke:#8c510a;}.cls-5{stroke:#542788;}.cls-6{stroke:#4d9221;}.cls-14,.cls-7{stroke:#fed976;}.cls-9{fill:#231f20;}.cls-10,.cls-11,.cls-12,.cls-13,.cls-9{font-family:ArialNarrow, Arial Narrow;}.cls-10{fill:#8c510a;}.cls-11{fill:#542788;letter-spacing:-0.02em;}.cls-12{font-size:8px;fill:#4d9221;letter-spacing:-0.03em;}.cls-13{fill:#fed976;}.cls-14{stroke-width:0.38px;} .cls-1,.cls-16,.cls-3,.cls-4,.cls-5,.cls-6,.cls-7,.cls-8,.cls-9{fill:none;stroke-linecap:round;stroke-linejoin:round;}.cls-1{stroke:gray;}.cls-1,.cls-4,.cls-5,.cls-6,.cls-7{stroke-width:0.75px;}.cls-10,.cls-11,.cls-12,.cls-13,.cls-14,.cls-15,.cls-2{font-size:9px;}.cls-2{font-family:ArialMT, Arial;}.cls-3{stroke:#231f20;}.cls-3,.cls-8{stroke-width:1.5px;}.cls-4{stroke:#8c510a;}.cls-5{stroke:#542788;}.cls-6{stroke:#4d9221;}.cls-7{stroke:#feb24c;}.cls-8{stroke:#e31a1c;}.cls-9{stroke:#000;}.cls-10{fill:#231f20;}.cls-10,.cls-11,.cls-12,.cls-13,.cls-14,.cls-15{font-family:ArialNarrow, Arial Narrow;}.cls-11{fill:#8c510a;}.cls-12{fill:#542788;letter-spacing:-0.03em;}.cls-13{fill:#4d9221;}.cls-14{fill:#feb24c;}.cls-15{fill:#e31a1c;}.cls-16{stroke:#fc0000;stroke-width:0.38px;}
    .cls-1,.cls-6,.cls-9{font-size:9px;}.cls-1{font-family:ArialMT, Arial;}.cls-2,.cls-3,.cls-4,.cls-5,.cls-8{fill:none;stroke-linecap:round;stroke-linejoin:round;}.cls-2{stroke:gray;stroke-width:0.75px;}.cls-3{stroke:#231f20;}.cls-3,.cls-4{stroke-width:1.5px;}.cls-4,.cls-8{stroke:#fe8d3c;}.cls-5{stroke:#000;}.cls-6{fill:#231f20;}.cls-6,.cls-9{font-family:ArialNarrow, Arial Narrow;}.cls-7,.cls-9{letter-spacing:-0.02em;}.cls-8{stroke-width:0.38px;}.cls-9{fill:#fe8d3c;}

    .graph-line {
        fill: none;
        stroke-linejoin: round;
        stroke-width: 1px;
    }

    .graph-line--all {
        stroke-width: 1.3px;
    }

    .graph-line--hatched {
        stroke-width: .38px;
        opacity: .5;
    }

    .graph-line--inactive {
        display: none;
    }

    .graph-line--observed {
        stroke-width: 1.5px;
        stroke: #000;
    }

    .graph-line--all--combined {
        stroke: #fe8d3c;
    }

    .graph-line--all--human {
        stroke: #e31a1c;
    }

    .graph-line--all--natural {
        stroke: #fed976;
    }

    .graph-line--aerosols, .graph-line--orbital {
        stroke: #8c510a;
    }    

    .graph-line--greenhouse, .graph-line--solar {
        stroke: #542788;
    }    

    .graph-line--land-cover, .graph-line--volcanic {
        stroke: #4d9221;
    }    

    .graph-line--ozone {
        stroke: #feb24c;
    }    
</style></defs>
  <title>allnatural</title>
  <g id="Layer_4" data-name="Layer 4">
    <g class="labels">
      <path class="cls-1" d="M53.75,149.3v3.39m34-3.39v3.39m34-3.39v3.39m34-3.39v3.39m34-3.39v3.39m34-3.39v3.39m34-3.39v3.39m34-3.39v3.39" transform="translate(-21.74 -2.54)"/>
      <text class="cls-2" transform="translate(21.72 159.98)">1880</text>
      <text class="cls-2" transform="translate(55.68 159.98)">1900</text>
      <text class="cls-2" transform="translate(89.63 159.98)">1920</text>
      <text class="cls-2" transform="translate(123.58 159.98)">1940</text>
      <text class="cls-2" transform="translate(157.54 159.98)">1960</text>
      <text class="cls-2" transform="translate(191.49 159.98)">1980</text>
      <text class="cls-2" transform="translate(225.45 159.98)">2000</text>
      <text class="cls-2" transform="translate(259.4 159.98)">2020</text>
    </g>

    <g>
      <path class="graph-line graph-line--observed" d="M32.010,96.940l1.690,-6.840,1.700,0.390,1.700,6.580,1.700,7.810,1.700,1.940,1.690,0.380,1.700,2.260,1.700,-13.100,1.700,-5.290,1.690,20.390,1.700,-10.330,1.700,2.390,1.700,3.880,1.690,-0.520,1.700,-6.650,1.700,-8.450,1.700,0.060,1.700,12.390,1.690,-7.350,1.700,-7.040,1.700,4.710,1.700,10.910,1.690,7.100,1.700,8.000,1.700,-15.680,1.700,-4.840,1.690,13.030,1.700,3.040,1.700,3.030,1.700,-3.220,1.690,-0.390,1.700,-5.680,1.700,-0.450,1.700,-15.040,1.700,-2.710,1.690,16.010,1.700,8.450,1.700,-12.130,1.700,-1.170,1.690,-0.840,1.700,-6.260,1.700,7.430,1.700,-2.070,1.700,0.840,1.690,-3.620,1.700,-9.030,1.700,8.580,1.700,-0.960,1.690,12.000,1.700,-15.620,1.700,-3.420,1.700,5.040,1.690,10.130,1.700,-12.590,1.700,5.680,1.700,-3.680,1.700,-9.490,1.690,-0.320,1.700,-0.320,1.700,-10.970,1.700,-5.230,1.690,9.870,1.700,-1.350,1.700,-10.330,1.700,9.230,1.700,12.200,1.690,-2.580,1.700,5.230,1.700,0.260,1.700,5.670,1.690,-9.160,1.700,-5.750,1.700,-4.770,1.700,16.780,1.690,-0.070,1.700,4.650,1.700,-19.490,1.700,-2.580,1.700,4.000,1.690,3.550,1.700,-5.940,1.700,0.710,1.700,-1.610,1.690,20.850,1.700,-6.840,1.700,-4.330,1.700,-2.520,1.690,3.680,1.700,-10.840,1.700,3.490,1.700,8.710,1.690,-7.170,1.700,-11.480,1.700,18.330,1.700,-5.360,1.700,6.780,1.690,-21.240,1.700,8.200,1.700,-7.100,1.700,-8.330,1.690,-4.780,1.700,15.370,1.700,-14.080,1.700,11.950,1.690,3.230,1.700,-4.780,1.700,-11.880,1.700,-5.360,1.700,8.520,1.690,-11.620,1.700,2.200,1.700,15.170,1.700,-1.160,1.690,-5.940,1.700,-10.650,1.700,8.520,1.700,-10.260,1.700,-11.820,1.690,17.500,1.700,-0.260,1.700,-10.650,1.700,-6.390,1.690,0.900,1.700,5.360,1.700,-9.810,1.700,4.130,1.690,-1.810,1.700,9.620,1.700,-9.490,1.700,-4.840,1.700,9.290,1.690,-2.770,1.700,-2.200,1.700,-6.900,1.700,-10.130,1.690,-9.560,1.700,7.230"/>
    </g>
    <g>
      <path class="graph-line graph-line--all graph-line--all--combined graph-line--inactive" d="M32,99.74l 1.7 -3.91 l 1.7 1.86 l 1.7 4.3 l1.700,25.280l 1.69 -3.2 l 1.7 -4.58 l 1.7 -4.64 l 1.7 -5 l 1.69 -1.32 l 1.7 -0.42 l 1.7 4 l 1.7 0.09 l 1.69 -11.27 l 1.7 -4.49 l 1.7 -2.43 l 1.7 4.16 l 1.7 1 l 1.69 -2.93 l 1.7 -0.41 l 1.7 0.13 l 1.7 -2.88 l 1.69 3.08 l1.700,14.110l 1.7 -2.32 l1.700,-3.680l 1.69 -8.19 l 1.7 1.27 l 1.7 -0.29 l 1.7 -3.67 l 1.7 1.09 l 1.69 -4.3 l 1.7 6 l 1.7 6.84 l 1.7 -4.08 l 1.69 -3.33 l 1.7 -2 l 1.7 -3.82 l 1.7 1.47 l 1.7 -1.72 l 1.69 0.62 l 1.7 2.53 l 1.7 -2.6 l 1.7 -3.64 l 1.69 1.18 l 1.7 0.69 l 1.7 2.42 l 1.7 -3.67 l 1.69 0.06 l 1.7 2 l 1.7 -2.23 l 1.7 -0.14 l 1.7 0.12 l 1.69 0.84 l 1.7 -4.29 l 1.7 3.13 l 1.7 -1.31 l 1.69 -2.45 l 1.7 -1.81 l 1.7 0.25 l 1.7 -0.82 l 1.69 -4.68 l 1.7 2 l 1.7 1.83 l 1.7 2.61 h 1.7 l 1.69 2.25 l 1.7 -1.64 l 1.7 -1.39 l 1.7 1.49 l 1.69 -0.23 l 1.7 2.91 l 1.7 1.48 l1.710,-1.780l 1.69 1.35 l 1.7 -4.44 l 1.7 1.21 l 1.7 -2.25 l 1.7 -3.48 l 1.69 0.84 l 1.7 3.57 l 1.7 -5.05 l 1.7 -0.27 l1.720,5.220l 1.7 14.29 l 1.7 -1.05 l 1.7 -4.91 l 1.69 -3.72 l 1.7 -3.52 l 1.7 0.81 l 1.7 -3.83 l 1.7 -2.76 l 1.69 -3.21 l 1.7 -1.53 l 1.7 -0.19 l 1.7 3.95 l 1.69 -4 l 1.7 -4.48 l 1.7 -0.47 l 1.7 -2.56 l 1.7 -2 l 1.69 -4.46 l 1.7 9.57 l 1.7 11.88 l 1.7 -7.16 l 1.69 -5.66 l1.650,-1.690l 1.7 -5.23 l 1.7 -1.82 l 1.69 -2.17 l 1.7 -4.29 l 1.7 3.52 l 1.7 22.1 l 1.7 -5.53 l 1.69 -7.35 l 1.7 -9.88 l 1.7 -1.49 l 1.7 -2.57 l 1.69 -7.21 l 1.7 -2.94 l 1.7 -3.11 l 1.7 -0.92 l 1.69 -1.11 l 1.7 -1 l 1.7 -2.68 l 1.7 1.48 m 0 0.41 l 1.7 -1.48 l 1.69 -1.08 l 1.7 -0.27 l 1.7 1.32 l 1.7 -6.36 l 1.69 -1.76 l 1.7 1.93 l 1.7 -0.55 l 1.7 -0.39 l 1.69 -3 l 1.7 -0.46 l1.7 -2.48"/>
      <path class="graph-line graph-line--hatched graph-line--all--combined graph-line--inactive" d="M230.8,60.32l -5.44 -5.43 m -4.49 -4.49 l -4.22 -4.23 m 14.6 12.21 l -5.49 -5.51 m -5.08 -5.08 l -3.21 -3.2 m 14.24 11.84 l -5.6 -5.6 m -5.63 -5.63 l -2.33 -2.32 m 14 11.61 l -5.71 -5.71 m 6.44 4 l -6.09 -6.09 m 7 4.56 l -6.61 -6.61 m 7.47 5.07 l -6.4 -6.4 m 7.24 4.85 l -6.11 -6.12 m 7.46 5.06 l -6.51 -6.5 m 8 5.59 l-7.380,-7.330m 8.86 6.45 l -8.4 -8.4 m 9.72 7.32 l -9.26 -9.26 m 10.19 7.79 l -9.74 -9.73 m 12.51 10.09 l -11.64 -11.63 m 13.11 10.7 l-12.240,-12.220m13.750,11.300l-12.860,-12.860m 16.16 13.77 l -15.3 -15.3 m 15.8 13.4 l -14.24 -14.25 m 14.75 12.36 l -13.29 -13.3 m 13.8 11.4 l -12.31 -12.31 m 13.33 10.93 l -12.19 -12.19 m 15.44 13.05 l-14.550,-14.520m 16.39 14 l -13.46 -13.46 m 14.75 12.35 l-13.280,-13.290m 14.14 11.74 l-12.420,-12.420m 14 11.54 l -11.19 -11.18 m 12.39 10 l -11.88 -11.89 m12.800,10.430l -12.35 -12.35 m 12.35 9.95 l -11.78 -11.79 m 11.78 9.39 l-10.640,-10.590m 10.61 8.2 l -7.15 -7.15 m 7.15 4.75 l -5.22 -5.22 m 5.22 2.82 l -4.29 -4.28 m 4.29 1.88 l -3.42 -3.42 m 3.42 1 l-1.610,-1.620m 1.63 -0.76 l -0.66 -0.66 m-224.970,127.970l -0.21 -0.21 m 1 -1.36 l -1.21 -1.21 m 2 -0.38 l -2.19 -2.19 m 2.83 0.44 l -3 -3 m3.780,1.240l -3.83 -3.83 m 4.48 2.08 l-4.650,-4.650m 5.29 2.89 l -5.47 -5.47 m 6.12 3.71 l -6.28 -6.28 m 6.88 4.49 l -7.06 -7.06 m 7.67 5.26 l -5.81 -5.81 m -0.53 -0.53 l -1.5 -1.5 m-4.850,-4.750l -0.51 -0.51 m 13.83 11.42 l -5.66 -5.66 m -1.53 -1.53 l -2 -2 m -3.37 -3.38 l -1.14 -1.13 m 15.09 12.68 l -6.28 -6.27 m -2.45 -2.46 l -6.34 -6.34 m 20.44 18 l -3.42 -3.42 m -0.12 -0.11 l -7.46 -7.47 m -3.27 -3.27 l -6.19 -6.18 m 20.77 18.36 l-10.690,-10.680m-4.090,-4.050l -6.22 -6.22 m 21.28 18.88 l-10.330,-10.370m -4.91 -4.91 l-5.890,-5.930m 21.5 19.09 l -10 -10 m -5.73 -5.73 l -5.67 -5.67 m 21.71 19.31 l -9.68 -9.68 m -6.53 -6.53 l -5.5 -5.5 m 22 19.63 l -9.4 -9.4 m -7.31 -7.31 l -5.52 -5.52 m 22.83 20.43 l -9.39 -9.39 m -8.09 -8.09 l -4.5 -4.51 m 22.64 20.25 l -9.13 -9.13 m-10.160,-10.150l -2.65 -2.64 m 22.66 20.26 l -4.77 -4.77 m -1 -1 l -2.66 -2.66 m 24.13 21.72 l -0.91 -0.9 m -9.73 -9.74 l-2.860,-2.820m -1.21 -1.2 l -4.46 -4.47 m 20.19 17.8 l -2.24 -2.25 m-8.560,-8.570l -9.11 -9.11 m 20.64 18.25 l -3.33 -3.34 m -7 -7 l -10 -10 m21.120,18.690l -4.42 -4.41 m-4.400,-4.390l -12 -12 m 21.26 18.86 l -5.23 -5.23 m -2.85 -2.85 l-12.810,-12.840m 21.36 19 l-7.230,-7.250m -0.39 -0.39 l-13.380,-13.390m 21.41 19 l-20.750,-20.740m 21.16 18.76 l -20.5 -20.51 m 23.31 20.91 l-22.460,-22.460m 23.68 21.29 l -8 -8 m -1.34 -1.33 l -9.35 -9.36 m -3.68 -3.67 l -0.36 -0.37 m 31.11 28.71 l -0.89 -0.88 m -6.77 -6.78 l-7.800,-7.760m -2.58 -2.59 l-8.110,-8.130m 26.9 24.49 l -2.39 -2.39 m -3.73 -3.73 l -9.29 -9.28 m -3.67 -3.68 l -6.25 -6.25 m 26.05 23.65 l -4 -4 m -2.19 -2.19 l -9.24 -9.23 m -4.73 -4.74 l-3.650,-3.650m 24.62 22.21 l-5.740,-5.730m -0.56 -0.56 l -9.5 -9.5 m-5.470,-5.420l-2.470,-2.520m 24.57 22.17 l -16.22 -16.22 m 17.34 14.93 l -16.93 -16.92 m 17.83 15.42 l -17.41 -17.41 m 18.14 15.75 l -14.82 -14.82 m 17.27 14.87 l -16.46 -16.46 m17.690,15.210l -9.25 -9.25 m -1.36 -1.37 l -6.28 -6.27 m 21.2 18.79 l -12.85 -12.85 m -2.87 -2.86 l-3.280,-3.190m 19.92 17.52 l -13 -13 m -4.54 -4.53 l-1.690,-1.740m 20 17.63 l -13 -13 m -6.29 -6.29 l 0 0 m 20.11 17.71 l-12.880,-12.900m 18.44 16 l -17.33 -17.33 m 18.09 15.69 l -17.31 -17.31 m18.170,15.830l -17.45 -17.45 m 21.21 18.81 l-18.600,-18.640m 19.66 17.26 l-18.280,-18.260m 20.39 18 l -16.35 -16.35 m 19.52 17.12 l -18.61 -18.61 m19.290,16.840l -18.52 -18.52 m 21.45 19 l -0.86 -0.85 m -1.38 -1.39 l-18.470,-18.360m 22 19.63 l -16.44 -16.43 m 17.44 15 l -16.68 -16.68 m 17.7 15.29 l -16.27 -16.27 m 17.43 15 l -14.13 -14.13 m 16.37 14 l -15.1 -15.1 m16.680,14.250l -14.23 -14.23 m 14.87 12.46 l -12.31 -12.3 m 18.46 16.05 l -0.19 -0.19 m -5.32 -5.31 l-12.280,-12.270m21.780,19.350l -18.64 -18.64 m -2.2 -2.19 l -0.26 -0.26 m22.320,19.950l -18.62 -18.62 m 19.94 17.54 l -19 -19 m 26.37 24 l-3.690,-3.780m -0.09 -0.09 l -21.4 -21.4 m 26.44 24.05 l -25.15 -25.16 m 27.45 25.06 l-25.250,-25.220m 25.87 23.47 l-24.680,-24.710m 26.91 24.52 l -26.27 -26.28 m 40.89 38.48 l -1.28 -1.28 m -12.3 -12.3 l -20.6 -20.59 m -2.39 -2.4 l -3.68 -3.67 m 41.24 38.84 l -2.6 -2.6 m -11 -11 l-17.950,-17.920m 32.17 29.77 l-3.550,-3.570m -9.92 -9.93 l -17.43 -17.43 m 31.51 29.11 l -4.48 -4.48 m -5.2 -5.2 l -1.78 -1.79 m -1 -0.95 l -16.1 -16.1 m 29.25 26.85 l -5.53 -5.54 m -4.27 -4.27 l -13.75 -13.75 m 24.3 21.91 l -7 -7 m -2.95 -3 l -11.72 -11.71 m 22.44 20 l -21.77 -21.78 m22.620,20.270l -21.9 -21.9 m24.060,21.690l -8.45 -8.46 m -0.06 -0.05 l -13.22 -13.23 m 22.47 20.07 l -7.71 -7.71 m -1.86 -1.86 l-11.860,-11.860m 22.17 19.77 l -7.73 -7.74 m-2.910,-2.930l -10.68 -10.67 m 22.17 19.77 l -8 -8 m -3.83 -3.84 l -9.57 -9.56 m 22.3 19.9 l -8.26 -8.26 m -4.8 -4.8 l -4.9 -4.91 m 18.8 16.41 l -8.35 -8.35 m-5.880,-5.830l -4 -4 m 19 16.63 l -8.42 -8.42 m -7.62 -7.61 l -2.17 -2.17 m 19.39 17 l -8.83 -8.82 m 13.34 10.94 l -1.57 -1.57 m-1.120,-1.260l -9.74 -9.73 m 13.28 10.88 l -11.1 -11.11 m11.770,9.380l-11.070,-11.000m 11.72 9.33 l -11 -11 m 22.24 19.84 l -0.37 -0.37 m -10.23 -10.23 l -10.73 -10.72 m 21.79 19.37 l-1.210,-1.220m-8.350,-8.360l -11.33 -11.33 m21.330,18.950l-2.000,-2.090m -6.77 -6.77 l -11.66 -11.66 m 21 18.57 l -2.95 -2.95 m -5.41 -5.4 l -11.73 -11.73 m20.520,18.210l -3.9 -3.9 m -3.88 -3.88 l -11.58 -11.57 m 19.91 17.51 l -5 -5 m -2.47 -2.48 l-8.080,-8.120m 16.11 13.72 l -6 -6 m -1.29 -1.3 l -8.07 -8.06 m 27.5 25.09 l 0 0 m -11.07 -11.06 l -7.55 -7.55 m -0.11 -0.12 l -8 -8 m 27.38 25 l -0.81 -0.81 m-9.920,-9.910l -16.09 -16.09 m 27.28 24.88 l -1.57 -1.57 m -9 -9 l -5.49 -5.49 m -0.64 -0.64 l -9.88 -9.88 m 27.18 24.78 l -2.33 -2.33 m -8.25 -8.25 l -5.62 -5.61 m -1.5 -1.51 l -7.69 -7.69 m25.800,23.400l -3 -3 m -7.25 -7.25 l -6 -6 m -2.36 -2.36 l -6.33 -6.33 m25.390,22.940l -3.63 -3.63 m -5.89 -5.89 l -6.65 -6.65 m -3.23 -3.23 l -4.92 -4.93 m 24.77 22.38 l-4.270,-4.250m -4.63 -4.63 l-7.170,-7.170m-4.200,-4.230l -3.37 -3.37 m 24.1 21.7 l -4.9 -4.9 m -3.48 -3.49 l -7.55 -7.55 m -5.32 -5.31 l -2.09 -2.09 m 23.7 21.29 l -5.46 -5.45 m-2.630,-2.600l -7.68 -7.68 m -6.38 -6.39 l-0.940,-0.930m 23.39 21 l -4 -4 m -0.28 -0.29 l -2.88 -2.88 m -0.58 -0.58 l -7.16 -7.16 m15.260,12.910l-3.750,-3.820m -1.06 -1.05 l -9.57 -9.57 m 14.75 12.35 l -3.56 -3.56 m -1.81 -1.82 l -8.79 -8.79 m 14.94 12.54 l -3.81 -3.82 m -2.54 -2.53 l -8 -8 m 15.58 13.18 l -4.6 -4.59 m -3.18 -3.19 l -6.82 -6.82 m 15.56 13.16 l -5.1 -5.11 m -3.84 -3.83 l-5.49 -5.48"/>
    </g>

    <g transform="translate(.66 -2.94)">
      <path class="graph-line graph-line--aerosols graph-line--inactive" d="M31.350,109.490l1.700,-5.010,1.700,0.550,1.690,-2.220,1.700,5.880,1.700,-0.920,1.700,-2.810,1.690,2.740,1.700,2.750,1.700,-1.920,1.700,-3.720,1.700,-0.430,1.690,3.660,1.700,-4.360,1.700,1.640,1.700,1.670,1.700,-1.040,1.690,-0.040,1.700,1.120,1.700,-3.610,1.700,1.960,1.690,1.640,1.700,-1.750,1.700,-1.350,1.700,2.970,1.690,-2.070,1.700,0.800,1.700,1.580,1.700,0.360,1.690,-2.620,1.700,0.060,1.700,-0.650,1.700,-0.570,1.700,0.830,1.690,-0.990,1.700,-0.430,1.700,3.340,1.700,-2.500,1.690,2.950,1.700,-0.310,1.700,-7.900,1.700,9.840,1.700,-3.560,1.690,0.740,1.700,-1.920,1.700,1.680,1.700,2.430,1.690,-1.100,1.700,1.470,1.700,-2.760,1.700,3.490,1.690,-1.710,1.700,3.500,1.700,-1.350,1.700,-2.320,1.690,2.690,1.700,0.850,1.700,0.410,1.700,-2.710,1.700,0.160,1.690,0.490,1.700,1.660,1.700,-1.260,1.700,-0.270,1.690,1.960,1.700,-0.400,1.700,-0.090,1.700,-1.440,1.690,3.310,1.700,1.030,1.700,-0.290,1.700,0.980,1.700,-0.520,1.690,0.750,1.700,3.460,1.700,-2.110,1.700,1.610,1.690,0.040,1.700,0.810,1.700,0.110,1.700,-0.010,1.700,-0.440,1.690,-0.770,1.700,0.750,1.700,1.500,1.700,0.790,1.690,-0.220,1.700,0.860,1.700,-0.350,1.700,-1.310,1.700,1.630,1.690,-0.510,1.700,0.900,1.700,2.110,1.700,-2.260,1.690,2.980,1.700,2.990,1.700,-3.120,1.700,-0.660,1.690,6.840,1.700,1.380,1.700,2.950,1.700,-5.090,1.700,0.190,1.690,4.760,1.700,-3.010,1.700,2.090,1.700,0.430,1.690,0.910,1.700,-0.260,1.700,-3.090,1.700,2.740,1.690,-1.340,1.700,3.170,1.700,1.230,1.700,-3.160,1.690,2.450,1.700,-0.790,1.700,0.760,1.700,-1.830,1.700,1.160,1.690,4.230,1.700,-4.180,1.700,-0.840,1.700,0.980,1.690,1.590"/>
      <path class="graph-line graph-line--greenhouse graph-line--inactive" d="M31.350,107.530l1.700,1.060,1.700,3.050,1.690,-3.660,1.700,0.950,1.700,0.970,1.700,-2.350,1.690,-3.230,1.700,2.780,1.700,3.460,1.700,1.200,1.700,-3.740,1.690,-1.880,1.700,1.870,1.700,-2.760,1.700,-1.290,1.700,1.040,1.690,1.500,1.700,1.900,1.700,-3.300,1.700,0.060,1.690,2.320,1.700,-6.800,1.700,5.770,1.700,-3.890,1.690,-3.070,1.700,3.580,1.700,-3.090,1.700,3.880,1.690,1.280,1.700,-2.180,1.700,-0.520,1.700,-2.000,1.700,-3.390,1.690,4.200,1.700,-1.450,1.700,2.700,1.700,0.030,1.690,-2.670,1.700,-2.400,1.700,3.810,1.700,-1.990,1.700,-0.770,1.690,-1.490,1.700,1.440,1.700,-2.050,1.700,-2.480,1.690,1.870,1.700,0.820,1.700,-8.100,1.700,6.140,1.690,0.150,1.700,-4.500,1.700,-2.290,1.700,3.030,1.690,1.240,1.700,-3.320,1.700,0.910,1.700,-1.890,1.700,2.370,1.690,0.580,1.700,-3.500,1.700,-0.420,1.700,-1.650,1.690,1.050,1.700,1.860,1.700,-3.780,1.700,-4.590,1.690,5.120,1.700,-1.160,1.700,3.010,1.700,1.580,1.700,-4.690,1.690,2.210,1.700,-3.740,1.700,4.290,1.700,-0.470,1.690,-5.910,1.700,1.410,1.700,1.590,1.700,-5.770,1.700,1.540,1.690,-2.800,1.700,0.010,1.700,-1.790,1.700,4.170,1.690,-0.780,1.700,-2.890,1.700,-3.630,1.700,-3.710,1.700,-0.300,1.690,-4.850,1.700,-1.920,1.700,1.850,1.700,-0.820,1.690,1.010,1.700,-3.400,1.700,-0.270,1.700,-0.160,1.690,-4.630,1.700,2.960,1.700,-3.140,1.700,-1.710,1.700,-0.490,1.690,0.010,1.700,-3.610,1.700,-0.950,1.700,0.430,1.690,-6.450,1.700,2.450,1.700,-2.730,1.700,1.310,1.690,-4.020,1.700,-2.190,1.700,-2.470,1.700,0.420,1.690,1.550,1.700,-2.600,1.700,-0.610,1.700,0.800,1.700,-3.180,1.690,-3.300,1.700,-3.280,1.700,-0.030,1.700,-1.580,1.690,-2.830"/>
      <path class="graph-line graph-line--land-cover graph-line--inactive" d="M31.350,105.000l1.700,4.090,1.700,-2.590,1.690,-1.520,1.700,1.350,1.700,-3.800,1.700,0.870,1.690,-0.150,1.700,0.250,1.700,0.080,1.700,4.230,1.700,-0.650,1.690,-1.270,1.700,-1.370,1.700,2.580,1.700,-0.520,1.700,0.500,1.690,1.040,1.700,2.770,1.700,-0.550,1.700,-2.700,1.690,2.270,1.700,-1.770,1.700,-1.800,1.700,0.760,1.690,-1.060,1.700,-1.620,1.700,-1.790,1.700,1.240,1.690,-0.040,1.700,1.670,1.700,3.160,1.700,-2.240,1.700,-0.630,1.690,-1.350,1.700,2.780,1.700,-2.700,1.700,-3.720,1.690,0.700,1.700,3.730,1.700,-2.810,1.700,5.330,1.700,-0.360,1.690,-2.200,1.700,-0.140,1.700,2.010,1.700,-3.410,1.690,8.720,1.700,-6.730,1.700,-1.190,1.700,5.080,1.690,-2.780,1.700,0.290,1.700,-3.240,1.700,-0.070,1.690,4.660,1.700,-1.500,1.700,3.850,1.700,-4.560,1.700,-2.970,1.690,2.000,1.700,2.100,1.700,2.800,1.700,-3.380,1.690,2.160,1.700,0.250,1.700,-0.650,1.700,-2.120,1.690,3.230,1.700,0.970,1.700,-0.530,1.700,-0.480,1.700,-2.560,1.690,3.110,1.700,-0.800,1.700,0.850,1.700,3.590,1.690,-3.820,1.700,0.230,1.700,-2.440,1.700,1.580,1.700,0.420,1.690,1.550,1.700,0.130,1.700,-0.860,1.700,4.500,1.690,-0.460,1.700,-1.440,1.700,-1.100,1.700,0.070,1.700,1.230,1.690,1.380,1.700,-1.020,1.700,1.580,1.700,0.570,1.690,-5.970,1.700,-0.740,1.700,5.210,1.700,-2.850,1.690,-0.960,1.700,3.380,1.700,-2.580,1.700,1.180,1.700,4.000,1.690,2.350,1.700,-2.170,1.700,-2.840,1.700,2.500,1.690,-4.930,1.700,-0.490,1.700,1.870,1.700,0.410,1.690,-2.990,1.700,2.380,1.700,1.020,1.700,-0.030,1.690,-1.180,1.700,1.690,1.700,1.660,1.700,1.110,1.700,-2.240,1.690,0.720,1.700,-2.960,1.700,1.230,1.700,1.970,1.690,-1.710"/>
      <path class="graph-line graph-line--ozone graph-line--inactive" d="M31.350,107.950l1.700,0.360,1.700,0.720,1.690,-0.970,1.700,0.230,1.700,-1.330,1.700,0.610,1.690,0.950,1.700,-2.260,1.700,-0.070,1.700,2.120,1.700,-0.590,1.690,-1.330,1.700,-0.700,1.700,-2.430,1.700,1.610,1.700,1.080,1.690,0.830,1.700,-1.750,1.700,2.290,1.700,0.930,1.690,-0.930,1.700,-1.950,1.700,-0.440,1.700,-0.900,1.690,-0.840,1.700,-0.170,1.700,-0.590,1.700,0.460,1.690,0.490,1.700,2.400,1.700,-1.710,1.700,-1.080,1.700,1.440,1.690,0.580,1.700,-1.870,1.700,-2.790,1.700,0.840,1.690,0.340,1.700,5.260,1.700,0.530,1.700,-4.580,1.700,3.160,1.690,-5.540,1.700,4.060,1.700,-0.680,1.700,1.020,1.690,-1.600,1.700,0.050,1.700,3.950,1.700,-2.460,1.690,-0.820,1.700,-0.680,1.700,-0.080,1.700,-1.430,1.690,1.820,1.700,1.130,1.700,-3.010,1.700,-1.620,1.700,3.540,1.690,1.220,1.700,-3.290,1.700,0.990,1.700,-2.100,1.690,-1.680,1.700,-0.180,1.700,1.580,1.700,-0.740,1.690,2.620,1.700,-3.690,1.700,2.220,1.700,1.970,1.700,0.440,1.690,-3.010,1.700,3.180,1.700,-0.210,1.700,-2.480,1.690,-2.820,1.700,0.540,1.700,1.650,1.700,0.610,1.700,-2.010,1.690,0.680,1.700,3.090,1.700,-0.790,1.700,-1.900,1.690,0.690,1.700,-0.970,1.700,-2.390,1.700,2.070,1.700,2.440,1.690,-2.480,1.700,0.250,1.700,-0.940,1.700,2.460,1.690,1.120,1.700,-2.000,1.700,-0.700,1.700,3.480,1.690,-2.520,1.700,-4.850,1.700,2.840,1.700,-3.690,1.700,0.830,1.690,2.420,1.700,-0.880,1.700,1.950,1.700,-0.470,1.690,-2.760,1.700,3.440,1.700,-0.020,1.700,-1.830,1.690,-2.370,1.700,0.970,1.700,-1.250,1.700,0.470,1.690,-1.850,1.700,5.810,1.700,-0.840,1.700,-1.440,1.700,3.330,1.690,-0.940,1.700,-2.110,1.700,3.250,1.700,0.250,1.690,-2.910"/>
      <path class="graph-line graph-line--all graph-line--all--human" d="M31.350,108.680l1.700,-3.660,1.700,6.550,1.690,-2.360,1.700,-5.370,1.700,0.020,1.700,-2.520,1.690,0.830,1.700,4.310,1.700,0.000,1.700,-3.840,1.700,2.390,1.690,-0.230,1.700,-1.500,1.700,0.780,1.700,4.250,1.700,-0.780,1.690,4.390,1.700,-2.880,1.700,-2.150,1.700,-1.240,1.690,0.450,1.700,-0.120,1.700,-1.920,1.700,3.160,1.690,1.570,1.700,2.510,1.700,-6.510,1.700,0.260,1.690,-2.410,1.700,2.350,1.700,-2.860,1.700,5.100,1.700,-1.240,1.690,-3.160,1.700,2.050,1.700,-1.060,1.700,3.260,1.690,-2.980,1.700,-3.200,1.700,1.280,1.700,-0.050,1.700,-0.970,1.690,-2.060,1.700,2.050,1.700,-4.720,1.700,0.150,1.690,3.120,1.700,-1.400,1.700,-1.420,1.700,2.840,1.690,-1.710,1.700,-0.610,1.700,0.960,1.700,-0.200,1.690,-0.820,1.700,-0.540,1.700,-1.980,1.700,2.740,1.700,1.410,1.690,-2.740,1.700,-4.190,1.700,3.980,1.700,4.840,1.690,-2.900,1.700,-1.560,1.700,-5.500,1.700,-0.010,1.690,3.230,1.700,3.140,1.700,-3.010,1.700,-0.020,1.700,0.420,1.690,1.110,1.700,-0.380,1.700,2.180,1.700,1.920,1.690,-0.900,1.700,-2.130,1.700,-1.740,1.700,-0.990,1.700,-3.360,1.690,3.870,1.700,-2.350,1.700,-0.430,1.700,-2.560,1.690,4.140,1.700,-0.120,1.700,-3.950,1.700,-5.060,1.700,1.390,1.690,-2.830,1.700,0.350,1.700,1.480,1.700,-1.960,1.690,0.170,1.700,-0.900,1.700,-2.550,1.700,1.800,1.690,-2.610,1.700,-5.330,1.700,2.850,1.700,1.710,1.700,-7.950,1.690,0.120,1.700,-1.080,1.700,1.870,1.700,-2.430,1.690,-4.310,1.700,2.170,1.700,-3.010,1.700,-0.240,1.690,0.450,1.700,-0.190,1.700,0.660,1.700,-3.460,1.690,-1.180,1.700,-0.740,1.700,-3.070,1.700,-1.090,1.700,1.770,1.690,-0.080,1.700,-2.660,1.700,-3.190,1.700,-0.750,1.690,-2.640"/>
      <path class="graph-line graph-line--hatched graph-line--all--human" d="M31.400,119.01l -0.23 -0.23 m 4.42 2 l -1.55 -1.56 m -1.88 -1.88 l -0.84 -0.84 m5.210,2.810l-3.330,-3.300m -0.28 -0.29 l -1.57 -1.56 m 5.76 3.36 l -5.86 -5.86 m 6.44 4 l -6.44 -6.45 m 7.4 5 l -7.48 -7.48 m 9.16 6.76 l -9.08 -9.09 m 14.84 12.45 l -1.91 -1.91 m-2.880,-2.830l-10.050,-10.060m15.950,13.560l-15.850,-15.850m 16.59 14.18 l -13 -13 m -0.3 -0.3 l -3 -3 m 20 17.58 l -15.71 -15.7 m -2.14 -2.14 l -1.37 -1.38 m28.180,25.770l -0.94 -0.94 m -2.3 -2.31 l -1 -1 m -3.39 -3.4 l-16.250,-16.200m24.730,22.390l-24.160,-24.210m 25.14 22.73 l-24.560,-24.520m 25.61 23.22 l -24 -24.06 m 25.4 23 l-24.280,-24.230m 26.68 24.28 l-20.580,-20.620m -3 -3 l -1.78 -1.78 m 27.23 24.83 l -21.69 -21.7 m 28.44 26 l -5.12 -5.12 m -0.5 -0.5 l-20.090,-20.040m -0.61 -0.61 l -1.41 -1.41 m 28.2 25.8 l -24.3 -24.31 m 24.8 22.41 l -16 -16 m -1.71 -1.71 l -1.3 -1.29 m -2 -2 l -2.49 -2.48 m 24.84 22.44 l-16.470,-16.500m17.860,15.500l-16.840,-16.870m 19.8 17.4 l-18.670,-18.650m 22.94 20.55 l -2.15 -2.16 m -1.22 -1.22 l-18.180,-18.170m 22.61 20.21 l-19.860,-19.890m 20.7 18.28 l-13.190,-13.180m -0.49 -0.49 l -5.56 -5.56 m 24.88 22.48 l-0.770,-0.850m -1.71 -1.71 l-15.860,-15.780m 19.21 16.81 l-18.710,-18.710m 19.57 17.17 l-19.070,-19.080m 19.9 17.51 l -18 -18 m 20.46 18.07 l -19.47 -19.47 m21.560,19.190l -15.59 -15.59 m -0.39 -0.4 l -2.65 -2.64 m20.060,17.630l -15.63 -15.63 m -3 -3 l -0.56 -0.55 m 20.25 17.85 l -15.84 -15.84 m 18.42 16 l -15.73 -15.72 m -0.66 -0.66 l -1.19 -1.2 m 18.21 15.82 l -12.55 -12.56 m -1.93 -1.93 l -0.39 -0.39 m 18.93 16.53 l -0.37 -0.37 m -2.77 -2.76 l-12.580,-12.590m17.080,14.650l -16.21 -16.22 m 17.52 15.12 l-16.710,-16.680m 20.2 17.81 l -17.23 -17.25 m 18.75 16.35 l -16.95 -16.94 m 20 17.57 l -18.69 -18.69 m 20.57 18.18 l -17.7 -17.7 m -1.63 -1.63 l -0.16 -0.17 m 21.2 18.81 l -18.77 -18.77 m 20.23 17.82 l -19.59 -19.59 m 24.38 22 l-3.630,-3.670m -0.08 -0.07 l -16.42 -16.43 m -1.71 -1.7 l -1 -1 m 23.75 21.34 l-19.720,-19.680m 25.54 23.14 l -0.57 -0.57 m -4.44 -4.44 l-16.930,-16.940m -1.41 -1.41 l -0.88 -0.87 m 25.12 22.71 l -2.75 -2.75 m -2.45 -2.45 l -16.43 -16.43 m 22.65 20.24 l -5.53 -5.52 m 0 0 l -15.43 -15.43 m 22.21 19.8 l-19.100,-19.050m 19.63 17.23 l-17.880,-17.920m 18.48 16.08 l -16.71 -16.7 m 22.82 20.42 l -1.91 -1.91 m -3.64 -3.64 l -16 -16 m 22.46 20.05 l -17.72 -17.72 m 19.42 17 l -18.51 -18.5 m 22.4 20 l -16.58 -16.59 m-1.260,-1.290l -3.81 -3.81 m 27.39 25 l -21.43 -21.44 m -3.58 -3.58 l -1.69 -1.69 m 28.07 25.67 l -21.68 -21.68 m22.730,20.350l -21.69 -21.7 m 22.86 20.47 l -22.3 -22.3 m 23.61 21.21 l -23 -23 m 24.37 22 l -18.16 -18.17 m -3.05 -3 l -2 -2 m26.360,23.940l -0.17 -0.17 m -2.27 -2.27 l -18.1 -18.1 m21.540,19.150l-19.200,-19.240m 20.59 18.19 l -17 -16.95 m 18.4 16 l -12.78 -12.79 m 17.35 15 l -2.87 -2.87 m -0.74 -0.74 l -12.54 -12.54 m 16.91 14.51 l -15.83 -15.83 m 16.55 14.15 l -15.37 -15.36 m 16 13.61 l -14.6 -14.59 m 15.2 12.79 l-14.070,-14.140m 14.69 12.29 l-11.340,-11.370m -1.1 -1.09 l -1.41 -1.41 m 16.32 13.92 l -12.8 -12.81 m 13.7 11.3 l-12.060,-12.080m 15.8 13.4 l -11.92 -11.92 m -0.21 -0.21 l -2.53 -2.53 m15.770,13.430l-11.240,-11.300m13.330,10.930l-12.610,-12.630m 14.18 11.79 l -13.46 -13.47 m 14.49 12.09 l -13.88 -13.88 m 16.57 14.17 l -16 -16 m 16.92 14.52 l -14.69 -14.69 m15.480,13.140l -14.6 -14.59 m 15.18 12.77 l -14 -14 m14.620,12.150l -11 -11.05 m 15.16 12.76 l -14 -14.05 m 14.47 12.07 l -12.23 -12.23 m 12.65 10.25 l -11.22 -11.21 m 11.64 9.24 l-10.770,-10.660m 12.8 10.4 l -10.1 -10.1 m 13.28 10.89 l-12.340,-12.310m 13.33 10.93 l -12.64 -12.64 m 13.49 11.08 l -12.91 -12.9 m 13.58 11.18 l-9.390,-9.400m -2.7 -2.7 l -0.94 -0.94 m 15.55 13.14 l -1.47 -1.46 m -0.4 -0.4 l -9.62 -9.62 m 12.35 9.95 l -11.93 -11.93 m 13 10.63 l -12.61 -12.61 m 15.16 12.76 l -14.21 -14.22 m 16.67 14.27 l -14.74 -14.74 m 16.63 14.23 l-13.540,-13.610m 14.39 12 l -13.4 -13.41 m 14.5 12.1 l -13.76 -13.76 m 15.26 12.86 l -14.58 -14.58 m 16 13.62 l -13.42 -13.42 m 14.27 11.87 l -13.4 -13.41 m 14.44 12.05 l -12.94 -13 m 16.28 13.89 l-13.550,-13.510m 15.28 12.88 l -12.41 -12.42 m 13.35 11 l -12.46 -12.45 m 13.33 10.93 l -12.54 -12.54 m 13.38 11 l -12.07 -12.07 m 13.38 11 l -11.81 -11.81 m 13.07 10.67 l-11.890,-11.990m 12.83 10.43 l -12 -12 m 12.21 9.8 l -11 -11 m 11 8.58 l-7.350,-7.310m 7.37 5 l -6.09 -6.09 m 6.09 3.69 l -5.15 -5.16 m 5.15 2.76 l -4.31 -4.32 m 4.31 1.92 l -3.48 -3.48 m 3.48 1.08 l -1.9 -1.9 m 1.9 -0.5 l-0.87 -0.88"/>
    </g>


    <g>
      <path class="graph-line graph-line--orbital graph-line--inactive" d="M32.010,104.320l1.700,2.020,1.700,-1.370,1.700,0.110,1.690,-1.600,1.700,2.050,1.700,1.290,1.700,-3.480,1.700,-0.440,1.690,4.640,1.700,-1.740,1.700,-3.510,1.700,2.950,1.700,-3.000,1.690,1.010,1.700,-0.860,1.700,-0.510,1.700,1.450,1.690,-1.520,1.700,-2.390,1.700,4.400,1.700,-4.470,1.690,0.290,1.700,-0.160,1.700,3.950,1.700,-3.990,1.700,4.000,1.690,-1.100,1.700,0.950,1.700,0.570,1.700,-2.000,1.690,0.600,1.700,3.390,1.700,-3.680,1.700,1.430,1.690,0.810,1.700,1.160,1.700,-0.480,1.700,0.180,1.690,-2.320,1.700,3.330,1.700,0.580,1.700,-0.080,1.700,2.480,1.690,-3.040,1.700,1.050,1.700,-1.340,1.700,-3.070,1.690,1.990,1.700,0.220,1.700,0.590,1.700,-2.140,1.700,3.100,1.690,-2.150,1.700,-0.840,1.700,3.400,1.700,-2.500,1.690,-2.620,1.700,2.750,1.700,0.340,1.700,-1.870,1.690,-0.630,1.700,-0.030,1.700,1.320,1.700,2.210,1.700,-0.810,1.690,1.670,1.700,2.290,1.700,-3.340,1.700,-3.420,1.690,3.380,1.700,1.970,1.700,-4.640,1.700,0.340,1.700,2.340,1.690,0.500,1.700,-0.340,1.700,-1.140,1.700,0.270,1.690,3.130,1.700,-3.720,1.700,0.790,1.700,0.570,1.690,-3.120,1.700,-2.010,1.700,1.360,1.700,-0.870,1.700,-0.640,1.690,3.350,1.700,1.870,1.700,-0.420,1.700,-2.420,1.690,-1.230,1.700,2.110,1.700,-1.160,1.700,-2.280,1.690,1.370,1.700,1.510,1.700,-0.590,1.700,-1.240,1.690,2.550,1.700,-3.060,1.700,-4.230,1.700,1.150,1.700,1.800,1.690,-1.570,1.700,1.670,1.700,2.230,1.700,4.000,1.690,-1.150,1.700,-2.520,1.700,4.790,1.700,-5.700,1.690,0.160,1.700,4.460,1.700,-1.510,1.700,-5.140,1.700,8.870,1.690,0.740,1.700,-4.410,1.700,-0.590,1.700,3.730,1.690,-0.790,1.700,-4.710,1.700,3.180,1.700,2.810"/>
      <path class="graph-line graph-line--solar graph-line--inactive" d="M32.010,106.850l1.700,-1.400,1.700,-2.370,1.700,0.970,1.690,-3.010,1.700,-4.490,1.700,3.150,1.700,3.270,1.700,0.640,1.690,-0.640,1.700,1.970,1.700,-1.120,1.700,-0.280,1.700,-0.600,1.690,-1.860,1.700,-1.250,1.700,1.800,1.700,1.180,1.690,0.380,1.700,-2.080,1.700,3.480,1.700,-0.870,1.690,-0.480,1.700,0.550,1.700,0.420,1.700,-0.590,1.700,3.940,1.690,-2.310,1.700,-0.740,1.700,-0.370,1.700,-1.990,1.690,0.260,1.700,3.470,1.700,-0.240,1.700,-1.280,1.690,0.080,1.700,2.420,1.700,-2.430,1.700,-1.780,1.690,-1.350,1.700,1.060,1.700,2.920,1.700,-1.060,1.700,-4.520,1.690,3.020,1.700,0.290,1.700,-2.440,1.700,5.670,1.690,-3.640,1.700,1.880,1.700,-1.690,1.700,-0.140,1.700,2.140,1.690,-1.100,1.700,1.950,1.700,-3.000,1.700,-2.000,1.690,0.300,1.700,2.190,1.700,0.710,1.700,-1.690,1.690,1.210,1.700,1.290,1.700,-2.670,1.700,2.480,1.700,2.590,1.690,-1.820,1.700,-3.200,1.700,1.760,1.700,-2.300,1.690,-2.750,1.700,4.290,1.700,-3.770,1.700,0.840,1.700,3.820,1.690,-2.210,1.700,-7.150,1.700,1.160,1.700,3.890,1.690,1.260,1.700,1.520,1.700,-3.730,1.700,-0.040,1.690,-0.580,1.700,3.320,1.700,-0.040,1.700,-0.390,1.700,1.930,1.690,-3.780,1.700,1.430,1.700,0.650,1.700,0.200,1.690,-0.980,1.700,0.890,1.700,1.870,1.700,-0.710,1.690,1.180,1.700,-4.220,1.700,4.120,1.700,-0.490,1.690,-0.900,1.700,-0.040,1.700,0.750,1.700,-2.080,1.700,-1.690,1.690,0.330,1.700,2.770,1.700,-2.160,1.700,-1.160,1.690,2.350,1.700,0.450,1.700,1.880,1.700,-3.510,1.690,0.110,1.700,1.700,1.700,-0.240,1.700,-3.120,1.700,4.550,1.690,-3.370,1.700,-0.820,1.700,2.460,1.700,-0.110,1.690,-0.360,1.700,-0.210,1.700,-0.890,1.700,2.960"/>
      <path class="graph-line graph-line--volcanic graph-line--inactive" d="M32.010,98.730l1.700,-2.330,1.700,0.220,1.700,5.060,1.690,25.740,1.700,0.040,1.700,-9.680,1.700,-7.450,1.700,-3.270,1.690,-0.700,1.700,-2.440,1.700,3.760,1.700,-0.410,1.700,-3.880,1.690,-2.360,1.700,-5.320,1.700,0.840,1.700,-0.560,1.690,-0.180,1.700,3.280,1.700,-7.250,1.700,2.650,1.690,3.460,1.700,13.840,1.700,-4.330,1.700,-4.800,1.700,-2.480,1.690,1.160,1.700,-0.360,1.700,-5.190,1.700,1.380,1.690,-2.570,1.700,-0.660,1.700,7.170,1.700,-0.850,1.690,-3.660,1.700,-2.750,1.700,4.190,1.700,-1.640,1.690,1.550,1.700,1.110,1.700,-4.840,1.700,-0.830,1.700,-2.020,1.690,5.660,1.700,-2.830,1.700,0.770,1.700,0.860,1.690,-3.340,1.700,3.150,1.700,-1.220,1.700,3.880,1.700,1.510,1.690,-0.580,1.700,-4.490,1.700,3.070,1.700,0.880,1.690,-1.600,1.700,1.080,1.700,0.330,1.700,-6.990,1.690,5.550,1.700,1.480,1.700,-4.050,1.700,2.720,1.700,0.760,1.690,0.680,1.700,-1.230,1.700,-1.350,1.700,-1.830,1.690,-2.000,1.700,3.370,1.700,2.520,1.700,-4.560,1.700,-1.210,1.690,2.420,1.700,-1.480,1.700,-0.550,1.700,-2.840,1.690,0.500,1.700,4.090,1.700,5.580,1.700,-0.440,1.690,5.520,1.700,7.580,1.700,-0.820,1.700,0.180,1.700,-5.030,1.690,-1.690,1.700,-0.520,1.700,1.020,1.700,-8.370,1.690,-1.100,1.700,-1.530,1.700,2.450,1.700,3.060,1.690,2.140,1.700,-6.620,1.700,1.620,1.700,-1.790,1.690,0.340,1.700,2.450,1.700,5.240,1.700,16.140,1.700,-5.370,1.690,-8.150,1.700,-4.790,1.700,-0.740,1.700,-1.610,1.690,-1.330,1.700,-3.980,1.700,7.580,1.700,24.200,1.690,-5.580,1.700,-8.700,1.700,-8.960,1.700,-6.140,1.700,-1.680,1.690,-2.690,1.700,0.370,1.700,1.990,1.700,-0.120,1.690,-0.410,1.700,-0.840,1.700,-1.450,1.700,-0.290"/>
      <path class="graph-line graph-line--all graph-line--all--natural" d="M32.010,94.040l1.700,-3.080,1.700,0.720,1.700,8.290,1.690,23.880,1.700,-2.650,1.700,-7.590,1.700,-0.520,1.700,-2.030,1.690,-1.950,1.700,1.880,1.700,-1.960,1.700,-2.560,1.700,0.070,1.690,-6.370,1.700,0.240,1.700,-1.960,1.700,-0.010,1.690,1.140,1.700,1.030,1.700,-2.880,1.700,-2.510,1.690,-0.820,1.700,16.790,1.700,-5.040,1.700,-5.630,1.700,2.030,1.690,-3.830,1.700,1.440,1.700,-2.460,1.700,-3.350,1.690,-4.870,1.700,8.520,1.700,5.330,1.700,-7.060,1.690,-4.250,1.700,-2.160,1.700,0.490,1.700,1.100,1.690,0.970,1.700,3.260,1.700,0.610,1.700,0.180,1.700,-1.720,1.690,-0.600,1.700,-6.450,1.700,3.450,1.700,3.100,1.690,1.980,1.700,-0.870,1.700,-1.980,1.700,4.560,1.700,1.160,1.690,-5.710,1.700,-0.870,1.700,-1.000,1.700,3.040,1.690,-2.340,1.700,-2.710,1.700,0.200,1.700,2.830,1.690,-0.380,1.700,3.540,1.700,-1.290,1.700,-5.000,1.700,0.110,1.690,-0.650,1.700,-1.620,1.700,2.370,1.700,-1.910,1.690,-0.130,1.700,1.630,1.700,3.980,1.700,-0.770,1.700,-1.060,1.690,1.830,1.700,-4.470,1.700,1.060,1.700,0.790,1.690,0.240,1.700,-3.380,1.700,1.510,1.700,0.990,1.690,3.590,1.700,14.900,1.700,-1.780,1.700,-5.150,1.700,-5.080,1.690,1.700,1.700,-0.720,1.700,0.130,1.700,-0.810,1.690,-4.980,1.700,-0.590,1.700,-0.230,1.700,4.390,1.690,4.090,1.700,-2.670,1.700,-2.610,1.700,-1.970,1.690,0.230,1.700,-3.750,1.700,10.360,1.700,19.220,1.700,-8.480,1.690,-7.220,1.700,0.140,1.700,-6.590,1.700,-1.150,1.690,-1.170,1.700,-1.360,1.700,7.240,1.700,24.140,1.690,-7.440,1.700,-8.040,1.700,-8.580,1.700,-2.710,1.700,-3.230,1.690,-0.080,1.700,-3.770,1.700,-0.100,1.700,-0.750,1.690,-1.450,1.700,0.860,1.700,-1.970,1.700,-3.500"/>
      <path class="graph-line graph-line--hatched graph-line--all--natural" d="M242.680,98.620l -7.92 -7.92 m -9.46 -9.46 l -0.21 -0.21 m 28 25.65 l -5.93 -5.93 m-4.660,-4.750l -7.25 -7.25 m 19.27 16.87 l -6.91 -6.91 m -5.29 -5.29 l -5.94 -5.95 m18.890,16.530l-7.270,-7.250m-6.000,-6.060l -4.15 -4.15 m 18.68 16.28 l -8.07 -8.07 m -7.19 -7.2 l -2 -2 m 19.22 16.82 l -9.61 -9.61 m 11.07 8.67 l-10.460,-10.430m12.510,10.150l -11.6 -11.61 m 13.14 10.75 l-12.280,-12.290m 13.28 10.88 l-12.450,-12.460m 13.24 10.84 l-11.460,-11.460m12.130,9.700l -11.2 -11.21 m11.200,8.810l-10.500,-10.470m10.500,8.070l -8.75 -8.76 m8.750,6.350l -7 -7 m 7 4.61 l -5.67 -5.67 m5.670,3.260l -3.16 -3.17 m 3.16 0.77 l -2 -2.06 m 2 -0.34 l -1.16 -1.17 m1.160,-1.230l -0.38 -0.39 m-204.360,59.790l -0.86 -0.86 m 1.8 -0.6 l -2 -2 m 2.44 0 l-2.640,-2.570m 3.06 0.66 l -3.25 -3.25 m 3.69 1.29 l -3.87 -3.87 m 4.43 2 l -4.62 -4.62 m 6.34 3.94 l -6.52 -6.52 m 7.61 5.21 l -7.79 -7.8 m 8.9 6.5 l -7.39 -7.39 m -0.1 -0.09 l -1.6 -1.6 m 12 9.58 l -9.36 -9.35 m -1.22 -1.22 l -1.82 -1.83 m -4.61 -4.61 l -0.35 -0.34 m18.470,16.100l -9.67 -9.67 m -2.2 -2.21 l -2.26 -2.26 m -3.14 -3.13 l -1 -1 m19.270,16.880l-10.200,-10.250m-2.800,-2.810l -2.69 -2.69 m -1 -1 l -2.55 -2.56 m20.240,17.860l-10.760,-10.760m -3.45 -3.45 l -6 -6 m 22.17 19.77 l-12.280,-12.280m -4.07 -4.07 l-5.790,-5.820m 22.61 20.21 l-11.740,-11.710m -5.27 -5.26 l-5.730,-5.740m 23.24 20.84 l-10.760,-10.760m -6.93 -6.93 l -5.49 -5.49 m 23.69 21.28 l-10.180,-10.170m -8.2 -8.2 l -5.24 -5.24 m 25.65 23.25 l-11.090,-11.080m -9.51 -9.5 l -5.12 -5.12 m 39.09 36.69 l -0.06 -0.06 m -12.19 -12.2 l -9.32 -9.31 m -12.95 -13 l -4.14 -4.14 m 39.26 36.86 l -0.93 -0.93 m-9.910,-9.890l-10.210,-10.210m-14.690,-14.680l-2.700,-2.670m 39 36.61 l -1.81 -1.8 m -5.8 -5.8 l-13.040,-13.100m 21.29 18.89 l-2.640,-2.640m -4.64 -4.64 l-12.760,-12.760m 20.59 18.2 l -3.49 -3.49 m -3.43 -3.44 l-12.190,-12.190m19.670,17.320l -4.32 -4.32 m -2.2 -2.19 l-12.640,-12.700m 21.55 19.15 l -7 -7 m -0.42 -0.42 l-13.630,-13.630m 21.79 19.39 l-20.880,-20.920m 22.23 19.82 l-20.400,-20.350m 22.37 20 l-9.200,-9.200m -0.33 -0.33 l-11.670,-11.730m 22.18 19.78 l -9.51 -9.52 m -1.22 -1.21 l-7.650,-7.620m 25.31 22.91 l-1.110,-1.140m -5 -5 l-9.760,-9.770m-2.080,-2.000l -5.44 -5.43 m23.860,21.430l-2.580,-2.650m -3.2 -3.21 l -9.93 -9.93 m -2.93 -2.93 l-4.330,-4.280m23.390,21.000l -3.68 -3.67 m -2 -2 l -10 -10 m -3.75 -3.76 l -3.05 -3 m 23 20.55 l -4.76 -4.76 m -0.77 -0.78 l-10.060,-10.060m -4.59 -4.58 l -1.71 -1.71 m 22.58 20.17 l-13.830,-13.830m 14.51 12.11 l-13.770,-13.770m 14.68 12.28 l-12.270,-12.260m 13.32 10.91 l-12.330,-12.330m 21.18 18.78 l -3.55 -3.55 m -0.59 -0.59 l -9.77 -9.77 m -0.05 0 l-6.330,-6.380m 22.23 19.83 l-15.380,-15.380m -1.65 -1.65 l -4.4 -4.4 m 22.67 20.26 l-16.160,-16.150m -3 -3 l-2.720,-2.780m 23.56 21.16 l-17.370,-17.310m -4 -4 l-1.630,-1.580m23.440,21.000l-17.260,-17.280m -5.17 -5.16 l -0.38 -0.39 m 29.29 26.9 l -2 -2 m -3.93 -3.94 l-17.130,-17.130m24.580,22.210l-6.210,-6.210m -0.78 -0.79 l-16.900,-16.910m 29.21 26.8 l -3 -3 m -1.14 -1.14 l -24 -24 m 28.74 26.34 l -27 -27 m 27.53 25.13 l-18.900,-18.890m19.870,17.460l-18.420,-18.390m 20 17.55 l-18.560,-18.530m 22.19 19.78 l -21 -21 m 22 19.56 l-21.460,-21.420m 22.39 20 l-15.560,-15.550m -3.48 -3.47 l -2.84 -2.84 m 29.38 27 l -0.11 -0.11 m -3.07 -3.07 l -0.72 -0.73 m-2.160,-2.220l-12.200,-12.180m -0.55 -0.56 l-2.860,-2.820m 23 20.63 l-17.900,-17.960m-3.670,-3.670l -0.33 -0.33 m22.700,20.330l-18.190,-18.180m 18.75 16.35 l-18.150,-18.170m 18.8 16.41 l-17.470,-17.520m 19.76 17.37 l-15.750,-15.750m -0.47 -0.47 l -2 -2 m 19.78 17.38 l-16.250,-16.300m 19.54 17.13 l -1.85 -1.85 m -0.17 -0.16 l-16.600,-16.540m19.700,17.300l-18.770,-18.780m 25.65 23.25 l -3.15 -3.15 m -1.77 -1.77 l-13.090,-13.090m -1.26 -1.26 l -1.73 -1.73 m-2.500,-2.470l -0.15 -0.15 m25.150,22.710l-18.230,-18.220m 36.5 34.09 l -1.15 -1.14 m-14.520,-14.520l-20.220,-20.220m36.870,34.450l -2.44 -2.43 m-13.540,-13.570l-20.270,-20.250m 36.86 34.46 l -3.35 -3.34 m -11.28 -11.29 l -21 -21 m 36.22 33.83 l -4.25 -4.25 m -7.39 -7.4 l-22.570,-22.560m34.760,32.400l -5.15 -5.15 m -6.24 -6.23 l -22 -22 m 34 31.6 l -6.57 -6.57 m -4.61 -4.61 l-19.590,-19.640m 31.4 29 l-24.860,-24.860m -0.82 -0.81 l -4.5 -4.51 m 33.19 30.79 l-26.250,-26.260m 28.54 26.14 l -10.06 -10.06 m -0.14 -0.14 l-15.190,-15.180m 47.63 45.23 l -0.26 -0.26 m -20.36 -20.36 l-10.520,-10.520m-1.640,-1.620l-14.190,-14.210m 47.37 45 l -0.89 -0.89 m-19.470,-19.480l-10.380,-10.400m -2.72 -2.73 l-13.250,-13.240m 47.11 44.71 l -1.53 -1.53 m -18.62 -18.62 l-10.430,-10.400m -3.64 -3.63 l -9.68 -9.68 m44.320,41.860l -2.16 -2.16 m -10.6 -10.6 l -1.39 -1.39 m -5.59 -5.6 l-10.630,-10.590m -4.53 -4.54 l -7 -7 m 56 53.55 l -0.23 -0.23 m -13.44 -13.43 l -2.8 -2.81 m -9.43 -9.43 l -3.93 -3.92 m-2.190,-2.190l-11.850,-11.810m -5.44 -5.45 l -5.88 -5.88 m 55.59 53.2 l -0.85 -0.86 m -12.8 -12.8 l -3.5 -3.49 m -8.25 -8.26 l-18.270,-18.270m -7.45 -7.44 l -1.54 -1.55 m53.160,50.710l -1.48 -1.48 m -12.16 -12.16 l -4.19 -4.19 m-7.170,-7.070l-18.570,-18.610m 44 41.55 l -2.11 -2.1 m -11.52 -11.53 l -4.9 -4.9 m -5.72 -5.72 l-16.400,-16.360m 41.05 38.65 l -2.72 -2.72 m -9.89 -9.89 l -6.83 -6.83 m -3.49 -3.49 l-15.850,-15.850m 39.19 36.79 l -3.32 -3.32 m -8.81 -8.81 l -5.2 -5.2 m -0.47 -0.47 l -2.52 -2.52 m -1.82 -1.82 l-15.690,-15.690m 38.25 35.85 l -3.92 -3.92 m -8.14 -8.14 l -5.29 -5.29 m -1.1 -1.1 l-2.760,-2.760m -0.6 -0.6 l-15.850,-15.840m 38.07 35.67 l -4.52 -4.52 m -7.47 -7.47 l -5.38 -5.38 m-1.700,-1.730l-18.370,-18.360m 37.86 35.47 l -5.12 -5.12 m -6.45 -6.46 l -5.81 -5.8 m -2.36 -2.37 l-10.230,-10.220m-2.230,-2.270l -4.49 -4.49 m 37.09 34.68 l -3.69 -3.69 m -0.43 -0.42 l -1.58 -1.59 m -4.84 -4.83 l -6.81 -6.81 m -3 -3 l -9 -9.06 m -4.71 -4.71 l -1 -1 m 35.52 33.12 l -3.64 -3.64 m -1 -1.06 l -2.14 -2.13 m -2.68 -2.69 l-7.890,-7.740m -3.72 -3.71 l -7.88 -7.88 m 29.28 26.87 l -3.59 -3.59 m-1.680,-1.630l -2.69 -2.69 m -0.61 -0.61 l-8.660,-8.700m -4.4 -4.4 l -6.67 -6.67 m 28.81 26.4 l -3.66 -3.65 m -2.3 -2.31 l-11.320,-11.320m -5.2 -5.19 l -5.21 -5.22 m 28.61 26.22 l-4.110,-4.160m-3.000,-2.910l -9.27 -9.28 m-7.490,-7.510l -2.65 -2.65 m 27.41 25 l -4.62 -4.62 m -3.52 -3.51 l -8.6 -8.61 m -8.49 -8.49 l -1.43 -1.43 m 27.49 25.09 l-5 -5" transform="translate(-21.74 -2.54)"/>
    </g>
    <line class="cls-8" x1="32.01" y1="103.16" x2="269.69" y2="103.16"/>
    <g id="Layer_5" data-name="Layer 5">
      <line class="cls-1" x1="32.01" y1="103.16" x2="28.62" y2="103.16"/>
      <line class="cls-1" x1="32.01" y1="146.19" x2="28.62" y2="146.19"/>
      <line class="cls-1" x1="32.01" y1="124.67" x2="28.62" y2="124.67"/>
      <line class="cls-1" x1="32.01" y1="81.64" x2="28.62" y2="81.64"/>
      <line class="cls-1" x1="32.01" y1="60.13" x2="28.62" y2="60.13"/>
      <line class="cls-1" x1="32.01" y1="38.61" x2="28.62" y2="38.61"/>
      <line class="cls-1" x1="32.01" y1="17.1" x2="28.62" y2="17.1"/>
      <text class="cls-2" transform="translate(7.36 148.61)">−1.0</text>
      <text class="cls-2" transform="translate(7.36 127.99)">−0.5</text>
      <text class="cls-2" transform="translate(12.61 83.86)">0.5</text>
      <text class="cls-2" transform="translate(12.61 105.19)">0.0</text>
      <text class="cls-2" transform="translate(12.61 62.24)">1.0</text>
      <text class="cls-2" transform="translate(12.61 40.74)">1.5</text>
      <text class="cls-2" transform="translate(12.61 18.99)">2.0</text>
    </g>
    <path class="cls-1" d="M32.01 146.19 L269.69 146.19 269.69 2.47 32.01 2.47 32.01 146.19"/>
  </g>
</svg>
