<svg xmlns="http://www.w3.org/2000/svg" viewBox="0 0 279.42 162.9">
  <defs><style>
    .cls-1,.cls-14,.cls-3,.cls-4,.cls-5,.cls-6,.cls-7,.cls-8{fill:none;stroke-linecap:round;stroke-linejoin:round;}.cls-1{stroke:gray;}.cls-1,.cls-4,.cls-5,.cls-6{stroke-width:0.75px;}.cls-10,.cls-11,.cls-13,.cls-2,.cls-9{font-size:9px;}.cls-2{font-family:ArialMT, Arial;}.cls-3,.cls-8{stroke:#000;}.cls-3,.cls-7{stroke-width:1.5px;}.cls-4{stroke:#8c510a;}.cls-5{stroke:#542788;}.cls-6{stroke:#4d9221;}.cls-14,.cls-7{stroke:#fed976;}.cls-9{fill:#231f20;}.cls-10,.cls-11,.cls-12,.cls-13,.cls-9{font-family:ArialNarrow, Arial Narrow;}.cls-10{fill:#8c510a;}.cls-11{fill:#542788;letter-spacing:-0.02em;}.cls-12{font-size:8px;fill:#4d9221;letter-spacing:-0.03em;}.cls-13{fill:#fed976;}.cls-14{stroke-width:0.38px;} .cls-1,.cls-16,.cls-3,.cls-4,.cls-5,.cls-6,.cls-7,.cls-8,.cls-9{fill:none;stroke-linecap:round;stroke-linejoin:round;}.cls-1{stroke:gray;}.cls-1,.cls-4,.cls-5,.cls-6,.cls-7{stroke-width:0.75px;}.cls-10,.cls-11,.cls-12,.cls-13,.cls-14,.cls-15,.cls-2{font-size:9px;}.cls-2{font-family:ArialMT, Arial;}.cls-3{stroke:#231f20;}.cls-3,.cls-8{stroke-width:1.5px;}.cls-4{stroke:#8c510a;}.cls-5{stroke:#542788;}.cls-6{stroke:#4d9221;}.cls-7{stroke:#feb24c;}.cls-8{stroke:#e31a1c;}.cls-9{stroke:#000;}.cls-10{fill:#231f20;}.cls-10,.cls-11,.cls-12,.cls-13,.cls-14,.cls-15{font-family:ArialNarrow, Arial Narrow;}.cls-11{fill:#8c510a;}.cls-12{fill:#542788;letter-spacing:-0.03em;}.cls-13{fill:#4d9221;}.cls-14{fill:#feb24c;}.cls-15{fill:#e31a1c;}.cls-16{stroke:#fc0000;stroke-width:0.38px;}
    .cls-1,.cls-6,.cls-9{font-size:9px;}.cls-1{font-family:ArialMT, Arial;}.cls-2,.cls-3,.cls-4,.cls-5,.cls-8{fill:none;stroke-linecap:round;stroke-linejoin:round;}.cls-2{stroke:gray;stroke-width:0.75px;}.cls-3{stroke:#231f20;}.cls-3,.cls-4{stroke-width:1.5px;}.cls-4,.cls-8{stroke:#fe8d3c;}.cls-5{stroke:#000;}.cls-6{fill:#231f20;}.cls-6,.cls-9{font-family:ArialNarrow, Arial Narrow;}.cls-7,.cls-9{letter-spacing:-0.02em;}.cls-8{stroke-width:0.38px;}.cls-9{fill:#fe8d3c;}

    .graph-line {
        fill: none;
        stroke-linejoin: round;
        stroke-width: 1px;
    }

    .graph-line--all {
        stroke-width: 1.3px;
    }

    .graph-line--hatched {
        stroke-width: .38px;
    }

    .graph-line--inactive {
        display: none;
    }

    .graph-line--observed {
        stroke-width: 1.5px;
        stroke: #000;
    }

    .graph-line--all--combined {
        stroke: #fe8d3c;
    }

    .graph-line--all--human {
        stroke: #e31a1c;
    }

    .graph-line--aerosols {
        stroke: #8c510a;
    }    

    .graph-line--greenhouse {
        stroke: #542788;
    }    

    .graph-line--land-cover {
        stroke: #4d9221;
    }    

    .graph-line--ozone {
        stroke: #feb24c;
    }    
</style></defs>
  <title>allnatural</title>
  <g id="Layer_4" data-name="Layer 4">
    <g class="labels">
      <path class="cls-1" d="M53.75,149.3v3.39m34-3.39v3.39m34-3.39v3.39m34-3.39v3.39m34-3.39v3.39m34-3.39v3.39m34-3.39v3.39m34-3.39v3.39" transform="translate(-21.74 -2.54)"/>
      <text class="cls-2" transform="translate(21.72 159.98)">1880</text>
      <text class="cls-2" transform="translate(55.68 159.98)">1900</text>
      <text class="cls-2" transform="translate(89.63 159.98)">1920</text>
      <text class="cls-2" transform="translate(123.58 159.98)">1940</text>
      <text class="cls-2" transform="translate(157.54 159.98)">1960</text>
      <text class="cls-2" transform="translate(191.49 159.98)">1980</text>
      <text class="cls-2" transform="translate(225.45 159.98)">2000</text>
      <text class="cls-2" transform="translate(259.4 159.98)">2020</text>
    </g>

    <g>
      <path class="graph-line graph-line--observed" d="M32.010,96.940l1.690,-6.840,1.700,0.390,1.700,6.580,1.700,7.810,1.700,1.940,1.690,0.380,1.700,2.260,1.700,-13.100,1.700,-5.290,1.690,20.390,1.700,-10.330,1.700,2.390,1.700,3.880,1.690,-0.520,1.700,-6.650,1.700,-8.450,1.700,0.060,1.700,12.390,1.690,-7.350,1.700,-7.040,1.700,4.710,1.700,10.910,1.690,7.100,1.700,8.000,1.700,-15.680,1.700,-4.840,1.690,13.030,1.700,3.040,1.700,3.030,1.700,-3.220,1.690,-0.390,1.700,-5.680,1.700,-0.450,1.700,-15.040,1.700,-2.710,1.690,16.010,1.700,8.450,1.700,-12.130,1.700,-1.170,1.690,-0.840,1.700,-6.260,1.700,7.430,1.700,-2.070,1.700,0.840,1.690,-3.620,1.700,-9.030,1.700,8.580,1.700,-0.960,1.690,12.000,1.700,-15.620,1.700,-3.420,1.700,5.040,1.690,10.130,1.700,-12.590,1.700,5.680,1.700,-3.680,1.700,-9.490,1.690,-0.320,1.700,-0.320,1.700,-10.970,1.700,-5.230,1.690,9.870,1.700,-1.350,1.700,-10.330,1.700,9.230,1.700,12.200,1.690,-2.580,1.700,5.230,1.700,0.260,1.700,5.670,1.690,-9.160,1.700,-5.750,1.700,-4.770,1.700,16.780,1.690,-0.070,1.700,4.650,1.700,-19.490,1.700,-2.580,1.700,4.000,1.690,3.550,1.700,-5.940,1.700,0.710,1.700,-1.610,1.690,20.850,1.700,-6.840,1.700,-4.330,1.700,-2.520,1.690,3.680,1.700,-10.840,1.700,3.490,1.700,8.710,1.690,-7.170,1.700,-11.480,1.700,18.330,1.700,-5.360,1.700,6.780,1.690,-21.240,1.700,8.200,1.700,-7.100,1.700,-8.330,1.690,-4.780,1.700,15.370,1.700,-14.080,1.700,11.950,1.690,3.230,1.700,-4.780,1.700,-11.880,1.700,-5.360,1.700,8.520,1.690,-11.620,1.700,2.200,1.700,15.170,1.700,-1.160,1.690,-5.940,1.700,-10.650,1.700,8.520,1.700,-10.260,1.700,-11.820,1.690,17.500,1.700,-0.260,1.700,-10.650,1.700,-6.390,1.690,0.900,1.700,5.360,1.700,-9.810,1.700,4.130,1.690,-1.810,1.700,9.620,1.700,-9.490,1.700,-4.840,1.700,9.290,1.690,-2.770,1.700,-2.200,1.700,-6.900,1.700,-10.130,1.690,-9.560,1.700,7.230"/>
    </g>
    <g>
      <path class="graph-line graph-line--all graph-line--all--combined" d="M32,99.74l 1.7 -3.91 l 1.7 1.86 l 1.7 4.3 l1.700,25.280l 1.69 -3.2 l 1.7 -4.58 l 1.7 -4.64 l 1.7 -5 l 1.69 -1.32 l 1.7 -0.42 l 1.7 4 l 1.7 0.09 l 1.69 -11.27 l 1.7 -4.49 l 1.7 -2.43 l 1.7 4.16 l 1.7 1 l 1.69 -2.93 l 1.7 -0.41 l 1.7 0.13 l 1.7 -2.88 l 1.69 3.08 l1.700,14.110l 1.7 -2.32 l1.700,-3.680l 1.69 -8.19 l 1.7 1.27 l 1.7 -0.29 l 1.7 -3.67 l 1.7 1.09 l 1.69 -4.3 l 1.7 6 l 1.7 6.84 l 1.7 -4.08 l 1.69 -3.33 l 1.7 -2 l 1.7 -3.82 l 1.7 1.47 l 1.7 -1.72 l 1.69 0.62 l 1.7 2.53 l 1.7 -2.6 l 1.7 -3.64 l 1.69 1.18 l 1.7 0.69 l 1.7 2.42 l 1.7 -3.67 l 1.69 0.06 l 1.7 2 l 1.7 -2.23 l 1.7 -0.14 l 1.7 0.12 l 1.69 0.84 l 1.7 -4.29 l 1.7 3.13 l 1.7 -1.31 l 1.69 -2.45 l 1.7 -1.81 l 1.7 0.25 l 1.7 -0.82 l 1.69 -4.68 l 1.7 2 l 1.7 1.83 l 1.7 2.61 h 1.7 l 1.69 2.25 l 1.7 -1.64 l 1.7 -1.39 l 1.7 1.49 l 1.69 -0.23 l 1.7 2.91 l 1.7 1.48 l1.710,-1.780l 1.69 1.35 l 1.7 -4.44 l 1.7 1.21 l 1.7 -2.25 l 1.7 -3.48 l 1.69 0.84 l 1.7 3.57 l 1.7 -5.05 l 1.7 -0.27 l1.720,5.220l 1.7 14.29 l 1.7 -1.05 l 1.7 -4.91 l 1.69 -3.72 l 1.7 -3.52 l 1.7 0.81 l 1.7 -3.83 l 1.7 -2.76 l 1.69 -3.21 l 1.7 -1.53 l 1.7 -0.19 l 1.7 3.95 l 1.69 -4 l 1.7 -4.48 l 1.7 -0.47 l 1.7 -2.56 l 1.7 -2 l 1.69 -4.46 l 1.7 9.57 l 1.7 11.88 l 1.7 -7.16 l 1.69 -5.66 l1.650,-1.690l 1.7 -5.23 l 1.7 -1.82 l 1.69 -2.17 l 1.7 -4.29 l 1.7 3.52 l 1.7 22.1 l 1.7 -5.53 l 1.69 -7.35 l 1.7 -9.88 l 1.7 -1.49 l 1.7 -2.57 l 1.69 -7.21 l 1.7 -2.94 l 1.7 -3.11 l 1.7 -0.92 l 1.69 -1.11 l 1.7 -1 l 1.7 -2.68 l 1.7 1.48 m 0 0.41 l 1.7 -1.48 l 1.69 -1.08 l 1.7 -0.27 l 1.7 1.32 l 1.7 -6.36 l 1.69 -1.76 l 1.7 1.93 l 1.7 -0.55 l 1.7 -0.39 l 1.69 -3 l 1.7 -0.46 l1.7 -2.48"/>
      <path class="graph-line graph-line--hatched graph-line--all--combined" d="M230.8,60.32l -5.44 -5.43 m -4.49 -4.49 l -4.22 -4.23 m 14.6 12.21 l -5.49 -5.51 m -5.08 -5.08 l -3.21 -3.2 m 14.24 11.84 l -5.6 -5.6 m -5.63 -5.63 l -2.33 -2.32 m 14 11.61 l -5.71 -5.71 m 6.44 4 l -6.09 -6.09 m 7 4.56 l -6.61 -6.61 m 7.47 5.07 l -6.4 -6.4 m 7.24 4.85 l -6.11 -6.12 m 7.46 5.06 l -6.51 -6.5 m 8 5.59 l-7.380,-7.330m 8.86 6.45 l -8.4 -8.4 m 9.72 7.32 l -9.26 -9.26 m 10.19 7.79 l -9.74 -9.73 m 12.51 10.09 l -11.64 -11.63 m 13.11 10.7 l-12.240,-12.220m13.750,11.300l-12.860,-12.860m 16.16 13.77 l -15.3 -15.3 m 15.8 13.4 l -14.24 -14.25 m 14.75 12.36 l -13.29 -13.3 m 13.8 11.4 l -12.31 -12.31 m 13.33 10.93 l -12.19 -12.19 m 15.44 13.05 l-14.550,-14.520m 16.39 14 l -13.46 -13.46 m 14.75 12.35 l-13.280,-13.290m 14.14 11.74 l-12.420,-12.420m 14 11.54 l -11.19 -11.18 m 12.39 10 l -11.88 -11.89 m12.800,10.430l -12.35 -12.35 m 12.35 9.95 l -11.78 -11.79 m 11.78 9.39 l-10.640,-10.590m 10.61 8.2 l -7.15 -7.15 m 7.15 4.75 l -5.22 -5.22 m 5.22 2.82 l -4.29 -4.28 m 4.29 1.88 l -3.42 -3.42 m 3.42 1 l-1.610,-1.620m 1.63 -0.76 l -0.66 -0.66 m-224.970,127.970l -0.21 -0.21 m 1 -1.36 l -1.21 -1.21 m 2 -0.38 l -2.19 -2.19 m 2.83 0.44 l -3 -3 m3.780,1.240l -3.83 -3.83 m 4.48 2.08 l-4.650,-4.650m 5.29 2.89 l -5.47 -5.47 m 6.12 3.71 l -6.28 -6.28 m 6.88 4.49 l -7.06 -7.06 m 7.67 5.26 l -5.81 -5.81 m -0.53 -0.53 l -1.5 -1.5 m-4.850,-4.750l -0.51 -0.51 m 13.83 11.42 l -5.66 -5.66 m -1.53 -1.53 l -2 -2 m -3.37 -3.38 l -1.14 -1.13 m 15.09 12.68 l -6.28 -6.27 m -2.45 -2.46 l -6.34 -6.34 m 20.44 18 l -3.42 -3.42 m -0.12 -0.11 l -7.46 -7.47 m -3.27 -3.27 l -6.19 -6.18 m 20.77 18.36 l-10.690,-10.680m-4.090,-4.050l -6.22 -6.22 m 21.28 18.88 l-10.330,-10.370m -4.91 -4.91 l-5.890,-5.930m 21.5 19.09 l -10 -10 m -5.73 -5.73 l -5.67 -5.67 m 21.71 19.31 l -9.68 -9.68 m -6.53 -6.53 l -5.5 -5.5 m 22 19.63 l -9.4 -9.4 m -7.31 -7.31 l -5.52 -5.52 m 22.83 20.43 l -9.39 -9.39 m -8.09 -8.09 l -4.5 -4.51 m 22.64 20.25 l -9.13 -9.13 m-10.160,-10.150l -2.65 -2.64 m 22.66 20.26 l -4.77 -4.77 m -1 -1 l -2.66 -2.66 m 24.13 21.72 l -0.91 -0.9 m -9.73 -9.74 l-2.860,-2.820m -1.21 -1.2 l -4.46 -4.47 m 20.19 17.8 l -2.24 -2.25 m-8.560,-8.570l -9.11 -9.11 m 20.64 18.25 l -3.33 -3.34 m -7 -7 l -10 -10 m21.120,18.690l -4.42 -4.41 m-4.400,-4.390l -12 -12 m 21.26 18.86 l -5.23 -5.23 m -2.85 -2.85 l-12.810,-12.840m 21.36 19 l-7.230,-7.250m -0.39 -0.39 l-13.380,-13.390m 21.41 19 l-20.750,-20.740m 21.16 18.76 l -20.5 -20.51 m 23.31 20.91 l-22.460,-22.460m 23.68 21.29 l -8 -8 m -1.34 -1.33 l -9.35 -9.36 m -3.68 -3.67 l -0.36 -0.37 m 31.11 28.71 l -0.89 -0.88 m -6.77 -6.78 l-7.800,-7.760m -2.58 -2.59 l-8.110,-8.130m 26.9 24.49 l -2.39 -2.39 m -3.73 -3.73 l -9.29 -9.28 m -3.67 -3.68 l -6.25 -6.25 m 26.05 23.65 l -4 -4 m -2.19 -2.19 l -9.24 -9.23 m -4.73 -4.74 l-3.650,-3.650m 24.62 22.21 l-5.740,-5.730m -0.56 -0.56 l -9.5 -9.5 m-5.470,-5.420l-2.470,-2.520m 24.57 22.17 l -16.22 -16.22 m 17.34 14.93 l -16.93 -16.92 m 17.83 15.42 l -17.41 -17.41 m 18.14 15.75 l -14.82 -14.82 m 17.27 14.87 l -16.46 -16.46 m17.690,15.210l -9.25 -9.25 m -1.36 -1.37 l -6.28 -6.27 m 21.2 18.79 l -12.85 -12.85 m -2.87 -2.86 l-3.280,-3.190m 19.92 17.52 l -13 -13 m -4.54 -4.53 l-1.690,-1.740m 20 17.63 l -13 -13 m -6.29 -6.29 l 0 0 m 20.11 17.71 l-12.880,-12.900m 18.44 16 l -17.33 -17.33 m 18.09 15.69 l -17.31 -17.31 m18.170,15.830l -17.45 -17.45 m 21.21 18.81 l-18.600,-18.640m 19.66 17.26 l-18.280,-18.260m 20.39 18 l -16.35 -16.35 m 19.52 17.12 l -18.61 -18.61 m19.290,16.840l -18.52 -18.52 m 21.45 19 l -0.86 -0.85 m -1.38 -1.39 l-18.470,-18.360m 22 19.63 l -16.44 -16.43 m 17.44 15 l -16.68 -16.68 m 17.7 15.29 l -16.27 -16.27 m 17.43 15 l -14.13 -14.13 m 16.37 14 l -15.1 -15.1 m16.680,14.250l -14.23 -14.23 m 14.87 12.46 l -12.31 -12.3 m 18.46 16.05 l -0.19 -0.19 m -5.32 -5.31 l-12.280,-12.270m21.780,19.350l -18.64 -18.64 m -2.2 -2.19 l -0.26 -0.26 m22.320,19.950l -18.62 -18.62 m 19.94 17.54 l -19 -19 m 26.37 24 l-3.690,-3.780m -0.09 -0.09 l -21.4 -21.4 m 26.44 24.05 l -25.15 -25.16 m 27.45 25.06 l-25.250,-25.220m 25.87 23.47 l-24.680,-24.710m 26.91 24.52 l -26.27 -26.28 m 40.89 38.48 l -1.28 -1.28 m -12.3 -12.3 l -20.6 -20.59 m -2.39 -2.4 l -3.68 -3.67 m 41.24 38.84 l -2.6 -2.6 m -11 -11 l-17.950,-17.920m 32.17 29.77 l-3.550,-3.570m -9.92 -9.93 l -17.43 -17.43 m 31.51 29.11 l -4.48 -4.48 m -5.2 -5.2 l -1.78 -1.79 m -1 -0.95 l -16.1 -16.1 m 29.25 26.85 l -5.53 -5.54 m -4.27 -4.27 l -13.75 -13.75 m 24.3 21.91 l -7 -7 m -2.95 -3 l -11.72 -11.71 m 22.44 20 l -21.77 -21.78 m22.620,20.270l -21.9 -21.9 m24.060,21.690l -8.45 -8.46 m -0.06 -0.05 l -13.22 -13.23 m 22.47 20.07 l -7.71 -7.71 m -1.86 -1.86 l-11.860,-11.860m 22.17 19.77 l -7.73 -7.74 m-2.910,-2.930l -10.68 -10.67 m 22.17 19.77 l -8 -8 m -3.83 -3.84 l -9.57 -9.56 m 22.3 19.9 l -8.26 -8.26 m -4.8 -4.8 l -4.9 -4.91 m 18.8 16.41 l -8.35 -8.35 m-5.880,-5.830l -4 -4 m 19 16.63 l -8.42 -8.42 m -7.62 -7.61 l -2.17 -2.17 m 19.39 17 l -8.83 -8.82 m 13.34 10.94 l -1.57 -1.57 m-1.120,-1.260l -9.74 -9.73 m 13.28 10.88 l -11.1 -11.11 m11.770,9.380l-11.070,-11.000m 11.72 9.33 l -11 -11 m 22.24 19.84 l -0.37 -0.37 m -10.23 -10.23 l -10.73 -10.72 m 21.79 19.37 l-1.210,-1.220m-8.350,-8.360l -11.33 -11.33 m21.330,18.950l-2.000,-2.090m -6.77 -6.77 l -11.66 -11.66 m 21 18.57 l -2.95 -2.95 m -5.41 -5.4 l -11.73 -11.73 m20.520,18.210l -3.9 -3.9 m -3.88 -3.88 l -11.58 -11.57 m 19.91 17.51 l -5 -5 m -2.47 -2.48 l-8.080,-8.120m 16.11 13.72 l -6 -6 m -1.29 -1.3 l -8.07 -8.06 m 27.5 25.09 l 0 0 m -11.07 -11.06 l -7.55 -7.55 m -0.11 -0.12 l -8 -8 m 27.38 25 l -0.81 -0.81 m-9.920,-9.910l -16.09 -16.09 m 27.28 24.88 l -1.57 -1.57 m -9 -9 l -5.49 -5.49 m -0.64 -0.64 l -9.88 -9.88 m 27.18 24.78 l -2.33 -2.33 m -8.25 -8.25 l -5.62 -5.61 m -1.5 -1.51 l -7.69 -7.69 m25.800,23.400l -3 -3 m -7.25 -7.25 l -6 -6 m -2.36 -2.36 l -6.33 -6.33 m25.390,22.940l -3.63 -3.63 m -5.89 -5.89 l -6.65 -6.65 m -3.23 -3.23 l -4.92 -4.93 m 24.77 22.38 l-4.270,-4.250m -4.63 -4.63 l-7.170,-7.170m-4.200,-4.230l -3.37 -3.37 m 24.1 21.7 l -4.9 -4.9 m -3.48 -3.49 l -7.55 -7.55 m -5.32 -5.31 l -2.09 -2.09 m 23.7 21.29 l -5.46 -5.45 m-2.630,-2.600l -7.68 -7.68 m -6.38 -6.39 l-0.940,-0.930m 23.39 21 l -4 -4 m -0.28 -0.29 l -2.88 -2.88 m -0.58 -0.58 l -7.16 -7.16 m15.260,12.910l-3.750,-3.820m -1.06 -1.05 l -9.57 -9.57 m 14.75 12.35 l -3.56 -3.56 m -1.81 -1.82 l -8.79 -8.79 m 14.94 12.54 l -3.81 -3.82 m -2.54 -2.53 l -8 -8 m 15.58 13.18 l -4.6 -4.59 m -3.18 -3.19 l -6.82 -6.82 m 15.56 13.16 l -5.1 -5.11 m -3.84 -3.83 l-5.49 -5.48"/>
    </g>

    <g transform="translate(.66 -2.94)">
      <path class="graph-line graph-line--aerosols graph-line--inactive" d="M31.350,109.490l1.700,-5.010,1.700,0.550,1.690,-2.220,1.700,5.880,1.700,-0.920,1.700,-2.810,1.690,2.740,1.700,2.750,1.700,-1.920,1.700,-3.720,1.700,-0.430,1.690,3.660,1.700,-4.360,1.700,1.640,1.700,1.670,1.700,-1.040,1.690,-0.040,1.700,1.120,1.700,-3.610,1.700,1.960,1.690,1.640,1.700,-1.750,1.700,-1.350,1.700,2.970,1.690,-2.070,1.700,0.800,1.700,1.580,1.700,0.360,1.690,-2.620,1.700,0.060,1.700,-0.650,1.700,-0.570,1.700,0.830,1.690,-0.990,1.700,-0.430,1.700,3.340,1.700,-2.500,1.690,2.950,1.700,-0.310,1.700,-7.900,1.700,9.840,1.700,-3.560,1.690,0.740,1.700,-1.920,1.700,1.680,1.700,2.430,1.690,-1.100,1.700,1.470,1.700,-2.760,1.700,3.490,1.690,-1.710,1.700,3.500,1.700,-1.350,1.700,-2.320,1.690,2.690,1.700,0.850,1.700,0.410,1.700,-2.710,1.700,0.160,1.690,0.490,1.700,1.660,1.700,-1.260,1.700,-0.270,1.690,1.960,1.700,-0.400,1.700,-0.090,1.700,-1.440,1.690,3.310,1.700,1.030,1.700,-0.290,1.700,0.980,1.700,-0.520,1.690,0.750,1.700,3.460,1.700,-2.110,1.700,1.610,1.690,0.040,1.700,0.810,1.700,0.110,1.700,-0.010,1.700,-0.440,1.690,-0.770,1.700,0.750,1.700,1.500,1.700,0.790,1.690,-0.220,1.700,0.860,1.700,-0.350,1.700,-1.310,1.700,1.630,1.690,-0.510,1.700,0.900,1.700,2.110,1.700,-2.260,1.690,2.980,1.700,2.990,1.700,-3.120,1.700,-0.660,1.690,6.840,1.700,1.380,1.700,2.950,1.700,-5.090,1.700,0.190,1.690,4.760,1.700,-3.010,1.700,2.090,1.700,0.430,1.690,0.910,1.700,-0.260,1.700,-3.090,1.700,2.740,1.690,-1.340,1.700,3.170,1.700,1.230,1.700,-3.160,1.690,2.450,1.700,-0.790,1.700,0.760,1.700,-1.830,1.700,1.160,1.690,4.230,1.700,-4.180,1.700,-0.840,1.700,0.980,1.690,1.590"/>
      <path class="graph-line graph-line--greenhouse graph-line--inactive" d="M31.350,107.530l1.700,1.060,1.700,3.050,1.690,-3.660,1.700,0.950,1.700,0.970,1.700,-2.350,1.690,-3.230,1.700,2.780,1.700,3.460,1.700,1.200,1.700,-3.740,1.690,-1.880,1.700,1.870,1.700,-2.760,1.700,-1.290,1.700,1.040,1.690,1.500,1.700,1.900,1.700,-3.300,1.700,0.060,1.690,2.320,1.700,-6.800,1.700,5.770,1.700,-3.890,1.690,-3.070,1.700,3.580,1.700,-3.090,1.700,3.880,1.690,1.280,1.700,-2.180,1.700,-0.520,1.700,-2.000,1.700,-3.390,1.690,4.200,1.700,-1.450,1.700,2.700,1.700,0.030,1.690,-2.670,1.700,-2.400,1.700,3.810,1.700,-1.990,1.700,-0.770,1.690,-1.490,1.700,1.440,1.700,-2.050,1.700,-2.480,1.690,1.870,1.700,0.820,1.700,-8.100,1.700,6.140,1.690,0.150,1.700,-4.500,1.700,-2.290,1.700,3.030,1.690,1.240,1.700,-3.320,1.700,0.910,1.700,-1.890,1.700,2.370,1.690,0.580,1.700,-3.500,1.700,-0.420,1.700,-1.650,1.690,1.050,1.700,1.860,1.700,-3.780,1.700,-4.590,1.690,5.120,1.700,-1.160,1.700,3.010,1.700,1.580,1.700,-4.690,1.690,2.210,1.700,-3.740,1.700,4.290,1.700,-0.470,1.690,-5.910,1.700,1.410,1.700,1.590,1.700,-5.770,1.700,1.540,1.690,-2.800,1.700,0.010,1.700,-1.790,1.700,4.170,1.690,-0.780,1.700,-2.890,1.700,-3.630,1.700,-3.710,1.700,-0.300,1.690,-4.850,1.700,-1.920,1.700,1.850,1.700,-0.820,1.690,1.010,1.700,-3.400,1.700,-0.270,1.700,-0.160,1.690,-4.630,1.700,2.960,1.700,-3.140,1.700,-1.710,1.700,-0.490,1.690,0.010,1.700,-3.610,1.700,-0.950,1.700,0.430,1.690,-6.450,1.700,2.450,1.700,-2.730,1.700,1.310,1.690,-4.020,1.700,-2.190,1.700,-2.470,1.700,0.420,1.690,1.550,1.700,-2.600,1.700,-0.610,1.700,0.800,1.700,-3.180,1.690,-3.300,1.700,-3.280,1.700,-0.030,1.700,-1.580,1.690,-2.830"/>
      <path class="graph-line graph-line--land-cover graph-line--inactive" d="M31.350,105.000l1.700,4.090,1.700,-2.590,1.690,-1.520,1.700,1.350,1.700,-3.800,1.700,0.870,1.690,-0.150,1.700,0.250,1.700,0.080,1.700,4.230,1.700,-0.650,1.690,-1.270,1.700,-1.370,1.700,2.580,1.700,-0.520,1.700,0.500,1.690,1.040,1.700,2.770,1.700,-0.550,1.700,-2.700,1.690,2.270,1.700,-1.770,1.700,-1.800,1.700,0.760,1.690,-1.060,1.700,-1.620,1.700,-1.790,1.700,1.240,1.690,-0.040,1.700,1.670,1.700,3.160,1.700,-2.240,1.700,-0.630,1.690,-1.350,1.700,2.780,1.700,-2.700,1.700,-3.720,1.690,0.700,1.700,3.730,1.700,-2.810,1.700,5.330,1.700,-0.360,1.690,-2.200,1.700,-0.140,1.700,2.010,1.700,-3.410,1.690,8.720,1.700,-6.730,1.700,-1.190,1.700,5.080,1.690,-2.780,1.700,0.290,1.700,-3.240,1.700,-0.070,1.690,4.660,1.700,-1.500,1.700,3.850,1.700,-4.560,1.700,-2.970,1.690,2.000,1.700,2.100,1.700,2.800,1.700,-3.380,1.690,2.160,1.700,0.250,1.700,-0.650,1.700,-2.120,1.690,3.230,1.700,0.970,1.700,-0.530,1.700,-0.480,1.700,-2.560,1.690,3.110,1.700,-0.800,1.700,0.850,1.700,3.590,1.690,-3.820,1.700,0.230,1.700,-2.440,1.700,1.580,1.700,0.420,1.690,1.550,1.700,0.130,1.700,-0.860,1.700,4.500,1.690,-0.460,1.700,-1.440,1.700,-1.100,1.700,0.070,1.700,1.230,1.690,1.380,1.700,-1.020,1.700,1.580,1.700,0.570,1.690,-5.970,1.700,-0.740,1.700,5.210,1.700,-2.850,1.690,-0.960,1.700,3.380,1.700,-2.580,1.700,1.180,1.700,4.000,1.690,2.350,1.700,-2.170,1.700,-2.840,1.700,2.500,1.690,-4.930,1.700,-0.490,1.700,1.870,1.700,0.410,1.690,-2.990,1.700,2.380,1.700,1.020,1.700,-0.030,1.690,-1.180,1.700,1.690,1.700,1.660,1.700,1.110,1.700,-2.240,1.690,0.720,1.700,-2.960,1.700,1.230,1.700,1.970,1.690,-1.710"/>
      <path class="graph-line graph-line--ozone graph-line--inactive" d="M31.350,107.950l1.700,0.360,1.700,0.720,1.690,-0.970,1.700,0.230,1.700,-1.330,1.700,0.610,1.690,0.950,1.700,-2.260,1.700,-0.070,1.700,2.120,1.700,-0.590,1.690,-1.330,1.700,-0.700,1.700,-2.430,1.700,1.610,1.700,1.080,1.690,0.830,1.700,-1.750,1.700,2.290,1.700,0.930,1.690,-0.930,1.700,-1.950,1.700,-0.440,1.700,-0.900,1.690,-0.840,1.700,-0.170,1.700,-0.590,1.700,0.460,1.690,0.490,1.700,2.400,1.700,-1.710,1.700,-1.080,1.700,1.440,1.690,0.580,1.700,-1.870,1.700,-2.790,1.700,0.840,1.690,0.340,1.700,5.260,1.700,0.530,1.700,-4.580,1.700,3.160,1.690,-5.540,1.700,4.060,1.700,-0.680,1.700,1.020,1.690,-1.600,1.700,0.050,1.700,3.950,1.700,-2.460,1.690,-0.820,1.700,-0.680,1.700,-0.080,1.700,-1.430,1.690,1.820,1.700,1.130,1.700,-3.010,1.700,-1.620,1.700,3.540,1.690,1.220,1.700,-3.290,1.700,0.990,1.700,-2.100,1.690,-1.680,1.700,-0.180,1.700,1.580,1.700,-0.740,1.690,2.620,1.700,-3.690,1.700,2.220,1.700,1.970,1.700,0.440,1.690,-3.010,1.700,3.180,1.700,-0.210,1.700,-2.480,1.690,-2.820,1.700,0.540,1.700,1.650,1.700,0.610,1.700,-2.010,1.690,0.680,1.700,3.090,1.700,-0.790,1.700,-1.900,1.690,0.690,1.700,-0.970,1.700,-2.390,1.700,2.070,1.700,2.440,1.690,-2.480,1.700,0.250,1.700,-0.940,1.700,2.460,1.690,1.120,1.700,-2.000,1.700,-0.700,1.700,3.480,1.690,-2.520,1.700,-4.850,1.700,2.840,1.700,-3.690,1.700,0.830,1.690,2.420,1.700,-0.880,1.700,1.950,1.700,-0.470,1.690,-2.760,1.700,3.440,1.700,-0.020,1.700,-1.830,1.690,-2.370,1.700,0.970,1.700,-1.250,1.700,0.470,1.690,-1.850,1.700,5.810,1.700,-0.840,1.700,-1.440,1.700,3.330,1.690,-0.940,1.700,-2.110,1.700,3.250,1.700,0.250,1.690,-2.910"/>
      <path class="graph-line graph-line--all graph-line--all--human" d="M31.350,108.680l1.700,-3.660,1.700,6.550,1.690,-2.360,1.700,-5.370,1.700,0.020,1.700,-2.520,1.690,0.830,1.700,4.310,1.700,0.000,1.700,-3.840,1.700,2.390,1.690,-0.230,1.700,-1.500,1.700,0.780,1.700,4.250,1.700,-0.780,1.690,4.390,1.700,-2.880,1.700,-2.150,1.700,-1.240,1.690,0.450,1.700,-0.120,1.700,-1.920,1.700,3.160,1.690,1.570,1.700,2.510,1.700,-6.510,1.700,0.260,1.690,-2.410,1.700,2.350,1.700,-2.860,1.700,5.100,1.700,-1.240,1.690,-3.160,1.700,2.050,1.700,-1.060,1.700,3.260,1.690,-2.980,1.700,-3.200,1.700,1.280,1.700,-0.050,1.700,-0.970,1.690,-2.060,1.700,2.050,1.700,-4.720,1.700,0.150,1.690,3.120,1.700,-1.400,1.700,-1.420,1.700,2.840,1.690,-1.710,1.700,-0.610,1.700,0.960,1.700,-0.200,1.690,-0.820,1.700,-0.540,1.700,-1.980,1.700,2.740,1.700,1.410,1.690,-2.740,1.700,-4.190,1.700,3.980,1.700,4.840,1.690,-2.900,1.700,-1.560,1.700,-5.500,1.700,-0.010,1.690,3.230,1.700,3.140,1.700,-3.010,1.700,-0.020,1.700,0.420,1.690,1.110,1.700,-0.380,1.700,2.180,1.700,1.920,1.690,-0.900,1.700,-2.130,1.700,-1.740,1.700,-0.990,1.700,-3.360,1.690,3.870,1.700,-2.350,1.700,-0.430,1.700,-2.560,1.690,4.140,1.700,-0.120,1.700,-3.950,1.700,-5.060,1.700,1.390,1.690,-2.830,1.700,0.350,1.700,1.480,1.700,-1.960,1.690,0.170,1.700,-0.900,1.700,-2.550,1.700,1.800,1.690,-2.610,1.700,-5.330,1.700,2.850,1.700,1.710,1.700,-7.950,1.690,0.120,1.700,-1.080,1.700,1.870,1.700,-2.430,1.690,-4.310,1.700,2.170,1.700,-3.010,1.700,-0.240,1.690,0.450,1.700,-0.190,1.700,0.660,1.700,-3.460,1.690,-1.180,1.700,-0.740,1.700,-3.070,1.700,-1.090,1.700,1.770,1.690,-0.080,1.700,-2.660,1.700,-3.190,1.700,-0.750,1.690,-2.640"/>
      <path class="graph-line graph-line--hatched graph-line--all--human" d="M31.400,119.01l -0.23 -0.23 m 4.42 2 l -1.55 -1.56 m -1.88 -1.88 l -0.84 -0.84 m5.210,2.810l-3.330,-3.300m -0.28 -0.29 l -1.57 -1.56 m 5.76 3.36 l -5.86 -5.86 m 6.44 4 l -6.44 -6.45 m 7.4 5 l -7.48 -7.48 m 9.16 6.76 l -9.08 -9.09 m 14.84 12.45 l -1.91 -1.91 m-2.880,-2.830l-10.050,-10.060m15.950,13.560l-15.850,-15.850m 16.59 14.18 l -13 -13 m -0.3 -0.3 l -3 -3 m 20 17.58 l -15.71 -15.7 m -2.14 -2.14 l -1.37 -1.38 m28.180,25.770l -0.94 -0.94 m -2.3 -2.31 l -1 -1 m -3.39 -3.4 l-16.250,-16.200m24.730,22.390l-24.160,-24.210m 25.14 22.73 l-24.560,-24.520m 25.61 23.22 l -24 -24.06 m 25.4 23 l-24.280,-24.230m 26.68 24.28 l-20.580,-20.620m -3 -3 l -1.78 -1.78 m 27.23 24.83 l -21.69 -21.7 m 28.44 26 l -5.12 -5.12 m -0.5 -0.5 l-20.090,-20.040m -0.61 -0.61 l -1.41 -1.41 m 28.2 25.8 l -24.3 -24.31 m 24.8 22.41 l -16 -16 m -1.71 -1.71 l -1.3 -1.29 m -2 -2 l -2.49 -2.48 m 24.84 22.44 l-16.470,-16.500m17.860,15.500l-16.840,-16.870m 19.8 17.4 l-18.670,-18.650m 22.94 20.55 l -2.15 -2.16 m -1.22 -1.22 l-18.180,-18.170m 22.61 20.21 l-19.860,-19.890m 20.7 18.28 l-13.190,-13.180m -0.49 -0.49 l -5.56 -5.56 m 24.88 22.48 l-0.770,-0.850m -1.71 -1.71 l-15.860,-15.780m 19.21 16.81 l-18.710,-18.710m 19.57 17.17 l-19.070,-19.080m 19.9 17.51 l -18 -18 m 20.46 18.07 l -19.47 -19.47 m21.560,19.190l -15.59 -15.59 m -0.39 -0.4 l -2.65 -2.64 m20.060,17.630l -15.63 -15.63 m -3 -3 l -0.56 -0.55 m 20.25 17.85 l -15.84 -15.84 m 18.42 16 l -15.73 -15.72 m -0.66 -0.66 l -1.19 -1.2 m 18.21 15.82 l -12.55 -12.56 m -1.93 -1.93 l -0.39 -0.39 m 18.93 16.53 l -0.37 -0.37 m -2.77 -2.76 l-12.580,-12.590m17.080,14.650l -16.21 -16.22 m 17.52 15.12 l-16.710,-16.680m 20.2 17.81 l -17.23 -17.25 m 18.75 16.35 l -16.95 -16.94 m 20 17.57 l -18.69 -18.69 m 20.57 18.18 l -17.7 -17.7 m -1.63 -1.63 l -0.16 -0.17 m 21.2 18.81 l -18.77 -18.77 m 20.23 17.82 l -19.59 -19.59 m 24.38 22 l-3.630,-3.670m -0.08 -0.07 l -16.42 -16.43 m -1.71 -1.7 l -1 -1 m 23.75 21.34 l-19.720,-19.680m 25.54 23.14 l -0.57 -0.57 m -4.44 -4.44 l-16.930,-16.940m -1.41 -1.41 l -0.88 -0.87 m 25.12 22.71 l -2.75 -2.75 m -2.45 -2.45 l -16.43 -16.43 m 22.65 20.24 l -5.53 -5.52 m 0 0 l -15.43 -15.43 m 22.21 19.8 l-19.100,-19.050m 19.63 17.23 l-17.880,-17.920m 18.48 16.08 l -16.71 -16.7 m 22.82 20.42 l -1.91 -1.91 m -3.64 -3.64 l -16 -16 m 22.46 20.05 l -17.72 -17.72 m 19.42 17 l -18.51 -18.5 m 22.4 20 l -16.58 -16.59 m-1.260,-1.290l -3.81 -3.81 m 27.39 25 l -21.43 -21.44 m -3.58 -3.58 l -1.69 -1.69 m 28.07 25.67 l -21.68 -21.68 m22.730,20.350l -21.69 -21.7 m 22.86 20.47 l -22.3 -22.3 m 23.61 21.21 l -23 -23 m 24.37 22 l -18.16 -18.17 m -3.05 -3 l -2 -2 m26.360,23.940l -0.17 -0.17 m -2.27 -2.27 l -18.1 -18.1 m21.540,19.150l-19.200,-19.240m 20.59 18.19 l -17 -16.95 m 18.4 16 l -12.78 -12.79 m 17.35 15 l -2.87 -2.87 m -0.74 -0.74 l -12.54 -12.54 m 16.91 14.51 l -15.83 -15.83 m 16.55 14.15 l -15.37 -15.36 m 16 13.61 l -14.6 -14.59 m 15.2 12.79 l-14.070,-14.140m 14.69 12.29 l-11.340,-11.370m -1.1 -1.09 l -1.41 -1.41 m 16.32 13.92 l -12.8 -12.81 m 13.7 11.3 l-12.060,-12.080m 15.8 13.4 l -11.92 -11.92 m -0.21 -0.21 l -2.53 -2.53 m15.770,13.430l-11.240,-11.300m13.330,10.930l-12.610,-12.630m 14.18 11.79 l -13.46 -13.47 m 14.49 12.09 l -13.88 -13.88 m 16.57 14.17 l -16 -16 m 16.92 14.52 l -14.69 -14.69 m15.480,13.140l -14.6 -14.59 m 15.18 12.77 l -14 -14 m14.620,12.150l -11 -11.05 m 15.16 12.76 l -14 -14.05 m 14.47 12.07 l -12.23 -12.23 m 12.65 10.25 l -11.22 -11.21 m 11.64 9.24 l-10.770,-10.660m 12.8 10.4 l -10.1 -10.1 m 13.28 10.89 l-12.340,-12.310m 13.33 10.93 l -12.64 -12.64 m 13.49 11.08 l -12.91 -12.9 m 13.58 11.18 l-9.390,-9.400m -2.7 -2.7 l -0.94 -0.94 m 15.55 13.14 l -1.47 -1.46 m -0.4 -0.4 l -9.62 -9.62 m 12.35 9.95 l -11.93 -11.93 m 13 10.63 l -12.61 -12.61 m 15.16 12.76 l -14.21 -14.22 m 16.67 14.27 l -14.74 -14.74 m 16.63 14.23 l-13.540,-13.610m 14.39 12 l -13.4 -13.41 m 14.5 12.1 l -13.76 -13.76 m 15.26 12.86 l -14.58 -14.58 m 16 13.62 l -13.42 -13.42 m 14.27 11.87 l -13.4 -13.41 m 14.44 12.05 l -12.94 -13 m 16.28 13.89 l-13.550,-13.510m 15.28 12.88 l -12.41 -12.42 m 13.35 11 l -12.46 -12.45 m 13.33 10.93 l -12.54 -12.54 m 13.38 11 l -12.07 -12.07 m 13.38 11 l -11.81 -11.81 m 13.07 10.67 l-11.890,-11.990m 12.83 10.43 l -12 -12 m 12.21 9.8 l -11 -11 m 11 8.58 l-7.350,-7.310m 7.37 5 l -6.09 -6.09 m 6.09 3.69 l -5.15 -5.16 m 5.15 2.76 l -4.31 -4.32 m 4.31 1.92 l -3.48 -3.48 m 3.48 1.08 l -1.9 -1.9 m 1.9 -0.5 l-0.87 -0.88"/>
    </g>


    <g>
      <path class="cls-4" d="M32.01 104.32 L33.71 106.34 35.41 104.97 37.11 105.08 38.8 103.48 40.5 105.53 42.2 106.82 43.9 103.34 45.6 102.9 47.29 107.54 48.99 105.8 50.69 102.29 52.39 105.24 54.09 102.24 55.78 103.25 57.48 102.39 59.18 101.88 60.88 103.33 62.57 101.81 64.27 99.42 65.97 103.82 67.67 99.35 69.36 99.64 71.06 99.48 72.76 103.43 74.46 99.44 76.16 103.44 77.85 102.34 79.55 103.29 81.25 103.86 82.95 101.86 84.64 102.46 86.34 105.85 88.04 102.17 89.74 103.6 91.43 104.41 93.13 105.57 94.83 105.09 96.53 105.27 98.22 102.95 99.92 106.28 101.62 106.86 103.32 106.78 105.02 109.26 106.71 106.22 108.41 107.27 110.11 105.93 111.81 102.86 113.5 104.85 115.2 105.07 116.9 105.66 118.6 103.52 120.3 106.62 121.99 104.47 123.69 103.63 125.39 107.03 127.09 104.53 128.78 101.91 130.48 104.66 132.18 105 133.88 103.13 135.57 102.5 137.27 102.47 138.97 103.79 140.67 106 142.37 105.19 144.06 106.86 145.76 109.15 147.46 105.81 149.16 102.39 150.85 105.77 152.55 107.74 154.25 103.1 155.95 103.44 157.65 105.78 159.34 106.28 161.04 105.94 162.74 104.8 164.44 105.07 166.13 108.2 167.83 104.48 169.53 105.27 171.23 105.84 172.92 102.72 174.62 100.71 176.32 102.07 178.02 101.2 179.72 100.56 181.41 103.91 183.11 105.78 184.81 105.36 186.51 102.94 188.2 101.71 189.9 103.82 191.6 102.66 193.3 100.38 194.99 101.75 196.69 103.26 198.39 102.67 200.09 101.43 201.78 103.98 203.48 100.92 205.18 96.69 206.88 97.84 208.58 99.64 210.27 98.07 211.97 99.74 213.67 101.97 215.37 105.97 217.06 104.82 218.76 102.3 220.46 107.09 222.16 101.39 223.85 101.55 225.55 106.01 227.25 104.5 228.95 99.36 230.65 108.23 232.34 108.97 234.04 104.56 235.74 103.97 237.44 107.7 239.13 106.91 240.83 102.2 242.53 105.38 244.23 108.19"/>
      <path class="cls-5" d="M32.01 106.85 L33.71 105.45 35.41 103.08 37.11 104.05 38.8 101.04 40.5 96.55 42.2 99.7 43.9 102.97 45.6 103.61 47.29 102.97 48.99 104.94 50.69 103.82 52.39 103.54 54.09 102.94 55.78 101.08 57.48 99.83 59.18 101.63 60.88 102.81 62.57 103.19 64.27 101.11 65.97 104.59 67.67 103.72 69.36 103.24 71.06 103.79 72.76 104.21 74.46 103.62 76.16 107.56 77.85 105.25 79.55 104.51 81.25 104.14 82.95 102.15 84.64 102.41 86.34 105.88 88.04 105.64 89.74 104.36 91.43 104.44 93.13 106.86 94.83 104.43 96.53 102.65 98.22 101.3 99.92 102.36 101.62 105.28 103.32 104.22 105.02 99.7 106.71 102.72 108.41 103.01 110.11 100.57 111.81 106.24 113.5 102.6 115.2 104.48 116.9 102.79 118.6 102.65 120.3 104.79 121.99 103.69 123.69 105.64 125.39 102.64 127.09 100.64 128.78 100.94 130.48 103.13 132.18 103.84 133.88 102.15 135.57 103.36 137.27 104.65 138.97 101.98 140.67 104.46 142.37 107.05 144.06 105.23 145.76 102.03 147.46 103.79 149.16 101.49 150.85 98.74 152.55 103.03 154.25 99.26 155.95 100.1 157.65 103.92 159.34 101.71 161.04 94.56 162.74 95.72 164.44 99.61 166.13 100.87 167.83 102.39 169.53 98.66 171.23 98.62 172.92 98.04 174.62 101.36 176.32 101.32 178.02 100.93 179.72 102.86 181.41 99.08 183.11 100.51 184.81 101.16 186.51 101.36 188.2 100.38 189.9 101.27 191.6 103.14 193.3 102.43 194.99 103.61 196.69 99.39 198.39 103.51 200.09 103.02 201.78 102.12 203.48 102.08 205.18 102.83 206.88 100.75 208.58 99.06 210.27 99.39 211.97 102.16 213.67 100 215.37 98.84 217.06 101.19 218.76 101.64 220.46 103.52 222.16 100.01 223.85 100.12 225.55 101.82 227.25 101.58 228.95 98.46 230.65 103.01 232.34 99.64 234.04 98.82 235.74 101.28 237.44 101.17 239.13 100.81 240.83 100.6 242.53 99.71 244.23 102.67"/>
      <path class="cls-6" d="M32.01 98.73 L33.71 96.4 35.41 96.62 37.11 101.68 38.8 127.42 40.5 127.46 42.2 117.78 43.9 110.33 45.6 107.06 47.29 106.36 48.99 103.92 50.69 107.68 52.39 107.27 54.09 103.39 55.78 101.03 57.48 95.71 59.18 96.55 60.88 95.99 62.57 95.81 64.27 99.09 65.97 91.84 67.67 94.49 69.36 97.95 71.06 111.79 72.76 107.46 74.46 102.66 76.16 100.18 77.85 101.34 79.55 100.98 81.25 95.79 82.95 97.17 84.64 94.6 86.34 93.94 88.04 101.11 89.74 100.26 91.43 96.6 93.13 93.85 94.83 98.04 96.53 96.4 98.22 97.95 99.92 99.06 101.62 94.22 103.32 93.39 105.02 91.37 106.71 97.03 108.41 94.2 110.11 94.97 111.81 95.83 113.5 92.49 115.2 95.64 116.9 94.42 118.6 98.3 120.3 99.81 121.99 99.23 123.69 94.74 125.39 97.81 127.09 98.69 128.78 97.09 130.48 98.17 132.18 98.5 133.88 91.51 135.57 97.06 137.27 98.54 138.97 94.49 140.67 97.21 142.37 97.97 144.06 98.65 145.76 97.42 147.46 96.07 149.16 94.24 150.85 92.24 152.55 95.61 154.25 98.13 155.95 93.57 157.65 92.36 159.34 94.78 161.04 93.3 162.74 92.75 164.44 89.91 166.13 90.41 167.83 94.5 169.53 100.08 171.23 99.64 172.92 105.16 174.62 112.74 176.32 111.92 178.02 112.1 179.72 107.07 181.41 105.38 183.11 104.86 184.81 105.88 186.51 97.51 188.2 96.41 189.9 94.88 191.6 97.33 193.3 100.39 194.99 102.53 196.69 95.91 198.39 97.53 200.09 95.74 201.78 96.08 203.48 98.53 205.18 103.77 206.88 119.91 208.58 114.54 210.27 106.39 211.97 101.6 213.67 100.86 215.37 99.25 217.06 97.92 218.76 93.94 220.46 101.52 222.16 125.72 223.85 120.14 225.55 111.44 227.25 102.48 228.95 96.34 230.65 94.66 232.34 91.97 234.04 92.34 235.74 94.33 237.44 94.21 239.13 93.8 240.83 92.96 242.53 91.51 244.23 91.22"/>
      <path class="cls-7" d="M32.01 94.04 L33.71 90.96 35.41 91.68 37.11 99.97 38.8 123.85 40.5 121.2 42.2 113.61 43.9 113.09 45.6 111.06 47.29 109.11 48.99 110.99 50.69 109.03 52.39 106.47 54.09 106.54 55.78 100.17 57.48 100.41 59.18 98.45 60.88 98.44 62.57 99.58 64.27 100.61 65.97 97.73 67.67 95.22 69.36 94.4 71.06 111.19 72.76 106.15 74.46 100.52 76.16 102.55 77.85 98.72 79.55 100.16 81.25 97.7 82.95 94.35 84.64 89.48 86.34 98 88.04 103.33 89.74 96.27 91.43 92.02 93.13 89.86 94.83 90.35 96.53 91.45 98.22 92.42 99.92 95.68 101.62 96.29 103.32 96.47 105.02 94.75 106.71 94.15 108.41 87.7 110.11 91.15 111.81 94.25 113.5 96.23 115.2 95.36 116.9 93.38 118.6 97.94 120.3 99.1 121.99 93.39 123.69 92.52 125.39 91.52 127.09 94.56 128.78 92.22 130.48 89.51 132.18 89.71 133.88 92.54 135.57 92.16 137.27 95.7 138.97 94.41 140.67 89.41 142.37 89.52 144.06 88.87 145.76 87.25 147.46 89.62 149.16 87.71 150.85 87.58 152.55 89.21 154.25 93.19 155.95 92.42 157.65 91.36 159.34 93.19 161.04 88.72 162.74 89.78 164.44 90.57 166.13 90.81 167.83 87.43 169.53 88.94 171.23 89.93 172.92 93.52 174.62 108.42 176.32 106.64 178.02 101.49 179.72 96.41 181.41 98.11 183.11 97.39 184.81 97.52 186.51 96.71 188.2 91.73 189.9 91.14 191.6 90.91 193.3 95.3 194.99 99.39 196.69 96.72 198.39 94.11 200.09 92.14 201.78 92.37 203.48 88.62 205.18 98.98 206.88 118.2 208.58 109.72 210.27 102.5 211.97 102.64 213.67 96.05 215.37 94.9 217.06 93.73 218.76 92.37 220.46 99.61 222.16 123.75 223.85 116.31 225.55 108.27 227.25 99.69 228.95 96.98 230.65 93.75 232.34 93.67 234.04 89.9 235.74 89.8 237.44 89.05 239.13 87.6 240.83 88.46 242.53 86.49 244.23 82.99"/>
      <path class="cls-14" d="M242.68,98.62l-7.92-7.92m-9.46-9.46-.21-.21m28,25.65-5.93-5.93M242.5,96l-7.25-7.25m19.27,16.87-6.91-6.91m-5.29-5.29-5.94-5.95M255.27,104,248,96.75M242,90.69l-4.15-4.15m18.68,16.28-8.07-8.07m-7.19-7.2-2-2m19.22,16.82-9.61-9.61m11.07,8.67L249.49,91M262,101.15l-11.6-11.61m13.14,10.75L251.26,88m13.28,10.88L252.09,86.42m13.24,10.84L253.87,85.8M266,95.5l-11.2-11.21M266,93.1,255.5,82.63M266,90.7l-8.75-8.76M266,88.29l-7-7m7,4.61-5.67-5.67M266,83.49l-3.16-3.17m3.16.77-2-2.06m2-.34-1.16-1.17M266,76.29l-.38-.39" transform="translate(-21.74 -2.54)"/>
      <path class="cls-14" d="M61.26,135.69l-.86-.86m1.8-.6-2-2m2.44,0L60,129.66m3.06.66-3.25-3.25m3.69,1.29-3.87-3.87m4.43,2-4.62-4.62m6.34,3.94-6.52-6.52m7.61,5.21-7.79-7.8m8.9,6.5-7.39-7.39m-.1-.09-1.6-1.6m12,9.58-9.36-9.35m-1.22-1.22-1.82-1.83m-4.61-4.61-.35-.34M72,122.45l-9.67-9.67m-2.2-2.21-2.26-2.26m-3.14-3.13-1-1M73,121.06,62.8,110.81M60,108l-2.69-2.69m-1-1-2.55-2.56M74,119.61,63.24,108.85m-3.45-3.45-6-6m22.17,19.77L63.68,106.89m-4.07-4.07L53.82,97m22.61,20.21L64.69,105.5m-5.27-5.26L53.69,94.5m23.24,20.84L66.17,104.58m-6.93-6.93-5.49-5.49m23.69,21.28L67.26,103.27m-8.2-8.2-5.24-5.24m25.65,23.25L68.38,102m-9.51-9.5-5.12-5.12m39.09,36.69-.06-.06m-12.19-12.2-9.32-9.31m-12.95-13-4.14-4.14m39.26,36.86-.93-.93M82.6,111.4,72.39,101.19M57.7,86.51,55,83.84m39,36.61-1.81-1.8m-5.8-5.8L73.35,99.75m21.29,18.89L92,116m-4.64-4.64L74.6,98.6m20.59,18.2-3.49-3.49m-3.43-3.44L76.08,97.68M95.75,115l-4.32-4.32m-2.2-2.19L76.59,95.79m21.55,19.15-7-7m-.42-.42L77.09,93.89m21.79,19.39L78,92.36m22.23,19.82L79.83,91.83m22.37,20L93,102.63m-.33-.33L81,90.57m22.18,19.78-9.51-9.52m-1.22-1.21L84.8,92m25.31,22.91L109,113.77m-5-5L94.24,99M92.16,97l-5.44-5.43M110.58,113,108,110.35m-3.2-3.21-9.93-9.93m-2.93-2.93L87.61,90M111,111l-3.68-3.67m-2-2-10-10m-3.75-3.76-3.05-3m23,20.55-4.76-4.76m-.77-.78L95.93,93.52m-4.59-4.58-1.71-1.71m22.58,20.17L98.38,93.57m14.51,12.11L99.12,91.91m14.68,12.28L101.53,91.93m13.32,10.91L102.52,90.51m21.18,18.78-3.55-3.55m-.59-.59-9.77-9.77m-.05,0L103.41,89m22.23,19.83L110.26,93.45m-1.65-1.65-4.4-4.4m22.67,20.26L110.72,91.51m-3-3L105,85.73m23.56,21.16L111.19,89.58m-4-4L105.56,84M129,105,111.74,87.72m-5.17-5.16-.38-.39m29.29,26.9-2-2m-3.93-3.94L112.42,86M137,108.21,130.79,102m-.78-.79L113.11,84.3m29.21,26.8-3-3m-1.14-1.14-24-24m28.74,26.34-27-27m27.53,25.13L124.55,88.54M144.42,106,126,87.61m20,17.55L127.44,86.63m22.19,19.78-21-21m22,19.56L129.17,83.55m22.39,20L136,88m-3.48-3.47-2.84-2.84m29.38,27-.11-.11m-3.07-3.07-.72-.73M153,102.56,140.8,90.38m-.55-.56L137.39,87m23,20.63L142.49,89.67M138.82,86l-.33-.33M161.19,106,143,87.82m18.75,16.35L143.6,86m18.8,16.41L144.93,84.89m19.76,17.37L148.94,86.51m-.47-.47-2-2m19.78,17.38L150,85.12m19.54,17.13-1.85-1.85m-.17-.16L150.92,83.7M170.62,101,151.85,82.22m25.65,23.25-3.15-3.15m-1.77-1.77L159.49,87.46m-1.26-1.26-1.73-1.73M154,82l-.15-.15M179,104.56,160.77,86.34m36.5,34.09-1.15-1.14M181.6,104.77,161.38,84.55M198.25,119l-2.44-2.43M182.27,103,162,82.75m36.86,34.46-3.35-3.34m-11.28-11.29-21-21m36.22,33.83-4.25-4.25m-7.39-7.4L165.24,81.2M200,113.6l-5.15-5.15m-6.24-6.23-22-22m34,31.6-6.57-6.57m-4.61-4.61L169.84,81m31.4,29L176.38,85.14m-.82-.81-4.5-4.51m33.19,30.79L178,84.35m28.54,26.14-10.06-10.06m-.14-.14L181.15,85.11m47.63,45.23-.26-.26m-20.36-20.36L197.64,99.2M196,97.58,181.81,83.37m47.37,45-.89-.89M208.82,108,198.44,97.6m-2.72-2.73L182.47,81.63m47.11,44.71-1.53-1.53m-18.62-18.62L199,95.79m-3.64-3.63-9.68-9.68M230,124.34l-2.16-2.16m-10.6-10.6-1.39-1.39m-5.59-5.6L199.63,94m-4.53-4.54-7-7m56,53.55-.23-.23m-13.44-13.43-2.8-2.81m-9.43-9.43-3.93-3.92M212.08,104,200.23,92.19m-5.44-5.45-5.88-5.88m55.59,53.2-.85-.86m-12.8-12.8-3.5-3.49m-8.25-8.26L200.83,90.38m-7.45-7.44-1.54-1.55M245,132.1l-1.48-1.48m-12.16-12.16-4.19-4.19M220,107.2,201.43,88.59m44,41.55-2.11-2.1m-11.52-11.53-4.9-4.9m-5.72-5.72L204.78,89.53m41.05,38.65-2.72-2.72m-9.89-9.89-6.83-6.83m-3.49-3.49L207.05,89.4m39.19,36.79-3.32-3.32m-8.81-8.81-5.2-5.2m-.47-.47-2.52-2.52m-1.82-1.82L208.41,88.36m38.25,35.85-3.92-3.92m-8.14-8.14-5.29-5.29m-1.1-1.1L225.45,103m-.6-.6L209,86.56m38.07,35.67-4.52-4.52m-7.47-7.47-5.38-5.38M228,103.13,209.63,84.77m37.86,35.47-5.12-5.12m-6.45-6.46-5.81-5.8m-2.36-2.37L217.52,90.27M215.29,88l-4.49-4.49m37.09,34.68-3.69-3.69m-.43-.42-1.58-1.59m-4.84-4.83-6.81-6.81m-3-3-9-9.06m-4.71-4.71-1-1m35.52,33.12-3.64-3.64m-1-1.06-2.14-2.13m-2.68-2.69L231,98.94m-3.72-3.71-7.88-7.88m29.28,26.87-3.59-3.59M243.41,109l-2.69-2.69m-.61-.61L231.45,97m-4.4-4.4-6.67-6.67m28.81,26.4-3.66-3.65m-2.3-2.31L231.91,95.05m-5.2-5.19-5.21-5.22m28.61,26.22L246,106.7M243,103.79l-9.27-9.28M226.24,87l-2.65-2.65m27.41,25-4.62-4.62m-3.52-3.51-8.6-8.61m-8.49-8.49-1.43-1.43m27.49,25.09-5-5" transform="translate(-21.74 -2.54)"/>
    </g>
    <line class="cls-8" x1="32.01" y1="103.16" x2="269.69" y2="103.16"/>
    <g id="Layer_5" data-name="Layer 5">
      <line class="cls-1" x1="32.01" y1="103.16" x2="28.62" y2="103.16"/>
      <line class="cls-1" x1="32.01" y1="146.19" x2="28.62" y2="146.19"/>
      <line class="cls-1" x1="32.01" y1="124.67" x2="28.62" y2="124.67"/>
      <line class="cls-1" x1="32.01" y1="81.64" x2="28.62" y2="81.64"/>
      <line class="cls-1" x1="32.01" y1="60.13" x2="28.62" y2="60.13"/>
      <line class="cls-1" x1="32.01" y1="38.61" x2="28.62" y2="38.61"/>
      <line class="cls-1" x1="32.01" y1="17.1" x2="28.62" y2="17.1"/>
      <text class="cls-2" transform="translate(7.36 148.61)">−1.0</text>
      <text class="cls-2" transform="translate(7.36 127.99)">−0.5</text>
      <text class="cls-2" transform="translate(12.61 83.86)">0.5</text>
      <text class="cls-2" transform="translate(12.61 105.19)">0.0</text>
      <text class="cls-2" transform="translate(12.61 62.24)">1.0</text>
      <text class="cls-2" transform="translate(12.61 40.74)">1.5</text>
      <text class="cls-2" transform="translate(12.61 18.99)">2.0</text>
    </g>
    <path class="cls-1" d="M32.01 146.19 L269.69 146.19 269.69 2.47 32.01 2.47 32.01 146.19"/>
  </g>
</svg>
