<svg xmlns="http://www.w3.org/2000/svg" viewBox="0 0 279.42 162.9">
  <defs><style>.cls-1,.cls-14,.cls-3,.cls-4,.cls-5,.cls-6,.cls-7,.cls-8{fill:none;stroke-linecap:round;stroke-linejoin:round;}.cls-1{stroke:gray;}.cls-1,.cls-4,.cls-5,.cls-6{stroke-width:0.75px;}.cls-10,.cls-11,.cls-13,.cls-2,.cls-9{font-size:9px;}.cls-2{font-family:ArialMT, Arial;}.cls-3,.cls-8{stroke:#000;}.cls-3,.cls-7{stroke-width:1.5px;}.cls-4{stroke:#8c510a;}.cls-5{stroke:#542788;}.cls-6{stroke:#4d9221;}.cls-14,.cls-7{stroke:#fed976;}.cls-9{fill:#231f20;}.cls-10,.cls-11,.cls-12,.cls-13,.cls-9{font-family:ArialNarrow, Arial Narrow;}.cls-10{fill:#8c510a;}.cls-11{fill:#542788;letter-spacing:-0.02em;}.cls-12{font-size:8px;fill:#4d9221;letter-spacing:-0.03em;}.cls-13{fill:#fed976;}.cls-14{stroke-width:0.38px;} .cls-1,.cls-16,.cls-3,.cls-4,.cls-5,.cls-6,.cls-7,.cls-8,.cls-9{fill:none;stroke-linecap:round;stroke-linejoin:round;}.cls-1{stroke:gray;}.cls-1,.cls-4,.cls-5,.cls-6,.cls-7{stroke-width:0.75px;}.cls-10,.cls-11,.cls-12,.cls-13,.cls-14,.cls-15,.cls-2{font-size:9px;}.cls-2{font-family:ArialMT, Arial;}.cls-3{stroke:#231f20;}.cls-3,.cls-8{stroke-width:1.5px;}.cls-4{stroke:#8c510a;}.cls-5{stroke:#542788;}.cls-6{stroke:#4d9221;}.cls-7{stroke:#feb24c;}.cls-8{stroke:#e31a1c;}.cls-9{stroke:#000;}.cls-10{fill:#231f20;}.cls-10,.cls-11,.cls-12,.cls-13,.cls-14,.cls-15{font-family:ArialNarrow, Arial Narrow;}.cls-11{fill:#8c510a;}.cls-12{fill:#542788;letter-spacing:-0.03em;}.cls-13{fill:#4d9221;}.cls-14{fill:#feb24c;}.cls-15{fill:#e31a1c;}.cls-16{stroke:#fc0000;stroke-width:0.38px;}
.cls-1,.cls-6,.cls-9{font-size:9px;}.cls-1{font-family:ArialMT, Arial;}.cls-2,.cls-3,.cls-4,.cls-5,.cls-8{fill:none;stroke-linecap:round;stroke-linejoin:round;}.cls-2{stroke:gray;stroke-width:0.75px;}.cls-3{stroke:#231f20;}.cls-3,.cls-4{stroke-width:1.5px;}.cls-4,.cls-8{stroke:#fe8d3c;}.cls-5{stroke:#000;}.cls-6{fill:#231f20;}.cls-6,.cls-9{font-family:ArialNarrow, Arial Narrow;}.cls-7,.cls-9{letter-spacing:-0.02em;}.cls-8{stroke-width:0.38px;}.cls-9{fill:#fe8d3c;}
</style></defs>
  <title>allnatural</title>
  <g id="Layer_4" data-name="Layer 4">
    <g class="labels">
      <path class="cls-1" d="M53.75,149.3v3.39m34-3.39v3.39m34-3.39v3.39m34-3.39v3.39m34-3.39v3.39m34-3.39v3.39m34-3.39v3.39m34-3.39v3.39" transform="translate(-21.74 -2.54)"/>
      <text class="cls-2" transform="translate(21.72 159.98)">1880</text>
      <text class="cls-2" transform="translate(55.68 159.98)">1900</text>
      <text class="cls-2" transform="translate(89.63 159.98)">1920</text>
      <text class="cls-2" transform="translate(123.58 159.98)">1940</text>
      <text class="cls-2" transform="translate(157.54 159.98)">1960</text>
      <text class="cls-2" transform="translate(191.49 159.98)">1980</text>
      <text class="cls-2" transform="translate(225.45 159.98)">2000</text>
      <text class="cls-2" transform="translate(259.4 159.98)">2020</text>
    </g>

<g transform="translate(-2.65 -.15)">
  <path class="cls-3" d="M34.66 97.09 L36.35 90.25 38.05 90.64 39.75 97.22 41.45 105.03 43.15 106.97 44.84 107.35 46.54 109.61 48.24 96.51 49.94 91.22 51.63 111.61 53.33 101.28 55.03 103.67 56.73 107.55 58.42 107.03 60.12 100.38 61.82 91.93 63.52 91.99 65.22 104.38 66.91 97.03 68.61 89.99 70.31 94.7 72.01 105.61 73.7 112.71 75.4 120.71 77.1 105.03 78.8 100.19 80.49 113.22 82.19 116.26 83.89 119.29 85.59 116.07 87.28 115.68 88.98 110 90.68 109.55 92.38 94.51 94.08 91.8 95.77 107.81 97.47 116.26 99.17 104.13 100.87 102.96 102.56 102.12 104.26 95.86 105.96 103.29 107.66 101.22 109.36 102.06 111.05 98.44 112.75 89.41 114.45 97.99 116.15 97.03 117.84 109.03 119.54 93.41 121.24 89.99 122.94 95.03 124.63 105.16 126.33 92.57 128.03 98.25 129.73 94.57 131.43 85.08 133.12 84.76 134.82 84.44 136.52 73.47 138.22 68.24 139.91 78.11 141.61 76.76 143.31 66.43 145.01 75.66 146.71 87.86 148.4 85.28 150.1 90.51 151.8 90.77 153.5 96.44 155.19 87.28 156.89 81.53 158.59 76.76 160.29 93.54 161.98 93.47 163.68 98.12 165.38 78.63 167.08 76.05 168.78 80.05 170.47 83.6 172.17 77.66 173.87 78.37 175.57 76.76 177.26 97.61 178.96 90.77 180.66 86.44 182.36 83.92 184.05 87.6 185.75 76.76 187.45 80.25 189.15 88.96 190.84 81.79 192.54 70.31 194.24 88.64 195.94 83.28 197.64 90.06 199.33 68.82 201.03 77.02 202.73 69.92 204.43 61.59 206.12 56.81 207.82 72.18 209.52 58.1 211.22 70.05 212.91 73.28 214.61 68.5 216.31 56.62 218.01 51.26 219.71 59.78 221.4 48.16 223.1 50.36 224.8 65.53 226.5 64.37 228.19 58.43 229.89 47.78 231.59 56.3 233.29 46.04 234.99 34.22 236.68 51.72 238.38 51.46 240.08 40.81 241.78 34.42 243.47 35.32 245.17 40.68 246.87 30.87 248.57 35 250.26 33.19 251.96 42.81 253.66 33.32 255.36 28.48 257.06 37.77 258.75 35 260.45 32.8 262.15 25.9 263.85 15.77 265.54 6.21 267.24 13.44"/>
  <path class="cls-4" d="M57.05,448.47l1.7-3.91,1.7,1.86,1.7,4.3L63.85,476l1.69-3.2,1.7-4.58,1.7-4.64,1.7-5,1.69-1.32,1.7-.42,1.7,4,1.7.09,1.69-11.27,1.7-4.49,1.7-2.43,1.7,4.16,1.7,1,1.69-2.93,1.7-.41,1.7.13,1.7-2.88,1.69,3.08L96.1,459l1.7-2.32L99.5,453l1.69-8.19,1.7,1.27,1.7-.29,1.7-3.67,1.7,1.09,1.69-4.3,1.7,6,1.7,6.84,1.7-4.08,1.69-3.33,1.7-2,1.7-3.82,1.7,1.47,1.7-1.72,1.69.62,1.7,2.53,1.7-2.6,1.7-3.64,1.69,1.18,1.7.69,1.7,2.42,1.7-3.67,1.69.06,1.7,2,1.7-2.23,1.7-.14,1.7.12,1.69.84,1.7-4.29,1.7,3.13,1.7-1.31,1.69-2.45,1.7-1.81,1.7.25,1.7-.82,1.69-4.68,1.7,2,1.7,1.83,1.7,2.61h1.7l1.69,2.25,1.7-1.64,1.7-1.39,1.7,1.49,1.69-.23,1.7,2.91,1.7,1.48L181,434l1.69,1.35,1.7-4.44,1.7,1.21,1.7-2.25,1.7-3.48,1.69.84,1.7,3.57,1.7-5.05,1.7-.27L198,430.7l1.7,14.29,1.7-1.05,1.7-4.91,1.69-3.72,1.7-3.52,1.7.81,1.7-3.83,1.7-2.76,1.69-3.21,1.7-1.53,1.7-.19,1.7,3.95,1.69-4,1.7-4.48,1.7-.47,1.7-2.56,1.7-2,1.69-4.46,1.7,9.57,1.7,11.88,1.7-7.16,1.69-5.66L237,414l1.7-5.23,1.7-1.82,1.69-2.17,1.7-4.29,1.7,3.52,1.7,22.1,1.7-5.53,1.69-7.35,1.7-9.88,1.7-1.49,1.7-2.57,1.69-7.21,1.7-2.94,1.7-3.11,1.7-.92,1.69-1.11,1.7-1,1.7-2.68,1.7,1.48m0,.41,1.7-1.48,1.69-1.08,1.7-.27,1.7,1.32,1.7-6.36,1.69-1.76,1.7,1.93,1.7-.55,1.7-.39,1.69-3,1.7-.46,1.7-2.48" transform="translate(-22.4 -348.58)"/>
  <path class="cls-8" d="M255.85,409.05l-5.44-5.43m-4.49-4.49-4.22-4.23m14.6,12.21-5.49-5.51m-5.08-5.08-3.21-3.2m14.24,11.84-5.6-5.6m-5.63-5.63-2.33-2.32m14,11.61-5.71-5.71m6.44,4-6.09-6.09m7,4.56-6.61-6.61m7.47,5.07-6.4-6.4m7.24,4.85-6.11-6.12m7.46,5.06-6.51-6.5m8,5.59L256,387.59m8.86,6.45-8.4-8.4m9.72,7.32-9.26-9.26m10.19,7.79-9.74-9.73m12.51,10.09-11.64-11.63m13.11,10.7L259.11,378.7M272.86,390,260,377.14m16.16,13.77-15.3-15.3m15.8,13.4-14.24-14.25m14.75,12.36-13.29-13.3m13.8,11.4-12.31-12.31m13.33,10.93-12.19-12.19m15.44,13.05L267.4,370.18m16.39,14-13.46-13.46m14.75,12.35L271.8,369.78m14.14,11.74L273.52,369.1m14,11.54-11.19-11.18m12.39,10-11.88-11.89M289.64,378l-12.35-12.35m12.35,9.95-11.78-11.79m11.78,9.39L279,362.61m10.61,8.2-7.15-7.15m7.15,4.75-5.22-5.22m5.22,2.82-4.29-4.28m4.29,1.88-3.42-3.42m3.42,1L288,359.57m1.63-.76-.66-.66" transform="translate(-22.4 -348.58)"/>
  <path class="cls-8" d="M64,486.12l-.21-.21m1-1.36-1.21-1.21m2-.38-2.19-2.19m2.83.44-3-3M67,479.45l-3.83-3.83m4.48,2.08L63,473.05m5.29,2.89-5.47-5.47m6.12,3.71-6.28-6.28m6.88,4.49-7.06-7.06m7.67,5.26-5.81-5.81m-.53-.53-1.5-1.5M57.46,458l-.51-.51m13.83,11.42-5.66-5.66m-1.53-1.53-2-2m-3.37-3.38-1.14-1.13m15.09,12.68-6.28-6.27m-2.45-2.46-6.34-6.34m20.44,18-3.42-3.42m-.12-.11-7.46-7.47m-3.27-3.27-6.19-6.18m20.77,18.36L67.16,458.05M63.07,454l-6.22-6.22m21.28,18.88L67.8,456.29m-4.91-4.91L57,445.45m21.5,19.09-10-10m-5.73-5.73-5.67-5.67m21.71,19.31-9.68-9.68m-6.53-6.53-5.5-5.5m22,19.63-9.4-9.4m-7.31-7.31-5.52-5.52m22.83,20.43-9.39-9.39m-8.09-8.09-4.5-4.51m22.64,20.25-9.13-9.13M61.07,437.55l-2.65-2.64m22.66,20.26-4.77-4.77m-1-1-2.66-2.66m24.13,21.72-.91-.9m-9.73-9.74L83.28,455m-1.21-1.2-4.46-4.47m20.19,17.8-2.24-2.25M87,456.31l-9.11-9.11m20.64,18.25-3.33-3.34m-7-7-10-10M99.32,463.8l-4.42-4.41M90.5,455l-12-12m21.26,18.86-5.23-5.23m-2.85-2.85L78.87,440.94m21.36,19L93,452.69m-.39-.39L79.23,438.91m21.41,19L79.89,437.17m21.16,18.76-20.5-20.51m23.31,20.91L81.4,433.87m23.68,21.29-8-8m-1.34-1.33-9.35-9.36m-3.68-3.67-.36-.37m31.11,28.71-.89-.88m-6.77-6.78L98,445.72m-2.58-2.59L87.31,435m26.9,24.49-2.39-2.39m-3.73-3.73-9.29-9.28m-3.67-3.68-6.25-6.25m26.05,23.65-4-4m-2.19-2.19-9.24-9.23m-4.73-4.74L91.12,434m24.62,22.21L110,450.48m-.56-.56-9.5-9.5M94.47,435,92,432.48m24.57,22.17-16.22-16.22m17.34,14.93-16.93-16.92m17.83,15.42-17.41-17.41m18.14,15.75-14.82-14.82m17.27,14.87-16.46-16.46M123,449l-9.25-9.25m-1.36-1.37-6.28-6.27m21.2,18.79-12.85-12.85m-2.87-2.86L108.31,432m19.92,17.52-13-13m-4.54-4.53L109,430.25m20,17.63-13-13m-6.29-6.29,0,0m20.11,17.71L116.94,433.4m18.44,16-17.33-17.33m18.09,15.69-17.31-17.31M137,446.28l-17.45-17.45m21.21,18.81L122.16,429m19.66,17.26L123.54,428m20.39,18-16.35-16.35m19.52,17.12-18.61-18.61M147.78,445l-18.52-18.52m21.45,19-.86-.85m-1.38-1.39L130,424.88m22,19.63-16.44-16.43m17.44,15-16.68-16.68m17.7,15.29-16.27-16.27m17.43,15-14.13-14.13m16.37,14-15.1-15.1M159,439.44l-14.23-14.23m14.87,12.46-12.31-12.3m18.46,16.05-.19-.19m-5.32-5.31L148,423.65M169.78,443l-18.64-18.64m-2.2-2.19-.26-.26M171,441.86l-18.62-18.62m19.94,17.54-19-19m26.37,24L176,442m-.09-.09-21.4-21.4m26.44,24.05-25.15-25.16m27.45,25.06L158,419.24m25.87,23.47L159.19,418m26.91,24.52-26.27-26.28m40.89,38.48-1.28-1.28m-12.3-12.3-20.6-20.59m-2.39-2.4-3.68-3.67m41.24,38.84-2.6-2.6m-11-11L170.16,421.8m32.17,29.77L198.78,448m-9.92-9.93-17.43-17.43m31.51,29.11-4.48-4.48m-5.2-5.2-1.78-1.79m-1-.95-16.1-16.1m29.25,26.85-5.53-5.54m-4.27-4.27-13.75-13.75m24.3,21.91-7-7m-2.95-3-11.72-11.71m22.44,20-21.77-21.78M206,443.21l-21.9-21.9M208.16,443l-8.45-8.46m-.06-.05-13.22-13.23m22.47,20.07-7.71-7.71m-1.86-1.86L187.47,419.9m22.17,19.77-7.73-7.74M199,429l-10.68-10.67m22.17,19.77-8-8m-3.83-3.84-9.57-9.56m22.3,19.9-8.26-8.26m-4.8-4.8-4.9-4.91m18.8,16.41-8.35-8.35M198,420.86l-4-4m19,16.63-8.42-8.42m-7.62-7.61-2.17-2.17m19.39,17-8.83-8.82m13.34,10.94-1.57-1.57M216,431.58l-9.74-9.73m13.28,10.88-11.1-11.11M220.21,431,209.14,420m11.72,9.33-11-11m22.24,19.84-.37-.37m-10.23-10.23-10.73-10.72m21.79,19.37L231.35,435M223,426.64l-11.33-11.33M233,434.26,231,432.17m-6.77-6.77-11.66-11.66m21,18.57-2.95-2.95m-5.41-5.4-11.73-11.73M234,430.44l-3.9-3.9m-3.88-3.88-11.58-11.57m19.91,17.51-5-5m-2.47-2.48L219,413m16.11,13.72-6-6m-1.29-1.3-8.07-8.06m27.5,25.09,0,0m-11.07-11.06-7.55-7.55m-.11-.12-8-8m27.38,25-.81-.81M237.17,424l-16.09-16.09m27.28,24.88-1.57-1.57m-9-9-5.49-5.49m-.64-.64-9.88-9.88m27.18,24.78-2.33-2.33m-8.25-8.25-5.62-5.61m-1.5-1.51-7.69-7.69M249.37,429l-3-3m-7.25-7.25-6-6m-2.36-2.36-6.33-6.33M249.82,427l-3.63-3.63m-5.89-5.89-6.65-6.65m-3.23-3.23-4.92-4.93m24.77,22.38L246,420.8m-4.63-4.63L234.2,409M230,404.77l-3.37-3.37m24.1,21.7-4.9-4.9m-3.48-3.49-7.55-7.55m-5.32-5.31-2.09-2.09m23.7,21.29-5.46-5.45M243,413l-7.68-7.68m-6.38-6.39L228,398m23.39,21-4-4m-.28-.29-2.88-2.88m-.58-.58-7.16-7.16M251.75,417,248,413.18m-1.06-1.05-9.57-9.57m14.75,12.35-3.56-3.56m-1.81-1.82-8.79-8.79m14.94,12.54-3.81-3.82m-2.54-2.53-8-8m15.58,13.18-4.6-4.59m-3.18-3.19-6.82-6.82m15.56,13.16-5.1-5.11m-3.84-3.83-5.49-5.48" transform="translate(-22.4 -348.58)"/>
</g>


    <g transform="translate(.66 -2.94)">
      <path class="cls-3" d="M31.350,99.880l1.700,-6.840,1.700,0.390,1.690,6.580,1.700,7.810,1.700,1.940,1.700,0.380,1.690,2.260,1.700,-13.100,1.700,-5.290,1.700,20.390,1.700,-10.320,1.690,2.390,1.700,3.870,1.700,-0.520,1.700,-6.650,1.700,-8.450,1.690,0.060,1.700,12.390,1.700,-7.350,1.700,-7.040,1.690,4.710,1.700,10.910,1.700,7.100,1.700,8.000,1.690,-15.680,1.700,-4.840,1.700,13.040,1.700,3.030,1.690,3.030,1.700,-3.220,1.700,-0.390,1.700,-5.680,1.700,-0.450,1.690,-15.040,1.700,-2.710,1.700,16.010,1.700,8.450,1.690,-12.130,1.700,-1.170,1.700,-0.830,1.700,-6.260,1.700,7.420,1.690,-2.070,1.700,0.840,1.700,-3.610,1.700,-9.040,1.690,8.580,1.700,-0.960,1.700,12.000,1.700,-15.620,1.690,-3.420,1.700,5.040,1.700,10.130,1.700,-12.590,1.690,5.680,1.700,-3.680,1.700,-9.480,1.700,-0.320,1.700,-0.330,1.690,-10.970,1.700,-5.230,1.700,9.880,1.700,-1.360,1.690,-10.330,1.700,9.230,1.700,12.200,1.700,-2.580,1.690,5.230,1.700,0.260,1.700,5.680,1.700,-9.170,1.700,-5.740,1.690,-4.780,1.700,16.780,1.700,-0.060,1.700,4.650,1.690,-19.500,1.700,-2.580,1.700,4.000,1.700,3.550,1.700,-5.940,1.690,0.720,1.700,-1.620,1.700,20.850,1.700,-6.840,1.690,-4.330,1.700,-2.510,1.700,3.670,1.700,-10.840,1.700,3.490,1.690,8.710,1.700,-7.170,1.700,-11.480,1.700,18.330,1.690,-5.360,1.700,6.780,1.700,-21.240,1.700,8.200,1.690,-7.100,1.700,-8.330,1.700,-4.780,1.700,15.370,1.700,-14.070,1.690,11.940,1.700,3.230,1.700,-4.780,1.700,-11.880,1.690,-5.360,1.700,8.530,1.700,-11.620,1.700,2.190,1.690,15.170,1.700,-1.160,1.700,-5.940,1.700,-10.650,1.690,8.520,1.700,-10.260,1.700,-11.810,1.700,17.490,1.700,-0.260,1.690,-10.650,1.700,-6.390,1.700,0.910,1.700,5.350,1.690,-9.810,1.700,4.130,1.700,-1.810,1.700,9.620,1.690,-9.480,1.700,-4.850,1.700,9.300,1.700,-2.780,1.700,-2.190,1.690,-6.910,1.700,-10.130,1.700,-9.560,1.700,7.230"/>
      <path class="cls-4" d="M31.35 109.49 L33.05 104.48 34.75 105.03 36.44 102.81 38.14 108.69 39.84 107.77 41.54 104.96 43.23 107.7 44.93 110.45 46.63 108.53 48.33 104.81 50.03 104.38 51.72 108.04 53.42 103.68 55.12 105.32 56.82 106.99 58.52 105.95 60.21 105.91 61.91 107.03 63.61 103.42 65.31 105.38 67 107.02 68.7 105.27 70.4 103.92 72.1 106.89 73.79 104.82 75.49 105.62 77.19 107.2 78.89 107.56 80.58 104.94 82.28 105 83.98 104.35 85.68 103.78 87.38 104.61 89.07 103.62 90.77 103.19 92.47 106.53 94.17 104.03 95.86 106.98 97.56 106.67 99.26 98.77 100.96 108.61 102.66 105.05 104.35 105.79 106.05 103.87 107.75 105.55 109.45 107.98 111.14 106.88 112.84 108.35 114.54 105.59 116.24 109.08 117.93 107.37 119.63 110.87 121.33 109.52 123.03 107.2 124.72 109.89 126.42 110.74 128.12 111.15 129.82 108.44 131.52 108.6 133.21 109.09 134.91 110.75 136.61 109.49 138.31 109.22 140 111.18 141.7 110.78 143.4 110.69 145.1 109.25 146.79 112.56 148.49 113.59 150.19 113.3 151.89 114.28 153.59 113.76 155.28 114.51 156.98 117.97 158.68 115.86 160.38 117.47 162.07 117.51 163.77 118.32 165.47 118.43 167.17 118.42 168.87 117.98 170.56 117.21 172.26 117.96 173.96 119.46 175.66 120.25 177.35 120.03 179.05 120.89 180.75 120.54 182.45 119.23 184.15 120.86 185.84 120.35 187.54 121.25 189.24 123.36 190.94 121.1 192.63 124.08 194.33 127.07 196.03 123.95 197.73 123.29 199.42 130.13 201.12 131.51 202.82 134.46 204.52 129.37 206.22 129.56 207.91 134.32 209.61 131.31 211.31 133.4 213.01 133.83 214.7 134.74 216.4 134.48 218.1 131.39 219.8 134.13 221.49 132.79 223.19 135.96 224.89 137.19 226.59 134.03 228.28 136.48 229.98 135.69 231.68 136.45 233.38 134.62 235.08 135.78 236.77 140.01 238.47 135.83 240.17 134.99 241.87 135.97 243.56 137.56"/>
      <path class="cls-5" d="M31.35 107.53 L33.05 108.59 34.75 111.64 36.44 107.98 38.14 108.93 39.84 109.9 41.54 107.55 43.23 104.32 44.93 107.1 46.63 110.56 48.33 111.76 50.03 108.02 51.72 106.14 53.42 108.01 55.12 105.25 56.82 103.96 58.52 105 60.21 106.5 61.91 108.4 63.61 105.1 65.31 105.16 67 107.48 68.7 100.68 70.4 106.45 72.1 102.56 73.79 99.49 75.49 103.07 77.19 99.98 78.89 103.86 80.58 105.14 82.28 102.96 83.98 102.44 85.68 100.44 87.38 97.05 89.07 101.25 90.77 99.8 92.47 102.5 94.17 102.53 95.86 99.86 97.56 97.46 99.26 101.27 100.96 99.28 102.66 98.51 104.35 97.02 106.05 98.46 107.75 96.41 109.45 93.93 111.14 95.8 112.84 96.62 114.54 88.52 116.24 94.66 117.93 94.81 119.63 90.31 121.33 88.02 123.03 91.05 124.72 92.29 126.42 88.97 128.12 89.88 129.82 87.99 131.52 90.36 133.21 90.94 134.91 87.44 136.61 87.02 138.31 85.37 140 86.42 141.7 88.28 143.4 84.5 145.1 79.91 146.79 85.03 148.49 83.87 150.19 86.88 151.89 88.46 153.59 83.77 155.28 85.98 156.98 82.24 158.68 86.53 160.38 86.06 162.07 80.15 163.77 81.56 165.47 83.15 167.17 77.38 168.87 78.92 170.56 76.12 172.26 76.13 173.96 74.34 175.66 78.51 177.35 77.73 179.05 74.84 180.75 71.21 182.45 67.5 184.15 67.2 185.84 62.35 187.54 60.43 189.24 62.28 190.94 61.46 192.63 62.47 194.33 59.07 196.03 58.8 197.73 58.64 199.42 54.01 201.12 56.97 202.82 53.83 204.52 52.12 206.22 51.63 207.91 51.64 209.61 48.03 211.31 47.08 213.01 47.51 214.7 41.06 216.4 43.51 218.1 40.78 219.8 42.09 221.49 38.07 223.19 35.88 224.89 33.41 226.59 33.83 228.28 35.38 229.98 32.78 231.68 32.17 233.38 32.97 235.08 29.79 236.77 26.49 238.47 23.21 240.17 23.18 241.87 21.6 243.56 18.77"/>
      <path class="cls-6" d="M31.35 105 L33.05 109.09 34.75 106.5 36.44 104.98 38.14 106.33 39.84 102.53 41.54 103.4 43.23 103.25 44.93 103.5 46.63 103.58 48.33 107.81 50.03 107.16 51.72 105.89 53.42 104.52 55.12 107.1 56.82 106.58 58.52 107.08 60.21 108.12 61.91 110.89 63.61 110.34 65.31 107.64 67 109.91 68.7 108.14 70.4 106.34 72.1 107.1 73.79 106.04 75.49 104.42 77.19 102.63 78.89 103.87 80.58 103.83 82.28 105.5 83.98 108.66 85.68 106.42 87.38 105.79 89.07 104.44 90.77 107.22 92.47 104.52 94.17 100.8 95.86 101.5 97.56 105.23 99.26 102.42 100.96 107.75 102.66 107.39 104.35 105.19 106.05 105.05 107.75 107.06 109.45 103.65 111.14 112.37 112.84 105.64 114.54 104.45 116.24 109.53 117.93 106.75 119.63 107.04 121.33 103.8 123.03 103.73 124.72 108.39 126.42 106.89 128.12 110.74 129.82 106.18 131.52 103.21 133.21 105.21 134.91 107.31 136.61 110.11 138.31 106.73 140 108.89 141.7 109.14 143.4 108.49 145.1 106.37 146.79 109.6 148.49 110.57 150.19 110.04 151.89 109.56 153.59 107 155.28 110.11 156.98 109.31 158.68 110.16 160.38 113.75 162.07 109.93 163.77 110.16 165.47 107.72 167.17 109.3 168.87 109.72 170.56 111.27 172.26 111.4 173.96 110.54 175.66 115.04 177.35 114.58 179.05 113.14 180.75 112.04 182.45 112.11 184.15 113.34 185.84 114.72 187.54 113.7 189.24 115.28 190.94 115.85 192.63 109.88 194.33 109.14 196.03 114.35 197.73 111.5 199.42 110.54 201.12 113.92 202.82 111.34 204.52 112.52 206.22 116.52 207.91 118.87 209.61 116.7 211.31 113.86 213.01 116.36 214.7 111.43 216.4 110.94 218.1 112.81 219.8 113.22 221.49 110.23 223.19 112.61 224.89 113.63 226.59 113.6 228.28 112.42 229.98 114.11 231.68 115.77 233.38 116.88 235.08 114.64 236.77 115.36 238.47 112.4 240.17 113.63 241.87 115.6 243.56 113.89"/>
      <path class="cls-7" d="M31.35 107.95 L33.05 108.31 34.75 109.03 36.44 108.06 38.14 108.29 39.84 106.96 41.54 107.57 43.23 108.52 44.93 106.26 46.63 106.19 48.33 108.31 50.03 107.72 51.72 106.39 53.42 105.69 55.12 103.26 56.82 104.87 58.52 105.95 60.21 106.78 61.91 105.03 63.61 107.32 65.31 108.25 67 107.32 68.7 105.37 70.4 104.93 72.1 104.03 73.79 103.19 75.49 103.02 77.19 102.43 78.89 102.89 80.58 103.38 82.28 105.78 83.98 104.07 85.68 102.99 87.38 104.43 89.07 105.01 90.77 103.14 92.47 100.35 94.17 101.19 95.86 101.53 97.56 106.79 99.26 107.32 100.96 102.74 102.66 105.9 104.35 100.36 106.05 104.42 107.75 103.74 109.45 104.76 111.14 103.16 112.84 103.21 114.54 107.16 116.24 104.7 117.93 103.88 119.63 103.2 121.33 103.12 123.03 101.69 124.72 103.51 126.42 104.64 128.12 101.63 129.82 100.01 131.52 103.55 133.21 104.77 134.91 101.48 136.61 102.47 138.31 100.37 140 98.69 141.7 98.51 143.4 100.09 145.1 99.35 146.79 101.97 148.49 98.28 150.19 100.5 151.89 102.47 153.59 102.91 155.28 99.9 156.98 103.08 158.68 102.87 160.38 100.39 162.07 97.57 163.77 98.11 165.47 99.76 167.17 100.37 168.87 98.36 170.56 99.04 172.26 102.13 173.96 101.34 175.66 99.44 177.35 100.13 179.05 99.16 180.75 96.77 182.45 98.84 184.15 101.28 185.84 98.8 187.54 99.05 189.24 98.11 190.94 100.57 192.63 101.69 194.33 99.69 196.03 98.99 197.73 102.47 199.42 99.95 201.12 95.1 202.82 97.94 204.52 94.25 206.22 95.08 207.91 97.5 209.61 96.62 211.31 98.57 213.01 98.1 214.7 95.34 216.4 98.78 218.1 98.76 219.8 96.93 221.49 94.56 223.19 95.53 224.89 94.28 226.59 94.75 228.28 92.9 229.98 98.71 231.68 97.87 233.38 96.43 235.08 99.76 236.77 98.82 238.47 96.71 240.17 99.96 241.87 100.21 243.56 97.3"/>
      <path class="cls-8" d="M31.35 108.68 L33.05 105.02 34.75 111.57 36.44 109.21 38.14 103.84 39.84 103.86 41.54 101.34 43.23 102.17 44.93 106.48 46.63 106.48 48.33 102.64 50.03 105.03 51.72 104.8 53.42 103.3 55.12 104.08 56.82 108.33 58.52 107.55 60.21 111.94 61.91 109.06 63.61 106.91 65.31 105.67 67 106.12 68.7 106 70.4 104.08 72.1 107.24 73.79 108.81 75.49 111.32 77.19 104.81 78.89 105.07 80.58 102.66 82.28 105.01 83.98 102.15 85.68 107.25 87.38 106.01 89.07 102.85 90.77 104.9 92.47 103.84 94.17 107.1 95.86 104.12 97.56 100.92 99.26 102.2 100.96 102.15 102.66 101.18 104.35 99.12 106.05 101.17 107.75 96.45 109.45 96.6 111.14 99.72 112.84 98.32 114.54 96.9 116.24 99.74 117.93 98.03 119.63 97.42 121.33 98.38 123.03 98.18 124.72 97.36 126.42 96.82 128.12 94.84 129.82 97.58 131.52 98.99 133.21 96.25 134.91 92.06 136.61 96.04 138.31 100.88 140 97.98 141.7 96.42 143.4 90.92 145.1 90.91 146.79 94.14 148.49 97.28 150.19 94.27 151.89 94.25 153.59 94.67 155.28 95.78 156.98 95.4 158.68 97.58 160.38 99.5 162.07 98.6 163.77 96.47 165.47 94.73 167.17 93.74 168.87 90.38 170.56 94.25 172.26 91.9 173.96 91.47 175.66 88.91 177.35 93.05 179.05 92.93 180.75 88.98 182.45 83.92 184.15 85.31 185.84 82.48 187.54 82.83 189.24 84.31 190.94 82.35 192.63 82.52 194.33 81.62 196.03 79.07 197.73 80.87 199.42 78.26 201.12 72.93 202.82 75.78 204.52 77.49 206.22 69.54 207.91 69.66 209.61 68.58 211.31 70.45 213.01 68.02 214.7 63.71 216.4 65.88 218.1 62.87 219.8 62.63 221.49 63.08 223.19 62.89 224.89 63.55 226.59 60.09 228.28 58.91 229.98 58.17 231.68 55.1 233.38 54.01 235.08 55.78 236.77 55.7 238.47 53.04 240.17 49.85 241.87 49.1 243.56 46.46"/>
      <path class="cls-16" d="M53.8,288.7l-.23-.23m4.42,2-1.55-1.56m-1.88-1.88-.84-.84M58.93,289,55.6,285.7m-.28-.29-1.57-1.56m5.76,3.36-5.86-5.86m6.44,4-6.44-6.45m7.4,5-7.48-7.48m9.16,6.76-9.08-9.09m14.84,12.45-1.91-1.91M63.7,281.8,53.65,271.74M69.6,285.3,53.75,269.45m16.59,14.18-13-13m-.3-.3-3-3m20,17.58-15.71-15.7m-2.14-2.14-1.37-1.38M83,291.46l-.94-.94m-2.3-2.31-1-1m-3.39-3.4L59.12,267.61M83.85,290,59.69,265.79m25.14,22.73L60.27,264m25.61,23.22-24-24.06m25.4,23L63,261.93m26.68,24.28L69.1,265.59m-3-3-1.78-1.78m27.23,24.83-21.69-21.7m28.44,26-5.12-5.12m-.5-.5L72.59,264.28m-.61-.61-1.41-1.41m28.2,25.8-24.3-24.31m24.8,22.41-16-16m-1.71-1.71-1.3-1.29m-2-2-2.49-2.48m24.84,22.44L84.14,268.62M102,284.12,85.16,267.25m19.8,17.4L86.29,266m22.94,20.55-2.15-2.16m-1.22-1.22L87.68,265m22.61,20.21L90.43,265.32m20.7,18.28L97.94,270.42m-.49-.49-5.56-5.56m24.88,22.48L116,286m-1.71-1.71L98.43,268.51m19.21,16.81L98.93,266.61m19.57,17.17L99.43,264.7m19.9,17.51-18-18m20.46,18.07-19.47-19.47M123.88,282l-15.59-15.59m-.39-.4-2.65-2.64M125.31,281l-15.63-15.63m-3-3-.56-.55m20.25,17.85-15.84-15.84m18.42,16-15.73-15.72m-.66-.66-1.19-1.2m18.21,15.82-12.55-12.56m-1.93-1.93-.39-.39m18.93,16.53-.37-.37m-2.77-2.76L117.92,264M135,278.65l-16.21-16.22m17.52,15.12L119.6,260.87m20.2,17.81-17.23-17.25m18.75,16.35-16.95-16.94m20,17.57-18.69-18.69m20.57,18.18-17.7-17.7m-1.63-1.63-.16-.17m21.2,18.81-18.77-18.77m20.23,17.82-19.59-19.59m24.38,22L150.58,275m-.08-.07-16.42-16.43m-1.71-1.7-1-1m23.75,21.34L135.4,257.46m25.54,23.14-.57-.57m-4.44-4.44L139,258.65m-1.41-1.41-.88-.87m25.12,22.71-2.75-2.75m-2.45-2.45-16.43-16.43m22.65,20.24-5.53-5.52m0,0-15.43-15.43m22.21,19.8L145,257.49m19.63,17.23L146.75,256.8m18.48,16.08-16.71-16.7m22.82,20.42-1.91-1.91m-3.64-3.64-16-16m22.46,20.05-17.72-17.72m19.42,17-18.51-18.5m22.4,20-16.58-16.59M160,258l-3.81-3.81m27.39,25-21.43-21.44m-3.58-3.58-1.69-1.69m28.07,25.67-21.68-21.68M186,276.82l-21.69-21.7m22.86,20.47-22.3-22.3m23.61,21.21-23-23m24.37,22-18.16-18.17m-3.05-3-2-2M193,274.27l-.17-.17m-2.27-2.27-18.1-18.1M194,272.88,174.8,253.64m20.59,18.19-17-16.95m18.4,16-12.78-12.79m17.35,15-2.87-2.87m-.74-.74-12.54-12.54m16.91,14.51-15.83-15.83m16.55,14.15-15.37-15.36m16,13.61-14.6-14.59m15.2,12.79L190,252.08m14.69,12.29L193.35,253m-1.1-1.09-1.41-1.41m16.32,13.92-12.8-12.81m13.7,11.3L196,250.83m15.8,13.4-11.92-11.92m-.21-.21-2.53-2.53M212.91,263,201.67,251.7M215,262.63,202.39,250m14.18,11.79-13.46-13.47m14.49,12.09-13.88-13.88m16.57,14.17-16-16m16.92,14.52-14.69-14.69M222,257.67l-14.6-14.59m15.18,12.77-14-14M223.2,254l-11-11.05m15.16,12.76-14-14.05m14.47,12.07-12.23-12.23m12.65,10.25-11.22-11.21m11.64,9.24L217.9,239.12m12.8,10.4-10.1-10.1m13.28,10.89L221.54,238m13.33,10.93-12.64-12.64m13.49,11.08-12.91-12.9m13.58,11.18L227,236.25m-2.7-2.7-.94-.94m15.55,13.14-1.47-1.46m-.4-.4-9.62-9.62m12.35,9.95-11.93-11.93m13,10.63-12.61-12.61m15.16,12.76-14.21-14.22m16.67,14.27-14.74-14.74m16.63,14.23L234.2,229m14.39,12-13.4-13.41m14.5,12.1-13.76-13.76m15.26,12.86-14.58-14.58m16,13.62-13.42-13.42m14.27,11.87-13.4-13.41m14.44,12.05-12.94-13m16.28,13.89L244.29,222.3m15.28,12.88-12.41-12.42m13.35,11-12.46-12.45m13.33,10.93-12.54-12.54m13.38,11-12.07-12.07m13.38,11-11.81-11.81m13.07,10.67L252.9,216.5m12.83,10.43-12-12m12.21,9.8-11-11m11,8.58L258.59,215m7.37,5-6.09-6.09m6.09,3.69-5.15-5.16m5.15,2.76-4.31-4.32m4.31,1.92-3.48-3.48m3.48,1.08-1.9-1.9m1.9-.5-.87-.88" transform="translate(-22.4 -169.69)"/>
    </g>


    <g>
      <path class="cls-3" d="M32.01 96.94 L33.71 90.1 35.41 90.49 37.11 97.07 38.8 104.88 40.5 106.82 42.2 107.2 43.9 109.46 45.6 96.36 47.29 91.07 48.99 111.46 50.69 101.14 52.39 103.53 54.09 107.4 55.78 106.88 57.48 100.23 59.18 91.78 60.88 91.84 62.57 104.23 64.27 96.88 65.97 89.84 67.67 94.55 69.36 105.46 71.06 112.56 72.76 120.56 74.46 104.88 76.16 100.04 77.85 113.08 79.55 116.11 81.25 119.14 82.95 115.92 84.64 115.53 86.34 109.85 88.04 109.4 89.74 94.36 91.43 91.65 93.13 107.66 94.83 116.11 96.53 103.98 98.22 102.81 99.92 101.97 101.62 95.72 103.32 103.14 105.02 101.07 106.71 101.91 108.41 98.3 110.11 89.26 111.81 97.84 113.5 96.88 115.2 108.88 116.9 93.27 118.6 89.84 120.3 94.88 121.99 105.01 123.69 92.42 125.39 98.1 127.09 94.42 128.78 84.94 130.48 84.62 132.18 84.29 133.88 73.32 135.57 68.09 137.27 77.97 138.97 76.61 140.67 66.28 142.37 75.51 144.06 87.71 145.76 85.13 147.46 90.36 149.16 90.62 150.85 96.3 152.55 87.13 154.25 81.39 155.95 76.61 157.65 93.39 159.34 93.33 161.04 97.98 162.74 78.48 164.44 75.9 166.13 79.91 167.83 83.45 169.53 77.51 171.23 78.23 172.92 76.61 174.62 97.46 176.32 90.62 178.02 86.3 179.72 83.78 181.41 87.45 183.11 76.61 184.81 80.1 186.51 88.81 188.2 81.64 189.9 70.16 191.6 88.49 193.3 83.13 194.99 89.91 196.69 68.67 198.39 76.87 200.09 69.77 201.78 61.44 203.48 56.66 205.18 72.03 206.88 57.96 208.58 69.9 210.27 73.13 211.97 68.35 213.67 56.47 215.37 51.12 217.06 59.64 218.76 48.02 220.46 50.21 222.16 65.38 223.85 64.22 225.55 58.28 227.25 47.63 228.95 56.15 230.65 45.89 232.34 34.08 234.04 51.57 235.74 51.31 237.44 40.66 239.13 34.27 240.83 35.17 242.53 40.53 244.23 30.72 245.93 34.85 247.62 33.04 249.32 42.66 251.02 33.17 252.72 28.33 254.41 37.63 256.11 34.85 257.81 32.66 259.51 25.75 261.2 15.62 262.9 6.06 264.6 13.29"/>
      <path class="cls-4" d="M32.01 104.32 L33.71 106.34 35.41 104.97 37.11 105.08 38.8 103.48 40.5 105.53 42.2 106.82 43.9 103.34 45.6 102.9 47.29 107.54 48.99 105.8 50.69 102.29 52.39 105.24 54.09 102.24 55.78 103.25 57.48 102.39 59.18 101.88 60.88 103.33 62.57 101.81 64.27 99.42 65.97 103.82 67.67 99.35 69.36 99.64 71.06 99.48 72.76 103.43 74.46 99.44 76.16 103.44 77.85 102.34 79.55 103.29 81.25 103.86 82.95 101.86 84.64 102.46 86.34 105.85 88.04 102.17 89.74 103.6 91.43 104.41 93.13 105.57 94.83 105.09 96.53 105.27 98.22 102.95 99.92 106.28 101.62 106.86 103.32 106.78 105.02 109.26 106.71 106.22 108.41 107.27 110.11 105.93 111.81 102.86 113.5 104.85 115.2 105.07 116.9 105.66 118.6 103.52 120.3 106.62 121.99 104.47 123.69 103.63 125.39 107.03 127.09 104.53 128.78 101.91 130.48 104.66 132.18 105 133.88 103.13 135.57 102.5 137.27 102.47 138.97 103.79 140.67 106 142.37 105.19 144.06 106.86 145.76 109.15 147.46 105.81 149.16 102.39 150.85 105.77 152.55 107.74 154.25 103.1 155.95 103.44 157.65 105.78 159.34 106.28 161.04 105.94 162.74 104.8 164.44 105.07 166.13 108.2 167.83 104.48 169.53 105.27 171.23 105.84 172.92 102.72 174.62 100.71 176.32 102.07 178.02 101.2 179.72 100.56 181.41 103.91 183.11 105.78 184.81 105.36 186.51 102.94 188.2 101.71 189.9 103.82 191.6 102.66 193.3 100.38 194.99 101.75 196.69 103.26 198.39 102.67 200.09 101.43 201.78 103.98 203.48 100.92 205.18 96.69 206.88 97.84 208.58 99.64 210.27 98.07 211.97 99.74 213.67 101.97 215.37 105.97 217.06 104.82 218.76 102.3 220.46 107.09 222.16 101.39 223.85 101.55 225.55 106.01 227.25 104.5 228.95 99.36 230.65 108.23 232.34 108.97 234.04 104.56 235.74 103.97 237.44 107.7 239.13 106.91 240.83 102.2 242.53 105.38 244.23 108.19"/>
      <path class="cls-5" d="M32.01 106.85 L33.71 105.45 35.41 103.08 37.11 104.05 38.8 101.04 40.5 96.55 42.2 99.7 43.9 102.97 45.6 103.61 47.29 102.97 48.99 104.94 50.69 103.82 52.39 103.54 54.09 102.94 55.78 101.08 57.48 99.83 59.18 101.63 60.88 102.81 62.57 103.19 64.27 101.11 65.97 104.59 67.67 103.72 69.36 103.24 71.06 103.79 72.76 104.21 74.46 103.62 76.16 107.56 77.85 105.25 79.55 104.51 81.25 104.14 82.95 102.15 84.64 102.41 86.34 105.88 88.04 105.64 89.74 104.36 91.43 104.44 93.13 106.86 94.83 104.43 96.53 102.65 98.22 101.3 99.92 102.36 101.62 105.28 103.32 104.22 105.02 99.7 106.71 102.72 108.41 103.01 110.11 100.57 111.81 106.24 113.5 102.6 115.2 104.48 116.9 102.79 118.6 102.65 120.3 104.79 121.99 103.69 123.69 105.64 125.39 102.64 127.09 100.64 128.78 100.94 130.48 103.13 132.18 103.84 133.88 102.15 135.57 103.36 137.27 104.65 138.97 101.98 140.67 104.46 142.37 107.05 144.06 105.23 145.76 102.03 147.46 103.79 149.16 101.49 150.85 98.74 152.55 103.03 154.25 99.26 155.95 100.1 157.65 103.92 159.34 101.71 161.04 94.56 162.74 95.72 164.44 99.61 166.13 100.87 167.83 102.39 169.53 98.66 171.23 98.62 172.92 98.04 174.62 101.36 176.32 101.32 178.02 100.93 179.72 102.86 181.41 99.08 183.11 100.51 184.81 101.16 186.51 101.36 188.2 100.38 189.9 101.27 191.6 103.14 193.3 102.43 194.99 103.61 196.69 99.39 198.39 103.51 200.09 103.02 201.78 102.12 203.48 102.08 205.18 102.83 206.88 100.75 208.58 99.06 210.27 99.39 211.97 102.16 213.67 100 215.37 98.84 217.06 101.19 218.76 101.64 220.46 103.52 222.16 100.01 223.85 100.12 225.55 101.82 227.25 101.58 228.95 98.46 230.65 103.01 232.34 99.64 234.04 98.82 235.74 101.28 237.44 101.17 239.13 100.81 240.83 100.6 242.53 99.71 244.23 102.67"/>
      <path class="cls-6" d="M32.01 98.73 L33.71 96.4 35.41 96.62 37.11 101.68 38.8 127.42 40.5 127.46 42.2 117.78 43.9 110.33 45.6 107.06 47.29 106.36 48.99 103.92 50.69 107.68 52.39 107.27 54.09 103.39 55.78 101.03 57.48 95.71 59.18 96.55 60.88 95.99 62.57 95.81 64.27 99.09 65.97 91.84 67.67 94.49 69.36 97.95 71.06 111.79 72.76 107.46 74.46 102.66 76.16 100.18 77.85 101.34 79.55 100.98 81.25 95.79 82.95 97.17 84.64 94.6 86.34 93.94 88.04 101.11 89.74 100.26 91.43 96.6 93.13 93.85 94.83 98.04 96.53 96.4 98.22 97.95 99.92 99.06 101.62 94.22 103.32 93.39 105.02 91.37 106.71 97.03 108.41 94.2 110.11 94.97 111.81 95.83 113.5 92.49 115.2 95.64 116.9 94.42 118.6 98.3 120.3 99.81 121.99 99.23 123.69 94.74 125.39 97.81 127.09 98.69 128.78 97.09 130.48 98.17 132.18 98.5 133.88 91.51 135.57 97.06 137.27 98.54 138.97 94.49 140.67 97.21 142.37 97.97 144.06 98.65 145.76 97.42 147.46 96.07 149.16 94.24 150.85 92.24 152.55 95.61 154.25 98.13 155.95 93.57 157.65 92.36 159.34 94.78 161.04 93.3 162.74 92.75 164.44 89.91 166.13 90.41 167.83 94.5 169.53 100.08 171.23 99.64 172.92 105.16 174.62 112.74 176.32 111.92 178.02 112.1 179.72 107.07 181.41 105.38 183.11 104.86 184.81 105.88 186.51 97.51 188.2 96.41 189.9 94.88 191.6 97.33 193.3 100.39 194.99 102.53 196.69 95.91 198.39 97.53 200.09 95.74 201.78 96.08 203.48 98.53 205.18 103.77 206.88 119.91 208.58 114.54 210.27 106.39 211.97 101.6 213.67 100.86 215.37 99.25 217.06 97.92 218.76 93.94 220.46 101.52 222.16 125.72 223.85 120.14 225.55 111.44 227.25 102.48 228.95 96.34 230.65 94.66 232.34 91.97 234.04 92.34 235.74 94.33 237.44 94.21 239.13 93.8 240.83 92.96 242.53 91.51 244.23 91.22"/>
      <path class="cls-7" d="M32.01 94.04 L33.71 90.96 35.41 91.68 37.11 99.97 38.8 123.85 40.5 121.2 42.2 113.61 43.9 113.09 45.6 111.06 47.29 109.11 48.99 110.99 50.69 109.03 52.39 106.47 54.09 106.54 55.78 100.17 57.48 100.41 59.18 98.45 60.88 98.44 62.57 99.58 64.27 100.61 65.97 97.73 67.67 95.22 69.36 94.4 71.06 111.19 72.76 106.15 74.46 100.52 76.16 102.55 77.85 98.72 79.55 100.16 81.25 97.7 82.95 94.35 84.64 89.48 86.34 98 88.04 103.33 89.74 96.27 91.43 92.02 93.13 89.86 94.83 90.35 96.53 91.45 98.22 92.42 99.92 95.68 101.62 96.29 103.32 96.47 105.02 94.75 106.71 94.15 108.41 87.7 110.11 91.15 111.81 94.25 113.5 96.23 115.2 95.36 116.9 93.38 118.6 97.94 120.3 99.1 121.99 93.39 123.69 92.52 125.39 91.52 127.09 94.56 128.78 92.22 130.48 89.51 132.18 89.71 133.88 92.54 135.57 92.16 137.27 95.7 138.97 94.41 140.67 89.41 142.37 89.52 144.06 88.87 145.76 87.25 147.46 89.62 149.16 87.71 150.85 87.58 152.55 89.21 154.25 93.19 155.95 92.42 157.65 91.36 159.34 93.19 161.04 88.72 162.74 89.78 164.44 90.57 166.13 90.81 167.83 87.43 169.53 88.94 171.23 89.93 172.92 93.52 174.62 108.42 176.32 106.64 178.02 101.49 179.72 96.41 181.41 98.11 183.11 97.39 184.81 97.52 186.51 96.71 188.2 91.73 189.9 91.14 191.6 90.91 193.3 95.3 194.99 99.39 196.69 96.72 198.39 94.11 200.09 92.14 201.78 92.37 203.48 88.62 205.18 98.98 206.88 118.2 208.58 109.72 210.27 102.5 211.97 102.64 213.67 96.05 215.37 94.9 217.06 93.73 218.76 92.37 220.46 99.61 222.16 123.75 223.85 116.31 225.55 108.27 227.25 99.69 228.95 96.98 230.65 93.75 232.34 93.67 234.04 89.9 235.74 89.8 237.44 89.05 239.13 87.6 240.83 88.46 242.53 86.49 244.23 82.99"/>
      <path class="cls-14" d="M242.68,98.62l-7.92-7.92m-9.46-9.46-.21-.21m28,25.65-5.93-5.93M242.5,96l-7.25-7.25m19.27,16.87-6.91-6.91m-5.29-5.29-5.94-5.95M255.27,104,248,96.75M242,90.69l-4.15-4.15m18.68,16.28-8.07-8.07m-7.19-7.2-2-2m19.22,16.82-9.61-9.61m11.07,8.67L249.49,91M262,101.15l-11.6-11.61m13.14,10.75L251.26,88m13.28,10.88L252.09,86.42m13.24,10.84L253.87,85.8M266,95.5l-11.2-11.21M266,93.1,255.5,82.63M266,90.7l-8.75-8.76M266,88.29l-7-7m7,4.61-5.67-5.67M266,83.49l-3.16-3.17m3.16.77-2-2.06m2-.34-1.16-1.17M266,76.29l-.38-.39" transform="translate(-21.74 -2.54)"/>
      <path class="cls-14" d="M61.26,135.69l-.86-.86m1.8-.6-2-2m2.44,0L60,129.66m3.06.66-3.25-3.25m3.69,1.29-3.87-3.87m4.43,2-4.62-4.62m6.34,3.94-6.52-6.52m7.61,5.21-7.79-7.8m8.9,6.5-7.39-7.39m-.1-.09-1.6-1.6m12,9.58-9.36-9.35m-1.22-1.22-1.82-1.83m-4.61-4.61-.35-.34M72,122.45l-9.67-9.67m-2.2-2.21-2.26-2.26m-3.14-3.13-1-1M73,121.06,62.8,110.81M60,108l-2.69-2.69m-1-1-2.55-2.56M74,119.61,63.24,108.85m-3.45-3.45-6-6m22.17,19.77L63.68,106.89m-4.07-4.07L53.82,97m22.61,20.21L64.69,105.5m-5.27-5.26L53.69,94.5m23.24,20.84L66.17,104.58m-6.93-6.93-5.49-5.49m23.69,21.28L67.26,103.27m-8.2-8.2-5.24-5.24m25.65,23.25L68.38,102m-9.51-9.5-5.12-5.12m39.09,36.69-.06-.06m-12.19-12.2-9.32-9.31m-12.95-13-4.14-4.14m39.26,36.86-.93-.93M82.6,111.4,72.39,101.19M57.7,86.51,55,83.84m39,36.61-1.81-1.8m-5.8-5.8L73.35,99.75m21.29,18.89L92,116m-4.64-4.64L74.6,98.6m20.59,18.2-3.49-3.49m-3.43-3.44L76.08,97.68M95.75,115l-4.32-4.32m-2.2-2.19L76.59,95.79m21.55,19.15-7-7m-.42-.42L77.09,93.89m21.79,19.39L78,92.36m22.23,19.82L79.83,91.83m22.37,20L93,102.63m-.33-.33L81,90.57m22.18,19.78-9.51-9.52m-1.22-1.21L84.8,92m25.31,22.91L109,113.77m-5-5L94.24,99M92.16,97l-5.44-5.43M110.58,113,108,110.35m-3.2-3.21-9.93-9.93m-2.93-2.93L87.61,90M111,111l-3.68-3.67m-2-2-10-10m-3.75-3.76-3.05-3m23,20.55-4.76-4.76m-.77-.78L95.93,93.52m-4.59-4.58-1.71-1.71m22.58,20.17L98.38,93.57m14.51,12.11L99.12,91.91m14.68,12.28L101.53,91.93m13.32,10.91L102.52,90.51m21.18,18.78-3.55-3.55m-.59-.59-9.77-9.77m-.05,0L103.41,89m22.23,19.83L110.26,93.45m-1.65-1.65-4.4-4.4m22.67,20.26L110.72,91.51m-3-3L105,85.73m23.56,21.16L111.19,89.58m-4-4L105.56,84M129,105,111.74,87.72m-5.17-5.16-.38-.39m29.29,26.9-2-2m-3.93-3.94L112.42,86M137,108.21,130.79,102m-.78-.79L113.11,84.3m29.21,26.8-3-3m-1.14-1.14-24-24m28.74,26.34-27-27m27.53,25.13L124.55,88.54M144.42,106,126,87.61m20,17.55L127.44,86.63m22.19,19.78-21-21m22,19.56L129.17,83.55m22.39,20L136,88m-3.48-3.47-2.84-2.84m29.38,27-.11-.11m-3.07-3.07-.72-.73M153,102.56,140.8,90.38m-.55-.56L137.39,87m23,20.63L142.49,89.67M138.82,86l-.33-.33M161.19,106,143,87.82m18.75,16.35L143.6,86m18.8,16.41L144.93,84.89m19.76,17.37L148.94,86.51m-.47-.47-2-2m19.78,17.38L150,85.12m19.54,17.13-1.85-1.85m-.17-.16L150.92,83.7M170.62,101,151.85,82.22m25.65,23.25-3.15-3.15m-1.77-1.77L159.49,87.46m-1.26-1.26-1.73-1.73M154,82l-.15-.15M179,104.56,160.77,86.34m36.5,34.09-1.15-1.14M181.6,104.77,161.38,84.55M198.25,119l-2.44-2.43M182.27,103,162,82.75m36.86,34.46-3.35-3.34m-11.28-11.29-21-21m36.22,33.83-4.25-4.25m-7.39-7.4L165.24,81.2M200,113.6l-5.15-5.15m-6.24-6.23-22-22m34,31.6-6.57-6.57m-4.61-4.61L169.84,81m31.4,29L176.38,85.14m-.82-.81-4.5-4.51m33.19,30.79L178,84.35m28.54,26.14-10.06-10.06m-.14-.14L181.15,85.11m47.63,45.23-.26-.26m-20.36-20.36L197.64,99.2M196,97.58,181.81,83.37m47.37,45-.89-.89M208.82,108,198.44,97.6m-2.72-2.73L182.47,81.63m47.11,44.71-1.53-1.53m-18.62-18.62L199,95.79m-3.64-3.63-9.68-9.68M230,124.34l-2.16-2.16m-10.6-10.6-1.39-1.39m-5.59-5.6L199.63,94m-4.53-4.54-7-7m56,53.55-.23-.23m-13.44-13.43-2.8-2.81m-9.43-9.43-3.93-3.92M212.08,104,200.23,92.19m-5.44-5.45-5.88-5.88m55.59,53.2-.85-.86m-12.8-12.8-3.5-3.49m-8.25-8.26L200.83,90.38m-7.45-7.44-1.54-1.55M245,132.1l-1.48-1.48m-12.16-12.16-4.19-4.19M220,107.2,201.43,88.59m44,41.55-2.11-2.1m-11.52-11.53-4.9-4.9m-5.72-5.72L204.78,89.53m41.05,38.65-2.72-2.72m-9.89-9.89-6.83-6.83m-3.49-3.49L207.05,89.4m39.19,36.79-3.32-3.32m-8.81-8.81-5.2-5.2m-.47-.47-2.52-2.52m-1.82-1.82L208.41,88.36m38.25,35.85-3.92-3.92m-8.14-8.14-5.29-5.29m-1.1-1.1L225.45,103m-.6-.6L209,86.56m38.07,35.67-4.52-4.52m-7.47-7.47-5.38-5.38M228,103.13,209.63,84.77m37.86,35.47-5.12-5.12m-6.45-6.46-5.81-5.8m-2.36-2.37L217.52,90.27M215.29,88l-4.49-4.49m37.09,34.68-3.69-3.69m-.43-.42-1.58-1.59m-4.84-4.83-6.81-6.81m-3-3-9-9.06m-4.71-4.71-1-1m35.52,33.12-3.64-3.64m-1-1.06-2.14-2.13m-2.68-2.69L231,98.94m-3.72-3.71-7.88-7.88m29.28,26.87-3.59-3.59M243.41,109l-2.69-2.69m-.61-.61L231.45,97m-4.4-4.4-6.67-6.67m28.81,26.4-3.66-3.65m-2.3-2.31L231.91,95.05m-5.2-5.19-5.21-5.22m28.61,26.22L246,106.7M243,103.79l-9.27-9.28M226.24,87l-2.65-2.65m27.41,25-4.62-4.62m-3.52-3.51-8.6-8.61m-8.49-8.49-1.43-1.43m27.49,25.09-5-5" transform="translate(-21.74 -2.54)"/>
    </g>
    <line class="cls-8" x1="32.01" y1="103.16" x2="269.69" y2="103.16"/><text class="cls-9" transform="translate(227.04 10.52)">Observed</text><text class="cls-10" transform="translate(245.92 111.98)">Orbital</text><text class="cls-11" transform="translate(245.92 101.92)">Solar</text><text class="cls-12" transform="translate(244.92 92.62)">Volcanic</text><text class="cls-13" transform="translate(232.86 61.06)">All Natural<tspan x="0" y="10.8">Drivers</tspan></text><text class="cls-2" transform="translate(37.81 14.35)">All Natural Influences</text><text class="cls-2" transform="translate(0 7.72)">(a)</text><g id="Layer_5" data-name="Layer 5"><line class="cls-1" x1="32.01" y1="103.16" x2="28.62" y2="103.16"/><line class="cls-1" x1="32.01" y1="146.19" x2="28.62" y2="146.19"/><line class="cls-1" x1="32.01" y1="124.67" x2="28.62" y2="124.67"/><line class="cls-1" x1="32.01" y1="81.64" x2="28.62" y2="81.64"/><line class="cls-1" x1="32.01" y1="60.13" x2="28.62" y2="60.13"/><line class="cls-1" x1="32.01" y1="38.61" x2="28.62" y2="38.61"/><line class="cls-1" x1="32.01" y1="17.1" x2="28.62" y2="17.1"/><text class="cls-2" transform="translate(7.36 148.61)">−1.0</text><text class="cls-2" transform="translate(7.36 127.99)">−0.5</text><text class="cls-2" transform="translate(12.61 83.86)">0.5</text><text class="cls-2" transform="translate(12.61 105.19)">0.0</text><text class="cls-2" transform="translate(12.61 62.24)">1.0</text><text class="cls-2" transform="translate(12.61 40.74)">1.5</text><text class="cls-2" transform="translate(12.61 18.99)">2.0</text></g><path class="cls-1" d="M32.01 146.19 L269.69 146.19 269.69 2.47 32.01 2.47 32.01 146.19"/></g></svg>
